<?xml version="1.0" encoding="UTF-8"?>
<svg id="Layer_2" data-name="Layer 2" xmlns="http://www.w3.org/2000/svg" viewBox="0 0 254.73 254.73">
  <defs>
    <style>
      .cls-1 {
        fill: #fff;
      }

      .cls-2 {
        fill: #573e7d;
      }
    </style>
  </defs>
  <g id="Layer_1-2" data-name="Layer 1">
    <g>
      <circle class="cls-1" cx="127.36" cy="127.36" r="127.36"/>
      <path class="cls-2" d="m27.36,107.3c.16-.03.3-.08.43-.08,5.54.02,11.08.01,16.61.09,1.89.03,3.62.69,5.17,1.8,3.54,2.52,3.87,9.71-.99,12.29-.25.13-.49.26-.83.44.92.42,1.83.71,2.59,1.21,2.92,1.94,4.11,6.28,2.8,10.1-1.14,3.33-3.85,4.7-7,5.43-1.04.24-2.12.36-3.18.37-5.18.04-10.35.02-15.61.02,0-10.55,0-21.1,0-31.68h0Zm5.54,27.04c3.85,0,7.59.09,11.32-.03,2.35-.08,4.04-2.59,3.9-5.04-.14-2.41-1.62-4.46-3.92-4.57-3.7-.17-7.41-.12-11.12-.16-.06,0-.11.08-.19.14v9.66s0,0,0,0Zm.01-13.93c3.44,0,6.76.13,10.06-.04,2.43-.12,3.81-2.07,3.72-4.73-.08-2.35-1.47-3.77-3.97-3.84-3.14-.08-6.28-.04-9.42-.05-.13,0-.26.07-.38.11v8.55Zm171.61-4.35h4.62v2.47c.51-.4,1.14-.84,1.72-1.33,3.54-3.04,11.93-2.66,14.8,3.45,2.47,5.26,2.36,10.55-.97,15.45-1.85,2.71-4.71,3.68-7.95,3.51-2.82-.15-5.29-1.04-7.24-3.64v11.54h-4.97c0-10.49,0-20.94,0-31.44h0Zm4.69,11.58c.21,1.15.32,2.33.64,3.45.72,2.5,2.9,4.35,5.17,4.51,3.03.21,5.2-.91,6.3-3.59,1.39-3.41,1.34-6.85-.69-10.04-2.4-3.76-8.14-3.45-10.18.49-.84,1.62-1.25,3.33-1.24,5.18h0Zm-7.96,8.05c0,.94.03,1.9-.02,2.85-.01.24-.31.63-.5.65-1.44.12-2.9.33-4.32.18-1.25-.13-1.94-1.19-2.33-2.42-2.97,2.42-6.39,2.95-10.01,2.5-3.03-.38-5.55-2.87-5.76-5.63-.3-3.81,1.17-6.3,4.59-7.2,2.4-.63,4.9-.89,7.36-1.32.6-.1,1.2-.19,1.78-.35,1.12-.3,1.92-.92,2.01-2.2.08-1.31-.43-2.34-1.66-2.84-2.11-.85-4.26-.83-6.33.14-.95.44-1.51,1.34-2.01,2.85h-4.87c0-1.85.65-3.41,1.88-4.73,1.63-1.73,3.75-2.41,6.03-2.65,2.39-.25,4.77-.24,7.09.54,3.12,1.05,4.62,3.11,4.62,6.42,0,3.5,0,7.01,0,10.51q0,2.49,2.47,2.69h0Zm-7.52-7.91c-1.53.27-2.94.47-4.32.76-1.46.3-2.94.57-4.33,1.08-1.36.5-1.82,1.77-1.78,3.14.04,1.31.94,2.04,2.09,2.44,1.97.69,3.95.6,5.83-.28,1.35-.63,2.37-1.66,2.49-3.24.1-1.31.02-2.64.02-3.9Zm-125.2-12.4c7.63-.09,12.11,5.5,11.63,13.12-.16,2.65-.88,5.12-2.62,7.21-1.88,2.25-4.29,3.44-7.19,3.76-2.42.27-4.77.11-7.01-.91-3.34-1.52-5.24-4.16-6.04-7.68-.55-2.41-.53-4.82.09-7.21,1.36-5.27,5.42-8.28,11.14-8.3h0Zm-6.64,12.15c.2,1.12.3,2.26.62,3.35.8,2.76,2.98,4.59,5.47,4.71,3.08.15,5.24-1.15,6.38-4.02,1.12-2.8,1.12-5.67-.11-8.44-1.82-4.1-6.76-5.15-9.95-2.1-1.82,1.74-2.29,4.05-2.42,6.5h0Zm33.12-12.15c6.88-.01,11.57,4.63,11.65,11.53.04,2.91-.44,5.69-2.15,8.13-2.45,3.49-5.98,4.72-10.05,4.53-1.5-.07-3.05-.4-4.45-.95-3.28-1.29-5.24-3.82-6.11-7.22-.76-2.98-.68-5.94.29-8.86,1.49-4.47,5.57-7.15,10.82-7.16h0Zm6.6,11.53c-.11-.61-.22-1.79-.55-2.91-.84-2.84-3.05-4.57-5.85-4.69-2.63-.11-4.99,1.44-6.01,4.15-1.2,3.2-1.11,6.38.7,9.36,1.89,3.1,6.16,3.78,8.96,1.47,2.14-1.77,2.66-4.21,2.75-7.38h0Zm42.55-4.5c-1.57,0-3.1.01-4.63-.02-.19,0-.48-.19-.54-.36-.86-2.39-2.88-2.67-4.97-2.68-.87,0-1.79.21-2.59.54-1.72.72-1.91,2.66-.3,3.59,1.12.65,2.43.99,3.68,1.35,1.78.5,3.62.8,5.39,1.34,4.52,1.37,6.29,5.9,3.76,9.64-1.21,1.79-3.03,2.76-5.12,3.27-3.08.74-6.14.8-9.15-.29-3.22-1.16-4.92-3.5-5.17-7.03h4.91c1.4,3.65,5.34,5.07,9.04,3.2.86-.43,1.43-1.04,1.48-2.05.06-1.08-.36-2-1.32-2.36-1.72-.64-3.52-1.08-5.29-1.6-1.47-.43-2.98-.74-4.39-1.3-2.73-1.08-3.91-2.94-3.9-5.77.01-2.47,1.46-4.59,4.02-5.52,3.53-1.28,7.13-1.44,10.67-.05,2.4.94,3.82,2.79,4.42,5.28.05.23,0,.48,0,.84Zm-26.67-6.44h4.55v3.72h-4.46c-.03.45-.07.76-.07,1.07,0,3.75,0,7.51,0,11.26,0,.5.04,1,.09,1.5.1.99.65,1.58,1.65,1.64.92.05,1.84.01,2.81.01v3.72c-2.08.51-4.19.49-6.23.03-2.38-.53-3.35-2.17-3.37-5.27-.03-4.22,0-8.43,0-12.65v-1.24h-3.78v-3.76h3.73v-6.89h5.1c0,2.25,0,4.49,0,6.87h0Zm42.52,23.05c-1.96,0-3.81.06-5.65-.02-1.79-.08-3.17-1.26-3.56-3.03-.22-1.01-.34-2.04-.35-3.07-.04-3.97-.02-7.94-.02-11.9v-1.25h-3.76v-3.71h3.71v-6.91h5.11v6.8h4.53v3.74h-4.34c-.05.34-.12.57-.12.8,0,4.04-.02,8.08,0,12.12.01,2.14.57,2.65,2.69,2.64.57,0,1.13,0,1.77,0v3.81Zm8.49-22.97v3.91c1.96-3.33,4.67-5.06,8.68-4.47v4.83c-1.9-.29-3.74-.34-5.37.83-2.13,1.53-2.88,3.77-2.93,6.24-.08,3.82-.02,7.64-.02,11.54h-5v-22.88c1.51,0,3,0,4.64,0Z"/>
    </g>
  </g>
</svg>