<?xml version="1.0" encoding="UTF-8"?>
<svg id="Layer_2" data-name="Layer 2" xmlns="http://www.w3.org/2000/svg" viewBox="0 0 254.73 254.73">
  <defs>
    <style>
      .cls-1 {
        fill: #fff;
      }

      .cls-2 {
        fill: #092e20;
      }
    </style>
  </defs>
  <g id="Layer_1-2" data-name="Layer 1">
    <g>
      <circle class="cls-1" cx="127.36" cy="127.36" r="127.36"/>
      <g>
        <path class="cls-2" d="m50.94,92.43h10.94v50.63c-5.61,1.07-9.73,1.49-14.2,1.49-13.35,0-20.31-6.04-20.31-17.61s7.39-18.39,18.82-18.39c1.78,0,3.12.14,4.76.57v-16.68Zm0,25.48c-1.28-.43-2.34-.57-3.69-.57-5.54,0-8.74,3.41-8.74,9.37s3.05,9.02,8.67,9.02c1.21,0,2.2-.07,3.76-.28v-17.54Z"/>
        <path class="cls-2" d="m79.28,109.32v25.36c0,8.74-.64,12.93-2.56,16.55-1.78,3.48-4.12,5.68-8.95,8.1l-10.16-4.83c4.83-2.27,7.17-4.26,8.66-7.32,1.56-3.12,2.06-6.75,2.06-16.26v-21.59h10.94,0Zm-10.94-16.83h10.94v11.22h-10.94v-11.22Zm17.54,19.32c4.83-2.27,9.45-3.27,14.49-3.27,5.61,0,9.3,1.49,10.94,4.4.92,1.63,1.21,3.76,1.21,8.31v22.23c-4.9.71-11.08,1.21-15.63,1.21-9.16,0-13.28-3.2-13.28-10.3,0-7.67,5.47-11.22,18.89-12.36v-2.41c0-1.99-.99-2.7-3.76-2.7-4.05,0-8.59,1.14-12.86,3.34v-8.45s0,0,0,0Zm17.12,17.4c-7.24.71-9.59,1.85-9.59,4.69,0,2.13,1.35,3.12,4.33,3.12,1.63,0,3.12-.14,5.26-.5v-7.32Zm14.84-18.18c6.46-1.7,11.79-2.49,17.19-2.49s9.66,1.28,12.08,3.76c2.27,2.34,2.98,4.9,2.98,10.37v21.45h-10.94v-21.02c0-4.19-1.42-5.75-5.33-5.75-1.49,0-2.84.14-5.04.78v25.99h-10.94v-33.1Zm36.5,39.06c3.84,1.99,7.67,2.91,11.72,2.91,7.17,0,10.23-2.91,10.23-9.87v-.21c-2.13,1.06-4.26,1.49-7.1,1.49-9.59,0-15.7-6.32-15.7-16.33,0-12.43,9.02-19.46,25-19.46,4.69,0,9.02.5,14.28,1.56l-3.75,7.89c-2.91-.57-.23-.08-2.43-.29v1.14l.14,4.62.07,5.97c.07,1.49.07,2.98.14,4.47v2.98c0,9.37-.78,13.78-3.12,17.4-3.41,5.33-9.3,7.95-17.69,7.95-4.26,0-7.95-.64-11.79-2.13v-10.09s0,0,0,0Zm21.73-32.67h-1.14c-2.13-.07-4.62.5-6.32,1.56-2.63,1.49-3.98,4.19-3.98,8.03,0,5.47,2.7,8.59,7.53,8.59,1.49,0,2.7-.28,4.12-.71v-3.76c0-1.28-.07-2.7-.07-4.19l-.07-5.04-.07-3.62v-.85s0,0,0,0Zm33.67-9.02c10.94,0,17.61,6.89,17.61,18.04s-6.96,18.61-18.04,18.61-17.69-6.89-17.69-17.97c0-11.51,6.96-18.68,18.11-18.68h0Zm-.21,27.84c4.19,0,6.68-3.48,6.68-9.52s-2.42-9.52-6.6-9.52-6.82,3.48-6.82,9.52c0,6.04,2.49,9.52,6.75,9.52h0Z"/>
      </g>
    </g>
  </g>
</svg>