<?xml version="1.0" encoding="UTF-8"?>
<svg id="Layer_2" data-name="Layer 2" xmlns="http://www.w3.org/2000/svg" viewBox="0 0 254.73 254.73">
  <defs>
    <style>
      .cls-1 {
        fill: #fff;
      }
    </style>
  </defs>
  <g id="Layer_1-2" data-name="Layer 1">
    <g>
      <circle class="cls-1" cx="127.36" cy="127.36" r="127.36"/>
      <path d="m101.12,147.2c-4.97-3.91-10.27-7.65-13.89-12.93-7.62-9.31-13.49-20.08-17.5-31.4-2.43-7.36-3.26-15.26-6.38-22.33-3.27-5.14.56-10.76,6.19-12.39,2.51-.48,6.91-2.85,1.59-1.16-4.77,3.5-5.23-3.18-.34-3.6,3.34-.44,4.57-3.17,3.42-5.63-3.59-2.34,8.69-4.91,2.51-8.39-6.43-6.94,9-8.28,5.19-.39-.91,6.06,10.79-1.11,8.07,5.89,2.76,3.36,10.33.77,10.14,5.48,4.02.28,5.4,3.66,9.17,3.91,3.91,1.77,11,3.16,12.33,7.56-3.88,3.07-12.85-6.34-13.29,2.16,1.17,12.55.87,25.49,5.47,37.44,2.17,7.24,7.44,12.94,12.19,18.57,4.55,5.52,10.72,9.41,17,12.68,5.51,2.6,11.45,4.32,17.46,5.4,2.44-1.86,6.74-8.79,10.54-5.87.18,3.29-7.54,6.86-.36,6.5,4.22-1.27,7.14,3.26,10.61-.83,3.2,3.79,13.29-2.42,11.02,5.32-3.08,1.99-7.57.79-10.65,3.52-5.08-2.54-9.13,2.27-14.75,1.66-6.25,1.12-12.61,1.57-18.94,1.58-10.39-.82-21.01-1.17-30.89-4.78-5.57-1.62-11.01-4.79-15.9-7.96h0Zm8.78,3.81c5.44,2.35,10.76,4.83,16.72,5.58,9.46,1.31,19.22,3.34,28.71,1.49-4.29-1.94-8.74.75-13.01-1.39-5.13,1.1-10.64-.28-15.86-.97-5.93-2.64-12.33-4.46-17.89-7.89-6.94-2.54,3.59,3.25,5.46,3.72,4.34,2.46-4.77-1.26-6.06-2.29-3.63-2.04-4.1-1.61-.36.46.75.44,1.5.9,2.29,1.28h0Zm-10.35-7.31c5.27,1.95-.02-3.71-2.44-3.38-1.07-1.86-4.09-3.03-1.96-4.03-3.83,1.33-4.01-5.05-5.81-4.14-4.05-1.28-1.58-5.81-6.4-8.6-.44-2.93-4.79-5.48-6.18-9.9-.61-2.27-4.92-8.77-2.28-2.72,2.25,5.82,6.21,10.82,9.51,15.8,2.56,4.74,5.58,9.71,10.25,12.67,1.57,1.51,3.09,3.82,5.31,4.29h0Zm23.22,9.8c2.16,1.36,12.61,2.99,6.06.56-1.1.23-12.13-3.12-6.06-.56Zm-23.86-19.37c2.53,1.94,10.22.25,3.88-1.16-2.88-1.54-9.38-2.59-4.95.93l1.07.23Zm12.26,6.5c6.19,1.75-5.21-3.92-1.53-.65l.82.37.71.28Zm.05-3.28c4.5.58-5.35-3.06-.99-.33l.99.33Zm15.63,9.61c4.2-2.51,2.82,5.88,7.13.71,4.25-3.11-3.67,3.84,1.57.55,3.79-2.54,9.39,1.2,12.93,2.42,2.54-.12,5.01,2.2,7.62.79,5.02-1.35-9.82-2.01-5.93-4.4-4.59,1.34-7.98-1.59-10.24-4.53-5.15-1.19-11.11-3.82-13.68-8.38-1.05-1.71,1.51.24-.91-2.56-3.1-2.76-4.65-5.9-6.73-9.25-2.49-1.33-2.78-5.23-3.03-.13.02-3.22-3.01-5.39-3.75-4.49-.01-3.1,3.24-1.55.96-3.84-.49-3.22-2.1-6.57-2.59-10.2-.75-1.75-.11-5.5-2.57-1.54-.9,4.19-.3-5.14,1.1-2.07,1.83-3.14-.66-2.77-.76-2.34,1.19-2.65.76-6.41-.31-4.97.64-2.81,1.01-10.34-.95-9,1.19-2.94,2.25-13.44-2.9-9.44-2.09.03-5.7.76-7.41,1.61,5.35,2.95-.54,1.07-2.72.6-.28,2.73-2.44,1.55-5.14,1.58,4.31.53-2.1,4.41-4.57,2.9-3.21,1.53,2.77,5.36.06,6.55.33,1.78-4.92-.65-4.51,3.48-3.12-1.31-.43,4.89,1.13,2.79,5.3,1.44,3.73,4.7,3.87,7.81-.86,1.81-4.27-4.25-.76-3.97-2.77-4.5-3.06-1.63-5.36.46-.53.15,5.86,2.97,1.85,4.36,3.53.55,3.64,3.64,4.36,5.6,2.12,2.21,1.69-2.44,4.23.22-1.61-2.37-8.52-6.68-2.96-5.29-.03-2.38-1.01-4.31.7-4.26,1.69-3.06-1.77,7.54,2.04,3.65,1.05-.46,1.32-3.06,3.21.25,2.75,2.71.99,4.66-2.89,2.19.69,2.36,5.19,3.19,4.34,6.88.9,3.24,2.15,2.05,3.24,1.86.86,3.15,1.34.83,1.38-.67,3.92.84,3,3.16,4.23,4.78,2.7,1.22-3.87-8.27.77-2.85,4.88,4.41,1.83,6.25-2.55,5.54,2.77-.22,3.66,3.75,7.13,3.61,3.16,1.51,5.3,7.28-.15,4.88-1.89-1.71-8.58-3.81-3.12-.57,5.04,2.34,9.06,3.74,13.92,6.67,3.48,2.49,4.99,5.33,6.31,5.9-2.93,1.4-8.82-1.12-4.44-1.89-2.73-.5-5.8-1.88-3.19,1.52,2.23,1.86,7.88,1.66,8.9,1.87-.86,1.89-2.34,2.04.03,2.19-2.64,1.41.85,1.63,1.09,2.43h0Zm-5.4-15.26c-1.61-1.68-2.03-4.83-.29-2.09.89.36,2.86,5.15.29,2.09Zm-10.31-16.98c-1.92-4.29,1.36-2.35.43.7l-.43-.7Zm-17.64-11.77c-.86-1.41-2.27-5.54-1.82-6.8.41,2.06,4.37,8.84,1.94,2.81-2.68-5.05,3.21,1.64,3.82,2.9.28,1.25-1.66-.34-.34,2.6-2.4-3.35-1.41,1.85-3.59-1.51Zm-8.9-7.48c-2.03-2.02-3.5-3.88.1-1.25,1.38.05-3.08-4.23.33-1.36,3.58.65,1.77,5.88-.43,2.61h0Zm1.22-3.09c-5.9-5.26,7.41,2.75.96.97l-.96-.97Zm16.91,9.82c-2.56-1.53-.68-10.78.19-4.45,2.48-.8-.14,3.27,1.71,3.23-.29,2.57-1.12,3.49-1.91,1.23Zm-15.75-11.55c-3.79-5.23,11.02,5.29,2.43,1.33-.9-.24-1.98-.32-2.43-1.33Zm.58-2c2.25-.48,9.34,3.96,2.83,1.27-.72-.8-2.27-.44-2.83-1.27h0Zm19.35,9.64c.24-4.5,1.35-2.69.01.65v-.65s-.01,0-.01,0Zm-17.67-11.21c.92-1.35-2.44-6.09.48-1.7,1.26,1,3.66,1.68,1.54,2.1,3.32,2.93-.81.79-2.03-.4Zm14.69-2.41c-1.17-2.06,1.48-9.1,1.78-4.73-1.24,3.4-.36,5.3.5.74,1.59-3.59-.34,7.08-2.28,3.99h0Zm4.86,50.28c3.35.86,3.34-.52.31-.93-1.63-1.52-6.78-3.13-2.17-.19.3.77,1.27.75,1.86,1.12Zm-11.91-7.91c1.85,1.38,6.96,3.91,2.63.53,1.46-1.7-2.79-2.6-1.38-3.74-3.59-2.2-2.83-2-.32-1.93-4.31-1.93.62-1.78.39-2.77-1.66-.33-8.26-2.93-4.38.21-3.95-2.01-.94.75-2.13.46-4.04-1.1,3.59,3.07-.64,2.04,2.31,1.83,6.23,4.7.98,1.94-.69,1,3.76,2.51,4.85,3.26h0Zm41.91,24.58c1.77-1.71.07,2.73,2.93-.42.03-2.26-.09-3.59-3.29-.85-.88.49-1.28,2.57.35,1.27h0Zm-28.98-18.6c1.97,1.75,9.04,1.28,2.39.22-.98-1.46-6.25-1.11-2.39-.22Zm-32.42-21.78c-2.86-4.08-1.78-5.91-4.53-9.24-.52-2.55-4.73-8.33-2.18-2.21,2.34,3.58,3.03,9.13,6.71,11.45h0Zm69.12,41.54c2.99-1.93-.69-1.63-.54.18l.54-.18Zm4.8,1.3c3.83-2.77-2.32-.53-.8.53l.8-.53Zm-64.33-41c2.81.63,11.23,6.92,6.26.44-2.55-.75-1.02-6.97-3.61-5.87,1.74,2.91,1.43,4.15-2.23,2.32-4.59-2.25-2.58,1.11-1.68,2.04-1.23.28,1.62,1.06,1.26,1.09h0Zm-12.81-10.11c.5-2.08-4.63-11.45-2.43-4.7.8,1.42.71,4.1,2.43,4.7Zm87.93,48.54c2.78-.56,9.12,1.42,10.15-.74-3.38-.08-11.69-2.39-12.08.55l.74.12,1.19.07h0Zm-86.65-60.5c2.81-1.1-5.11-2.28-.57-.21l.57.21Zm-8.76-9.8c-.51-2.91-.44-8.01,4.41-6.28-6.47,1.29,4.48,8.05,3.1,2.71,2.72.13,5.32-1.61,3.9,1.03,5.36-.59,9.08-5.24,14.26-4.59,4.03-.54,8.45-.94,12.8-2.57,3.58-.26,7.02-4.11,5.06-6.39-4.87-.41-9.98.2-15.37,1.27-5.97,1.24-11.39,3.6-17.42,4.61-5.87.79,1.18,2.17-.5,2.48-3.06,1.06,3.66,1.78-.4,2.9-2.5-.48-5.11-1.34-4.04-3.97-5.62.73-10.57,3.07-6.12,8.79h.33s0,0,0,0Zm13.56-6.9c1.32-4.86,7.06,4,2.16.65-.58-.44-1.55-.8-2.16-.65Zm2.67-2.32c.17-2.24,5.54,1.18.88.8l-.88-.8h0Zm4.15-1.9c2.01-2.42,11.39-1.54,4.52-.24-1.84-1.39-3.25.82-4.52.24h0Zm15.71-1.91c1.27-3.32,4.93-1.34.59-.67.09.36-.13,1.72-.59.67Zm81.64,83.36c3.03.01,9.18-.94,2.59-.94-1.04.16-6.03.13-2.59.94Zm-104.38-66.31c2.45-.17,3.83-2.7-.48-2.56-6.68-.69,5.89,2.29-.86,1.44-.91.6,1.28,1.29,1.33,1.12Zm-3.44-19.37c4.38-1.49,10.36-3.16,12.43.73-2.1-2.53-.85-5.02,1.14-1.32,2.81,3.74,4.21-1.7,2.39-2.96,2.08,2.59,4.45,3.81,1.39.16,3.32-4-6.65.52-8.91.48-1.09.49-11.26,2.59-8.43,2.91h0Zm2.57-4.91c2.5-1.88,8.63,1.12,4.7-1.87-.39-.34-8.62,2.27-4.7,1.87Zm9.1.38c2.92.07-1.26-3.93,2.22-2.11-.57-1.87-4.05-2.22-5.75-2.96-.96,1.71,1.96,5.1,3.53,5.07Zm-3.78-7.37c4.71-.62-1.2-2.03-.95-.05l.95.05h0Zm-6.95-5.43c-3.32-4.33,6.23.73,2.87-3.81-2.84-2.26-5.56,2.54-2.87,3.81h0Zm42.53,22.91c1.52-2.69-6.27-3.63-1.02-.95.48.16.37,1.14,1.02.95h0Zm-30.86,100.29c-.34,1.33-.54,3.56-.62,6.68,0,.61-.28.92-.83.92s-.94-.27-1.16-.8c-.59-1.45-1.16-2.45-1.69-3.03-.63-.67-1.47-1.08-2.52-1.22-1.13-.18-3.94-.27-8.44-.27-1.03,0-1.7.11-2.02.33-.2.14-.3.44-.3.89v13.46c0,.46.29.67.86.65,1.76-.02,4.32-.14,7.66-.36.65-.08,1.1-.29,1.32-.64.23-.35.45-1.24.67-2.69.14-.79.6-1.1,1.4-.92.67.14.96.45.86.92-.56,2.69-.73,6.2-.54,10.52.02.51-.31.79-.98.83-.56.06-.9-.24-1.04-.89-.51-2.47-1.47-3.8-2.87-3.97-1.4-.17-3.67-.25-6.82-.25-.36,0-.53.13-.53.39v13.37c0,.99.37,1.66,1.1,2.02.58.3,1.81.57,3.71.8.97.1,1.4.53,1.28,1.28-.12.65-.99.91-2.62.77-4.69-.38-8.57-.36-11.61.06-.85.12-1.28-.23-1.28-1.04,0-.52.42-.81,1.28-.89,1.94-.22,2.91-1.92,2.91-5.11v-25.43c0-1.31-.23-2.31-.7-3.01-.47-.7-1.33-1.34-2.6-1.92-.79-.36-1.09-.84-.89-1.46.1-.38.26-.58.47-.62.2-.06.72-.02,1.57.12,1.25.2,4.19.3,8.82.3,5.47,0,10.19-.12,14.17-.36,1.33-.08,1.99.03,1.99.33,0,.08-.01.16-.03.24h0Zm19.27,37.71c0,.79-.45,1.14-1.34,1.04-2.73-.26-6.12-.22-10.16.12-.81.08-1.31.06-1.5-.06-.19-.12-.28-.45-.28-.98,0-.47.54-.87,1.62-1.2,1.08-.33,1.62-1.3,1.62-2.92v-26.89c0-1.61-.23-2.78-.7-3.54-.47-.75-1.28-1.34-2.45-1.75-.61-.22-.92-.53-.92-.92,0-.59.45-1.04,1.34-1.34,1.35-.44,2.74-1.11,4.19-2.02,1.19-.71,1.94-1.07,2.26-1.07.73,0,1.1.5,1.1,1.51,0-.08-.04.91-.12,2.97-.06,1.96-.08,3.89-.06,5.79l.12,26.53c0,1.21.3,2.09.89,2.63.59.54,1.62.91,3.06,1.08.89.1,1.34.44,1.34,1.01h0Zm26.87-1.75c0,.42-.76,1.04-2.27,1.89-1.52.84-2.73,1.26-3.64,1.26-.77,0-1.46-.38-2.05-1.13-.59-.75-1.01-1.13-1.25-1.13-.18,0-1.12.41-2.82,1.22-1.7.81-3.42,1.22-5.14,1.22-1.62,0-2.98-.48-4.07-1.43-1.19-1.05-1.78-2.48-1.78-4.28,0-3.43,3.92-5.88,11.76-7.37,1.35-.26,2.03-.8,2.05-1.63l.06-1.9c.12-3.25-1.32-4.87-4.31-4.87-.85,0-1.66.76-2.42,2.29-.76,1.53-1.86,2.35-3.28,2.47-1.62.16-2.44-.53-2.44-2.05,0-.95,1.21-2.06,3.62-3.33,2.54-1.33,4.97-1.99,7.31-1.99,4.02,0,6.01,1.91,5.97,5.73l-.12,12.24c-.02,1.29.53,1.93,1.63,1.93.22,0,.63-.05,1.25-.15.62-.1.97-.15,1.07-.15.57,0,.86.39.86,1.16h0Zm-9.15-6.77c.02-.5-.1-.82-.34-.98-.25-.16-.64-.19-1.17-.09-4.77.85-7.16,2.41-7.16,4.66s1.24,3.42,3.71,3.42c.99,0,2.01-.19,3.06-.56,1.23-.44,1.84-.96,1.84-1.58l.06-4.87h0Zm31.24,3.35c0,2.1-.81,3.77-2.42,5.01-1.61,1.24-3.82,1.86-6.61,1.86-1.86,0-3.72-.2-5.58-.59-1.61-.36-2.54-.68-2.79-.98-.16-.28-.24-1.63-.24-4.07,0-1.05.24-1.59.71-1.63.47-.06.88.2,1.22.77,1.48,2.6,3.88,3.89,7.19,3.89,2.79,0,4.19-.97,4.19-2.91,0-.85-.32-1.56-.95-2.14-.69-.65-2.04-1.42-4.04-2.29-2.89-1.29-4.82-2.42-5.79-3.39-1.05-1.03-1.57-2.42-1.57-4.16,0-2.14.82-3.8,2.47-4.99,1.52-1.15,3.56-1.72,6.12-1.72,1.61,0,3.07.13,4.4.39,1.43.26,2.17.57,2.23.95.16,1.11.49,2.71.98,4.81.06.26-.22.46-.83.62-.65.14-1.09.03-1.31-.33-1.56-2.56-3.54-3.83-5.94-3.83-2.71,0-4.07.87-4.07,2.61,0,.97.37,1.74,1.1,2.32.65.5,2.19,1.27,4.6,2.32,2.54,1.09,4.26,2.07,5.17,2.94,1.19,1.13,1.78,2.64,1.78,4.54h0Zm34.95,5.2c0,.69-.47,1.06-1.4,1.1-1.39.02-3.2.12-5.44.3-1.11.22-1.9.08-2.38-.41-3.13-3.37-5.78-6.89-7.96-10.58-.18-.32-.4-.47-.68-.47-.34,0-.92.3-1.75.89-.93.51-1.4,1.25-1.4,2.2,0,.67.02,1.64.06,2.91.04,1.27.36,2.1.95,2.49.42.28,1.38.5,2.88.65.93.12,1.4.47,1.4,1.04,0,.46-.07.74-.22.85-.15.11-.54.13-1.17.07-1.98-.18-5.33-.08-10.04.3-1.19.1-1.83-.05-1.93-.45-.04-.14-.06-.34-.06-.59,0-.61.6-1.08,1.81-1.39,1.09-.28,1.63-1.56,1.63-3.83v-25.96c0-1.62-.16-2.75-.48-3.39-.44-.81-1.35-1.45-2.73-1.9-.65-.22-.98-.52-.98-.92,0-.58.47-1.02,1.4-1.34,1.5-.5,2.92-1.19,4.25-2.05,1.09-.71,1.76-1.07,2.02-1.07.81,0,1.22.51,1.22,1.55,0-.14-.01.84-.03,2.94-.02,1.94-.03,3.88-.03,5.82l.06,18.6c0,.52.14.77.41.77.3,0,.75-.26,1.37-.77,1.64-1.29,3.66-2.97,6.06-5.05.48-.49.71-.89.71-1.19,0-.53-.8-.91-2.41-1.13-.69-.08-1.02-.47-.98-1.16.06-.69.41-.99,1.04-.89,1.43.2,3.51.31,6.24.33,1.9.02,3.79.03,5.68.03.61.02.92.39.92,1.1,0,.67-.49,1.04-1.45,1.1-1.53.06-2.96.4-4.31,1.04-1.88.85-3.89,2.35-6.03,4.49-.16.12-.24.27-.24.45,0,.28.34.94,1.01,1.99,2.48,3.76,4.81,6.6,7.01,8.53,1.41,1.21,2.72,1.81,3.95,1.81.91,0,1.48.06,1.69.19.22.13.33.47.33,1.02h0Z"/>
    </g>
  </g>
</svg>