<?xml version="1.0" encoding="UTF-8"?>
<svg id="Layer_2" data-name="Layer 2" xmlns="http://www.w3.org/2000/svg" viewBox="0 0 254.73 254.73">
  <defs>
    <style>
      .cls-1 {
        fill: #fff;
      }

      .cls-2 {
        fill: #e34f26;
      }

      .cls-3 {
        fill: #1b73ba;
      }

      .cls-4 {
        fill: #ef652a;
      }

      .cls-5 {
        fill: #1c88c7;
      }
    </style>
  </defs>
  <g id="Layer_1-2" data-name="Layer 1">
    <g>
      <circle class="cls-1" cx="127.36" cy="127.36" r="127.36"/>
      <g>
        <path class="cls-2" d="m56.27,150.11l-8.19-103.7,97.86.21-8.66,103.49-39.9,11.96-41.1-11.96Z"/>
        <path class="cls-4" d="m97.38,152.06V56.29l40.3.14-7.19,85.69-33.11,9.95Z"/>
        <path class="cls-1" d="m126.6,80.21l1.14-12.66h-61.99l3.43,38.81h42.78l-1.68,16.55-13.7,3.82-13.9-4.17-.74-9.88h-12.29l1.68,20.17,25.25,7.3,25.45-7.3,3.43-39.37h-44.93l-1.28-13.28h47.35Z"/>
      </g>
      <g>
        <path class="cls-3" d="m117.24,207.94l-8.19-103.7,97.86.21-8.66,103.49-39.9,11.96-41.1-11.96Z"/>
        <path class="cls-5" d="m158.34,209.89v-95.77l40.3.14-7.19,85.69-33.11,9.95Z"/>
        <path class="cls-1" d="m188.63,126.36h-61.99l1.68,12.52h29.42l-28.95,12.87,1.68,12.1h42.65l-1.55,16.9-14.44,2.92-13.1-3.48-1.01-9.6h-12.02l1.61,19.96,25.79,7.44,24.72-8.14,3.16-39.02h-26.13l28.48-12.24v-12.24Z"/>
      </g>
    </g>
  </g>
</svg>