<?xml version="1.0" encoding="UTF-8"?>
<svg id="Layer_2" data-name="Layer 2" xmlns="http://www.w3.org/2000/svg" viewBox="0 0 254.73 254.73">
  <defs>
    <style>
      .cls-1 {
        fill: #fff;
      }

      .cls-2 {
        fill: #61dafb;
      }
    </style>
  </defs>
  <g id="Layer_1-2" data-name="Layer 1">
    <g>
      <circle class="cls-1" cx="127.36" cy="127.36" r="127.36"/>
      <g>
        <path class="cls-2" d="m212.15,132.25c0-11.23-14.07-21.88-35.64-28.48,4.98-21.98,2.77-39.47-6.98-45.07-2.25-1.31-4.87-1.94-7.74-1.94v7.71c1.59,0,2.87.31,3.94.9,4.7,2.7,6.74,12.96,5.15,26.17-.38,3.25-1,6.67-1.76,10.16-6.77-1.66-14.17-2.94-21.95-3.77-4.67-6.39-9.51-12.2-14.38-17.28,11.27-10.47,21.84-16.21,29.03-16.21v-7.71c-9.51,0-21.95,6.77-34.53,18.53-12.58-11.68-25.02-18.39-34.53-18.39v7.71c7.15,0,17.77,5.7,29.03,16.11-4.84,5.08-9.68,10.85-14.28,17.25-7.81.83-15.21,2.11-21.98,3.8-.79-3.46-1.38-6.81-1.8-10.02-1.62-13.2.38-23.47,5.05-26.2,1.04-.62,2.38-.9,3.97-.9v-7.71c-2.9,0-5.53.62-7.81,1.94-9.71,5.6-11.89,23.05-6.88,44.97-21.5,6.64-35.5,17.25-35.5,28.45s14.07,21.88,35.64,28.48c-4.98,21.98-2.77,39.47,6.98,45.07,2.25,1.31,4.87,1.94,7.78,1.94,9.51,0,21.95-6.77,34.53-18.53,12.58,11.68,25.02,18.39,34.53,18.39,2.9,0,5.53-.62,7.81-1.94,9.71-5.6,11.89-23.05,6.88-44.97,21.43-6.6,35.43-17.25,35.43-28.45h0Zm-45-23.05c-1.28,4.46-2.87,9.06-4.67,13.65-1.42-2.77-2.9-5.53-4.53-8.3-1.59-2.77-3.28-5.46-4.98-8.09,4.91.73,9.64,1.62,14.17,2.73h0Zm-15.83,36.81c-2.7,4.67-5.46,9.09-8.33,13.2-5.15.45-10.37.69-15.62.69s-10.44-.24-15.55-.66c-2.87-4.11-5.67-8.5-8.36-13.13-2.63-4.53-5.01-9.13-7.19-13.76,2.14-4.63,4.56-9.26,7.15-13.79,2.7-4.67,5.46-9.09,8.33-13.2,5.15-.45,10.37-.69,15.62-.69s10.44.24,15.55.66c2.87,4.11,5.67,8.5,8.36,13.13,2.63,4.53,5.01,9.13,7.19,13.76-2.18,4.63-4.56,9.26-7.15,13.79h0Zm11.16-4.49c1.87,4.63,3.46,9.26,4.77,13.76-4.53,1.11-9.3,2.04-14.24,2.77,1.69-2.66,3.39-5.39,4.98-8.19,1.59-2.77,3.08-5.56,4.49-8.33h0Zm-35.05,36.88c-3.21-3.32-6.43-7.02-9.61-11.06,3.11.14,6.29.24,9.51.24s6.46-.07,9.61-.24c-3.11,4.04-6.33,7.74-9.51,11.06Zm-25.72-20.36c-4.91-.73-9.64-1.62-14.17-2.73,1.28-4.46,2.87-9.06,4.67-13.65,1.42,2.77,2.9,5.53,4.53,8.3s3.28,5.46,4.98,8.09Zm25.54-71.93c3.21,3.32,6.43,7.02,9.61,11.06-3.11-.14-6.29-.24-9.51-.24s-6.46.07-9.61.24c3.11-4.04,6.33-7.74,9.51-11.06Zm-25.58,20.36c-1.69,2.66-3.39,5.39-4.98,8.19-1.59,2.77-3.08,5.53-4.49,8.3-1.87-4.63-3.46-9.26-4.77-13.76,4.53-1.07,9.3-2,14.24-2.73h0Zm-31.28,43.27c-12.24-5.22-20.15-12.06-20.15-17.49s7.92-12.3,20.15-17.49c2.97-1.28,6.22-2.42,9.57-3.49,1.97,6.77,4.56,13.83,7.78,21.05-3.18,7.19-5.74,14.21-7.67,20.95-3.42-1.07-6.67-2.25-9.68-3.53h0Zm18.6,49.39c-4.7-2.7-6.74-12.96-5.15-26.17.38-3.25,1-6.67,1.76-10.16,6.77,1.66,14.17,2.94,21.95,3.77,4.67,6.39,9.51,12.2,14.38,17.28-11.27,10.47-21.84,16.21-29.03,16.21-1.56-.03-2.87-.35-3.91-.93h0Zm81.99-26.34c1.62,13.2-.38,23.47-5.05,26.2-1.04.62-2.38.9-3.97.9-7.15,0-17.77-5.7-29.03-16.11,4.84-5.08,9.68-10.85,14.28-17.25,7.81-.83,15.21-2.11,21.98-3.8.79,3.49,1.42,6.84,1.8,10.06Zm13.31-23.05c-2.97,1.28-6.22,2.42-9.57,3.49-1.97-6.77-4.56-13.83-7.78-21.05,3.18-7.19,5.74-14.21,7.67-20.95,3.42,1.07,6.67,2.25,9.71,3.53,12.24,5.22,20.15,12.06,20.15,17.49-.03,5.43-7.95,12.3-20.19,17.49h0Z"/>
        <circle class="cls-2" cx="127.33" cy="132.25" r="15.8"/>
      </g>
    </g>
  </g>
</svg>