<?xml version="1.0" encoding="utf-8"?>
<!-- Generator: Adobe Illustrator 27.7.0, SVG Export Plug-In . SVG Version: 6.00 Build 0)  -->
<svg version="1.1" id="Layer_2_00000038405219298997156700000000592825258663552692_"
	 xmlns="http://www.w3.org/2000/svg" xmlns:xlink="http://www.w3.org/1999/xlink" x="0px" y="0px" viewBox="0 0 254.7 254.7"
	 style="enable-background:new 0 0 254.7 254.7;" xml:space="preserve">
<style type="text/css">
	.st0{fill:#FFFFFF;}
	.st1{fill:#61DAFB;}
</style>
<g id="Layer_1-2">
	<g>
		<circle class="st0" cx="127.4" cy="127.4" r="127.4"/>
		<g>
			<path class="st1" d="M204.1,110.7c0-10.2-12.8-20-32.5-26c4.5-20.1,2.5-36-6.4-41.1c-2.1-1.2-4.4-1.8-7.1-1.8v7
				c1.4,0,2.6,0.3,3.6,0.8c4.3,2.5,6.1,11.8,4.7,23.9c-0.4,3-0.9,6.1-1.6,9.3c-6.2-1.5-12.9-2.7-20-3.4c-4.3-5.8-8.7-11.1-13.1-15.8
				c10.3-9.6,19.9-14.8,26.5-14.8v-7c-8.7,0-20,6.2-31.5,16.9C115.2,48,103.8,41.9,95.1,41.9v7c6.5,0,16.2,5.2,26.5,14.7
				c-4.4,4.6-8.8,9.9-13,15.7c-7.1,0.8-13.9,1.9-20.1,3.5c-0.7-3.2-1.3-6.2-1.6-9.2c-1.5-12,0.3-21.4,4.6-23.9
				c0.9-0.6,2.2-0.8,3.6-0.8v-7c-2.7,0-5.1,0.6-7.1,1.8c-8.9,5.1-10.8,21-6.3,41c-19.6,6.1-32.4,15.7-32.4,26s12.8,20,32.5,26
				c-4.5,20.1-2.5,36,6.4,41.1c2.1,1.2,4.4,1.8,7.1,1.8c8.7,0,20-6.2,31.5-16.9c11.5,10.7,22.8,16.8,31.5,16.8
				c2.6,0,5.1-0.6,7.1-1.8c8.9-5.1,10.9-21.1,6.3-41.1C191.3,130.6,204.1,120.9,204.1,110.7L204.1,110.7L204.1,110.7z M163,89.7
				c-1.2,4.1-2.6,8.3-4.3,12.5c-1.3-2.5-2.6-5.1-4.1-7.6c-1.4-2.5-3-5-4.5-7.4C154.6,87.9,158.9,88.7,163,89.7L163,89.7L163,89.7z
				 M148.6,123.3c-2.5,4.3-5,8.3-7.6,12c-4.7,0.4-9.5,0.6-14.3,0.6s-9.5-0.2-14.2-0.6c-2.6-3.8-5.2-7.8-7.6-12
				c-2.4-4.1-4.6-8.3-6.6-12.6c2-4.2,4.2-8.5,6.5-12.6c2.5-4.3,5-8.3,7.6-12.1c4.7-0.4,9.5-0.6,14.3-0.6s9.5,0.2,14.2,0.6
				c2.6,3.8,5.2,7.8,7.6,12c2.4,4.1,4.6,8.3,6.6,12.6C153.1,114.9,150.9,119.2,148.6,123.3z M158.8,119.2c1.7,4.1,3.1,8.3,4.4,12.6
				c-4.1,1-8.5,1.9-13,2.5c1.6-2.4,3.1-4.9,4.5-7.5C156.1,124.3,157.5,121.7,158.8,119.2L158.8,119.2L158.8,119.2z M126.8,152.9
				c-2.9-3-5.9-6.4-8.8-10.1c2.8,0.1,5.7,0.2,8.7,0.2c2.9,0,5.9-0.1,8.8-0.2C132.8,146.3,129.9,149.6,126.8,152.9z M103.3,134.3
				c-4.5-0.7-8.8-1.5-12.9-2.5c1.2-4.1,2.6-8.3,4.3-12.5c1.3,2.5,2.7,5.1,4.1,7.6C100.2,129.4,101.8,131.9,103.3,134.3L103.3,134.3z
				 M126.6,68.6c2.9,3,5.9,6.4,8.8,10.1c-2.8-0.1-5.7-0.2-8.7-0.2s-5.9,0.1-8.8,0.2C120.7,75.2,123.6,71.8,126.6,68.6z M103.3,87.2
				c-1.6,2.4-3.1,4.9-4.5,7.5c-1.4,2.5-2.8,5.1-4.1,7.6c-1.7-4.1-3.1-8.3-4.3-12.6C94.4,88.7,98.8,87.9,103.3,87.2L103.3,87.2z
				 M74.7,126.7c-11.2-4.8-18.4-11-18.4-16s7.2-11.2,18.4-16c2.7-1.2,5.7-2.2,8.7-3.2c1.8,6.2,4.2,12.6,7.1,19.2
				c-2.9,6.6-5.2,13-7,19.1C80.5,128.9,77.5,127.9,74.7,126.7L74.7,126.7L74.7,126.7z M91.7,171.8c-4.3-2.5-6.2-11.8-4.7-23.9
				c0.3-3,0.9-6.1,1.6-9.3c6.2,1.5,12.9,2.7,20,3.4c4.3,5.8,8.7,11.1,13.1,15.8c-10.3,9.6-19.9,14.8-26.5,14.8
				C93.9,172.6,92.7,172.3,91.7,171.8L91.7,171.8z M166.6,147.8c1.5,12.1-0.4,21.4-4.6,23.9c-0.9,0.6-2.2,0.8-3.6,0.8
				c-6.5,0-16.2-5.2-26.5-14.7c4.4-4.6,8.8-9.9,13-15.7c7.1-0.8,13.9-1.9,20.1-3.5C165.6,141.8,166.2,144.8,166.6,147.8L166.6,147.8
				L166.6,147.8z M178.7,126.7c-2.7,1.2-5.7,2.2-8.7,3.2c-1.8-6.2-4.2-12.6-7.1-19.2c2.9-6.6,5.2-13,7-19.1c3.1,1,6.1,2.1,8.9,3.2
				c11.2,4.8,18.4,11,18.4,16C197.1,115.7,189.9,122,178.7,126.7L178.7,126.7L178.7,126.7z"/>
			<path class="st1" d="M126.7,125.2c8,0,14.4-6.5,14.4-14.4s-6.5-14.4-14.4-14.4s-14.4,6.5-14.4,14.4S118.7,125.2,126.7,125.2z
				 M56.3,204.5h-4.8v8.2h-2.7v-20.3h6.7c2.3,0,4,0.5,5.3,1.6c1.2,1,1.8,2.6,1.8,4.5c0,1.3-0.3,2.4-1,3.3c-0.7,0.9-1.6,1.6-2.8,2.1
				l4.8,8.6v0.2h-2.9L56.3,204.5L56.3,204.5z M51.6,202.3h4.1c1.3,0,2.4-0.3,3.2-1c0.8-0.7,1.2-1.6,1.2-2.8c0-1.2-0.4-2.2-1.1-2.9
				c-0.7-0.7-1.8-1-3.2-1h-4.1V202.3L51.6,202.3z M72.3,212.9c-2,0-3.7-0.7-5-2c-1.3-1.4-1.9-3.1-1.9-5.4v-0.5c0-1.5,0.3-2.8,0.8-4
				c0.6-1.2,1.4-2.1,2.4-2.8c1-0.7,2.1-1,3.3-1c2,0,3.5,0.6,4.6,1.9c1.1,1.3,1.6,3.1,1.6,5.5v1.1H68c0,1.5,0.5,2.7,1.3,3.6
				c0.8,0.9,1.9,1.4,3.2,1.4c0.9,0,1.7-0.2,2.3-0.6s1.2-0.9,1.7-1.5L78,210C76.7,212,74.8,212.9,72.3,212.9L72.3,212.9L72.3,212.9z
				 M72,199.4c-1,0-1.9,0.4-2.6,1.1c-0.7,0.8-1.1,1.8-1.3,3.2h7.5v-0.2c-0.1-1.3-0.4-2.3-1.1-3C73.9,199.8,73.1,199.4,72,199.4
				L72,199.4L72,199.4z M90.5,212.7c-0.2-0.3-0.3-0.8-0.4-1.6c-1.2,1.2-2.6,1.9-4.3,1.9c-1.5,0-2.7-0.4-3.7-1.2
				c-0.9-0.8-1.4-1.9-1.4-3.2c0-1.6,0.6-2.8,1.8-3.6c1.2-0.9,2.9-1.3,5-1.3h2.5v-1.2c0-0.9-0.3-1.6-0.8-2.1
				c-0.5-0.5-1.3-0.8-2.4-0.8c-0.9,0-1.7,0.2-2.3,0.7c-0.6,0.5-0.9,1-0.9,1.7h-2.6c0-0.8,0.3-1.5,0.8-2.2c0.5-0.7,1.3-1.3,2.2-1.7
				c0.9-0.4,1.9-0.6,3-0.6c1.7,0,3.1,0.4,4.1,1.3c1,0.9,1.5,2.1,1.5,3.6v6.9c0,1.4,0.2,2.5,0.5,3.3v0.2L90.5,212.7L90.5,212.7z
				 M86.2,210.7c0.8,0,1.6-0.2,2.3-0.6c0.7-0.4,1.2-1,1.6-1.6v-3.1h-2c-3.2,0-4.7,0.9-4.7,2.8c0,0.8,0.3,1.4,0.8,1.9
				S85.4,210.7,86.2,210.7L86.2,210.7L86.2,210.7z M102.7,210.8c0.9,0,1.7-0.3,2.4-0.8s1.1-1.2,1.1-2.1h2.4
				c-0.1,0.9-0.3,1.7-0.9,2.5s-1.3,1.4-2.2,1.9c-0.9,0.5-1.9,0.7-2.9,0.7c-2.1,0-3.7-0.7-4.9-2.1c-1.2-1.4-1.8-3.2-1.8-5.6v-0.4
				c0-1.5,0.3-2.8,0.8-3.9s1.3-2,2.3-2.7c1-0.6,2.2-0.9,3.6-0.9c1.7,0,3.1,0.5,4.2,1.5c1.1,1,1.7,2.3,1.8,3.9h-2.4
				c-0.1-1-0.4-1.8-1.1-2.4c-0.7-0.6-1.5-0.9-2.4-0.9c-1.3,0-2.3,0.5-3.1,1.4c-0.7,0.9-1.1,2.3-1.1,4.1v0.5c0,1.7,0.4,3.1,1.1,4
				C100.4,210.4,101.4,210.8,102.7,210.8L102.7,210.8L102.7,210.8z M115.1,194v3.6h2.8v2h-2.8v9.3c0,0.6,0.1,1.1,0.4,1.4
				s0.7,0.4,1.3,0.4c0.3,0,0.7-0.1,1.2-0.2v2.1c-0.7,0.2-1.3,0.3-2,0.3c-1.2,0-2-0.4-2.6-1c-0.6-0.7-0.9-1.7-0.9-3v-9.3h-2.7v-2h2.7
				V194L115.1,194L115.1,194z M144,212.7h-2.7L131.1,197v15.6h-2.7v-20.3h2.7l10.2,15.7v-15.7h2.7V212.7z M157.6,212.7
				c-0.1-0.3-0.3-0.8-0.4-1.6c-1.2,1.2-2.6,1.9-4.3,1.9c-1.5,0-2.7-0.4-3.7-1.2c-0.9-0.8-1.4-1.9-1.4-3.2c0-1.6,0.6-2.8,1.8-3.6
				c1.2-0.9,2.9-1.3,5-1.3h2.5v-1.2c0-0.9-0.3-1.6-0.8-2.1c-0.5-0.5-1.3-0.8-2.4-0.8c-0.9,0-1.7,0.2-2.3,0.7c-0.6,0.5-0.9,1-0.9,1.7
				h-2.6c0-0.8,0.3-1.5,0.8-2.2c0.5-0.7,1.3-1.3,2.2-1.7c0.9-0.4,1.9-0.6,3-0.6c1.7,0,3.1,0.4,4.1,1.3c1,0.9,1.5,2.1,1.5,3.6v6.9
				c0,1.4,0.2,2.5,0.5,3.3v0.2L157.6,212.7L157.6,212.7z M153.3,210.7c0.8,0,1.6-0.2,2.3-0.6c0.7-0.4,1.2-1,1.6-1.6v-3.1h-2
				c-3.1,0-4.7,0.9-4.7,2.8c0,0.8,0.3,1.4,0.8,1.9S152.5,210.7,153.3,210.7L153.3,210.7L153.3,210.7z M167.3,194v3.6h2.8v2h-2.8v9.3
				c0,0.6,0.1,1.1,0.4,1.4s0.7,0.4,1.3,0.4c0.3,0,0.7-0.1,1.2-0.2v2.1c-0.7,0.2-1.3,0.3-2,0.3c-1.1,0-2-0.4-2.6-1
				c-0.6-0.7-0.9-1.7-0.9-3v-9.3H162v-2h2.7V194L167.3,194L167.3,194z M175.9,212.7h-2.6v-15.1h2.6V212.7z M173.2,193.6
				c0-0.4,0.1-0.8,0.4-1.1c0.3-0.3,0.6-0.4,1.1-0.4s0.9,0.1,1.1,0.4s0.4,0.6,0.4,1.1s-0.1,0.8-0.4,1c-0.3,0.3-0.6,0.4-1.1,0.4
				s-0.9-0.1-1.1-0.4C173.3,194.4,173.2,194,173.2,193.6z M185.1,209.2l3.7-11.6h2.6l-5.4,15.1h-2l-5.5-15.1h2.6L185.1,209.2
				L185.1,209.2z M199.9,213c-2,0-3.7-0.7-5-2c-1.3-1.4-1.9-3.1-1.9-5.4v-0.5c0-1.5,0.3-2.8,0.9-4c0.6-1.2,1.4-2.1,2.4-2.8
				c1-0.7,2.1-1,3.3-1c2,0,3.5,0.6,4.6,1.9c1.1,1.3,1.6,3.1,1.6,5.5v1.1h-10.2c0,1.5,0.5,2.7,1.3,3.6c0.8,0.9,1.9,1.4,3.2,1.4
				c0.9,0,1.7-0.2,2.3-0.6s1.2-0.9,1.7-1.5l1.6,1.2C204.4,212,202.5,212.9,199.9,213L199.9,213L199.9,213z M199.6,199.5
				c-1,0-1.9,0.4-2.6,1.1c-0.7,0.8-1.1,1.8-1.3,3.2h7.5v-0.2c-0.1-1.3-0.4-2.3-1.1-3C201.5,199.8,200.7,199.5,199.6,199.5
				L199.6,199.5L199.6,199.5z"/>
		</g>
	</g>
</g>
</svg>
