<?xml version="1.0" encoding="UTF-8"?>
<svg id="Layer_2" data-name="Layer 2" xmlns="http://www.w3.org/2000/svg" viewBox="0 0 254.73 254.73">
  <defs>
    <style>
      .cls-1 {
        fill: #fff;
      }

      .cls-2 {
        fill: #252f3e;
      }

      .cls-3 {
        fill: #f90;
        fill-rule: evenodd;
      }
    </style>
  </defs>
  <g id="Layer_1-2" data-name="Layer 1">
    <g>
      <circle class="cls-1" cx="127.36" cy="127.36" r="127.36"/>
      <g>
        <path class="cls-2" d="m89.19,124.95c0,2.15.23,3.9.64,5.18.47,1.28,1.05,2.68,1.86,4.19.29.47.41.93.41,1.34,0,.58-.35,1.16-1.11,1.75l-3.67,2.44c-.52.35-1.05.52-1.51.52-.58,0-1.16-.29-1.75-.81-.81-.87-1.51-1.8-2.09-2.73-.58-.99-1.16-2.09-1.8-3.43-4.54,5.35-10.24,8.03-17.11,8.03-4.89,0-8.79-1.4-11.64-4.19-2.85-2.79-4.31-6.52-4.31-11.17,0-4.95,1.75-8.96,5.29-11.99s8.26-4.54,14.26-4.54c1.98,0,4.01.17,6.17.47s4.36.76,6.69,1.28v-4.25c0-4.42-.93-7.51-2.73-9.31-1.86-1.8-5-2.68-9.48-2.68-2.04,0-4.13.23-6.28.76s-4.25,1.16-6.28,1.98c-.93.41-1.63.64-2.04.76s-.7.17-.93.17c-.81,0-1.22-.58-1.22-1.8v-2.85c0-.93.12-1.63.41-2.04s.81-.81,1.63-1.22c2.04-1.05,4.48-1.92,7.33-2.62,2.85-.76,5.88-1.11,9.08-1.11,6.92,0,11.99,1.57,15.24,4.71,3.2,3.14,4.83,7.91,4.83,14.31v18.85h.12Zm-23.62,8.84c1.92,0,3.9-.35,5.99-1.05,2.09-.7,3.96-1.98,5.53-3.72.93-1.11,1.63-2.33,1.98-3.72s.58-3.08.58-5.06v-2.44c-1.69-.41-3.49-.76-5.35-.99s-3.67-.35-5.47-.35c-3.9,0-6.75.76-8.67,2.33s-2.85,3.78-2.85,6.69c0,2.73.7,4.77,2.15,6.17,1.4,1.45,3.43,2.15,6.11,2.15h0Zm46.72,6.28c-1.05,0-1.75-.17-2.21-.58-.47-.35-.87-1.16-1.22-2.27l-13.67-44.98c-.35-1.16-.52-1.92-.52-2.33,0-.93.47-1.45,1.4-1.45h5.7c1.11,0,1.86.17,2.27.58.47.35.81,1.16,1.16,2.27l9.78,38.52,9.08-38.52c.29-1.16.64-1.92,1.11-2.27s1.28-.58,2.33-.58h4.65c1.11,0,1.86.17,2.33.58.47.35.87,1.16,1.11,2.27l9.19,38.99,10.07-38.99c.35-1.16.76-1.92,1.16-2.27.47-.35,1.22-.58,2.27-.58h5.41c.93,0,1.45.47,1.45,1.45,0,.29-.06.58-.12.93-.06.35-.17.81-.41,1.45l-14.02,44.98c-.35,1.16-.76,1.92-1.22,2.27s-1.22.58-2.21.58h-5c-1.11,0-1.86-.17-2.33-.58s-.87-1.16-1.11-2.33l-9.02-37.53-8.96,37.47c-.29,1.16-.64,1.92-1.11,2.33s-1.28.58-2.33.58h-5Zm74.77,1.57c-3.03,0-6.05-.35-8.96-1.05s-5.18-1.45-6.69-2.33c-.93-.52-1.57-1.11-1.8-1.63s-.35-1.11-.35-1.63v-2.97c0-1.22.47-1.8,1.34-1.8.35,0,.7.06,1.05.17s.87.35,1.45.58c1.98.87,4.13,1.57,6.4,2.04,2.33.47,4.6.7,6.92.7,3.67,0,6.52-.64,8.5-1.92s3.03-3.14,3.03-5.53c0-1.63-.52-2.97-1.57-4.07s-3.03-2.09-5.88-3.03l-8.44-2.62c-4.25-1.34-7.39-3.32-9.31-5.94-1.92-2.56-2.91-5.41-2.91-8.44,0-2.44.52-4.6,1.57-6.46s2.44-3.49,4.19-4.77c1.75-1.34,3.72-2.33,6.05-3.03s4.77-.99,7.33-.99c1.28,0,2.62.06,3.9.23,1.34.17,2.56.41,3.78.64,1.16.29,2.27.58,3.32.93,1.05.35,1.86.7,2.44,1.05.81.47,1.4.93,1.75,1.45.35.47.52,1.11.52,1.92v2.73c0,1.22-.47,1.86-1.34,1.86-.47,0-1.22-.23-2.21-.7-3.32-1.51-7.04-2.27-11.17-2.27-3.32,0-5.94.52-7.74,1.63s-2.73,2.79-2.73,5.18c0,1.63.58,3.03,1.75,4.13s3.32,2.21,6.4,3.2l8.26,2.62c4.19,1.34,7.22,3.2,9.02,5.59s2.68,5.12,2.68,8.15c0,2.5-.52,4.77-1.51,6.75-1.05,1.98-2.44,3.72-4.25,5.12-1.8,1.45-3.96,2.5-6.46,3.26-2.62.81-5.35,1.22-8.32,1.22h0Z"/>
        <g>
          <path class="cls-3" d="m198.06,169.92c-19.14,14.14-46.96,21.65-70.87,21.65-33.52,0-63.71-12.39-86.52-32.99-1.8-1.63-.17-3.84,1.98-2.56,24.67,14.31,55.1,22.98,86.58,22.98,21.24,0,44.57-4.42,66.04-13.5,3.2-1.45,5.94,2.09,2.79,4.42Z"/>
          <path class="cls-3" d="m206.03,160.85c-2.44-3.14-16.18-1.51-22.4-.76-1.86.23-2.15-1.4-.47-2.62,10.94-7.68,28.92-5.47,31.01-2.91,2.09,2.62-.58,20.6-10.82,29.21-1.57,1.34-3.08.64-2.39-1.11,2.33-5.76,7.51-18.74,5.06-21.82Z"/>
        </g>
      </g>
    </g>
  </g>
</svg>