<?xml version="1.0" encoding="UTF-8"?>
<svg id="Layer_2" data-name="Layer 2" xmlns="http://www.w3.org/2000/svg" viewBox="0 0 254.73 254.73">
  <defs>
    <style>
      .cls-1 {
        fill: #fff;
      }

      .cls-2 {
        fill: #0091e2;
      }
    </style>
  </defs>
  <g id="Layer_1-2" data-name="Layer 1">
    <g>
      <circle class="cls-1" cx="127.36" cy="127.36" r="127.36"/>
      <g>
        <path class="cls-2" d="m231.57,115.81c-.51-.42-5.09-3.86-14.94-3.86-2.55,0-5.18.25-7.73.67-1.87-12.83-12.65-19.03-13.08-19.37l-2.63-1.51-1.7,2.43c-2.12,3.27-3.74,6.96-4.67,10.73-1.78,7.29-.68,14.17,3.06,20.04-4.5,2.52-11.8,3.1-13.33,3.19H55.97c-3.14,0-5.69,2.52-5.69,5.62-.17,10.4,1.61,20.79,5.26,30.6,4.16,10.73,10.36,18.69,18.34,23.56,9,5.45,23.69,8.55,40.25,8.55,7.47,0,14.94-.67,22.33-2.01,10.27-1.84,20.12-5.37,29.21-10.48,7.45-4.26,14.15-9.7,19.87-16.1,9.59-10.65,15.28-22.55,19.44-33.11h1.7c10.44,0,16.9-4.11,20.46-7.63,2.38-2.18,4.16-4.86,5.43-7.88l.76-2.18-1.78-1.26Z"/>
        <path class="cls-2" d="m67.18,124.7h16.13c.76,0,1.44-.59,1.44-1.42v-14.25c0-.75-.59-1.43-1.44-1.43h-16.13c-.76,0-1.44.59-1.44,1.43v14.25c.08.84.68,1.43,1.44,1.43h0Zm22.25,0h16.13c.76,0,1.44-.59,1.44-1.42v-14.25c0-.75-.59-1.43-1.44-1.43h-16.13c-.76,0-1.44.59-1.44,1.43v14.25c.09.84.68,1.43,1.44,1.43m22.67,0h16.13c.76,0,1.44-.59,1.44-1.43v-14.25c0-.75-.59-1.43-1.44-1.43h-16.13c-.76,0-1.44.59-1.44,1.43v14.25c0,.84.59,1.43,1.44,1.43Zm22.33,0h16.13c.76,0,1.44-.59,1.44-1.43v-14.25c0-.75-.59-1.43-1.44-1.43h-16.13c-.76,0-1.44.59-1.44,1.43v14.25c0,.84.68,1.43,1.44,1.43Zm-45-20.37h16.13c.76,0,1.44-.67,1.44-1.43v-14.25c0-.75-.59-1.43-1.44-1.43h-16.13c-.76,0-1.44.59-1.44,1.43v14.25c.09.75.68,1.43,1.44,1.43m22.67,0h16.13c.76,0,1.44-.67,1.44-1.43v-14.25c0-.75-.59-1.43-1.44-1.43h-16.13c-.76,0-1.44.59-1.44,1.43v14.25c0,.75.59,1.43,1.44,1.43m22.33,0h16.13c.76,0,1.44-.67,1.44-1.43v-14.25c0-.75-.68-1.43-1.44-1.43h-16.13c-.76,0-1.44.59-1.44,1.43v14.25c0,.75.68,1.43,1.44,1.43m0-20.46h16.13c.76,0,1.44-.59,1.44-1.43v-14.25c0-.75-.68-1.43-1.44-1.43h-16.13c-.76,0-1.44.59-1.44,1.43v14.25c0,.75.68,1.43,1.44,1.43m22.5,40.83h16.13c.76,0,1.44-.59,1.44-1.43v-14.25c0-.75-.59-1.43-1.44-1.43h-16.13c-.76,0-1.44.59-1.44,1.43v14.25c.09.84.68,1.43,1.44,1.43"/>
      </g>
    </g>
  </g>
</svg>