<?xml version="1.0" encoding="UTF-8"?>
<svg id="Layer_2" data-name="Layer 2" xmlns="http://www.w3.org/2000/svg" viewBox="0 0 254.73 254.73">
  <defs>
    <style>
      .cls-1 {
        fill: #fff;
      }

      .cls-2 {
        fill: #de4c36;
      }
    </style>
  </defs>
  <g id="Layer_1-2" data-name="Layer 1">
    <g>
      <circle class="cls-1" cx="127.36" cy="127.36" r="127.36"/>
      <path class="cls-2" d="m210.18,119.7l-75.15-75.15c-4.33-4.33-11.34-4.33-15.68,0l-15.61,15.61,19.8,19.8c4.6-1.55,9.88-.51,13.54,3.16,3.68,3.69,4.72,9.01,3.13,13.63l19.08,19.08c4.62-1.59,9.94-.56,13.63,3.13,5.15,5.15,5.15,13.5,0,18.65-5.15,5.15-13.5,5.15-18.66,0-3.88-3.88-4.83-9.57-2.87-14.35l-17.79-17.79v46.82c1.29.64,2.47,1.48,3.49,2.49,5.15,5.15,5.15,13.5,0,18.66-5.15,5.15-13.51,5.15-18.65,0-5.15-5.16-5.15-13.51,0-18.66,1.23-1.24,2.7-2.21,4.32-2.88v-47.26c-1.62-.66-3.09-1.64-4.32-2.88-3.9-3.9-4.84-9.63-2.84-14.42l-19.51-19.52-51.53,51.53c-4.33,4.33-4.33,11.35,0,15.68l75.15,75.15c4.33,4.33,11.34,4.33,15.68,0l74.8-74.8c4.33-4.33,4.33-11.35,0-15.68"/>
    </g>
  </g>
</svg>