<?xml version="1.0" encoding="UTF-8"?>
<svg id="Layer_2" data-name="Layer 2" xmlns="http://www.w3.org/2000/svg" viewBox="0 0 254.73 254.73">
  <defs>
    <style>
      .cls-1 {
        fill: #fff;
      }

      .cls-2 {
        fill: #4285f4;
      }

      .cls-3 {
        fill: #fbbc05;
      }

      .cls-4 {
        fill: #34a853;
      }

      .cls-5 {
        fill: #ea4335;
      }
    </style>
  </defs>
  <g id="Layer_1-2" data-name="Layer 1">
    <g>
      <circle class="cls-1" cx="127.36" cy="127.36" r="127.36"/>
      <g>
        <path class="cls-5" d="m149.36,97.8h4.99l14.22-14.22.7-6.03c-26.45-23.35-66.83-20.83-90.17,5.62-6.49,7.35-11.2,16.09-13.76,25.55,1.58-.65,3.34-.75,4.99-.3l28.42-4.69s1.45-2.39,2.19-2.24c12.65-13.89,33.93-15.5,48.53-3.69h-.1Z"/>
        <path class="cls-2" d="m188.81,108.72c-3.27-12.03-9.97-22.84-19.3-31.12l-19.95,19.95c8.42,6.88,13.22,17.25,13.02,28.13v3.54c9.81,0,17.75,7.95,17.75,17.75s-7.95,17.75-17.75,17.75h-35.51l-3.54,3.59v21.3l3.54,3.54h35.51c20.36.16,38.42-13.04,44.46-32.47,6.03-19.45-1.37-40.56-18.23-51.96h0Z"/>
        <path class="cls-4" d="m91.51,192.96h35.51v-28.42h-35.51c-2.53,0-5.03-.54-7.33-1.6l-4.99,1.54-14.31,14.22-1.25,4.99c8.03,6.06,17.82,9.31,27.88,9.27h0Z"/>
        <path class="cls-3" d="m91.51,100.74c-19.73.12-37.2,12.75-43.49,31.44-6.29,18.69-.02,39.32,15.61,51.34l20.6-20.6c-8.94-4.04-12.91-14.55-8.87-23.49s14.55-12.91,23.49-8.87c3.93,1.78,7.09,4.93,8.87,8.87l20.6-20.6c-8.77-11.45-22.39-18.15-36.81-18.1h0Z"/>
      </g>
    </g>
  </g>
</svg>