<?xml version="1.0" encoding="UTF-8"?>
<svg id="Layer_2" data-name="Layer 2" xmlns="http://www.w3.org/2000/svg" viewBox="0 0 254.73 254.73">
  <defs>
    <style>
      .cls-1 {
        fill: #fff;
      }

      .cls-2 {
        fill: #390091;
      }

      .cls-3 {
        fill: #a179dc;
      }

      .cls-4 {
        fill: #280068;
      }
    </style>
  </defs>
  <g id="Layer_1-2" data-name="Layer 1">
    <g>
      <circle class="cls-1" cx="127.36" cy="127.36" r="127.36"/>
      <g>
        <path class="cls-3" d="m188.42,96.95c0-2.31-.49-4.35-1.49-6.1-.98-1.72-2.45-3.16-4.42-4.3-16.26-9.37-32.53-18.72-48.79-28.11-4.38-2.53-8.63-2.44-12.98.13-6.47,3.82-38.87,22.38-48.53,27.97-3.98,2.3-5.91,5.82-5.91,10.4,0,18.85,0,37.71,0,56.56,0,2.26.47,4.26,1.43,5.98.98,1.77,2.47,3.26,4.49,4.42,9.66,5.59,42.06,24.15,48.53,27.97,4.35,2.57,8.6,2.66,12.98.13,16.25-9.38,32.53-18.73,48.79-28.11,2.02-1.17,3.5-2.65,4.49-4.42.95-1.72,1.43-3.72,1.43-5.98,0,0,0-37.7,0-56.55"/>
        <path class="cls-4" d="m127.55,125.04l-59.82,34.45c.98,1.77,2.47,3.26,4.49,4.42,9.66,5.59,42.06,24.15,48.53,27.97,4.35,2.57,8.6,2.66,12.98.13,16.25-9.38,32.53-18.73,48.79-28.11,2.02-1.17,3.5-2.65,4.49-4.42l-59.45-34.44Z"/>
        <path class="cls-2" d="m188.42,96.95c0-2.31-.49-4.35-1.49-6.1l-59.38,34.19,59.45,34.44c.95-1.72,1.43-3.72,1.43-5.98,0,0,0-37.7,0-56.55"/>
        <g>
          <path class="cls-1" d="m162.77,112.16v6.44h6.44v-6.44h3.22v6.44h6.44v3.22h-6.44v6.44h6.44v3.22h-6.44v6.44h-3.22v-6.44h-6.44v6.44h-3.22v-6.44h-6.44v-3.22h6.44v-6.44h-6.44v-3.22h6.44v-6.44h3.22Zm6.44,9.66h-6.44v6.44h6.44v-6.44Z"/>
          <path class="cls-1" d="m127.68,79.83c16.79,0,31.46,9.12,39.31,22.68l-.08-.13-19.76,11.38c-3.89-6.59-11.03-11.04-19.22-11.13h-.26c-12.48,0-22.6,10.12-22.6,22.6,0,3.93,1.02,7.8,2.98,11.22,3.9,6.8,11.22,11.39,19.62,11.39s15.82-4.65,19.7-11.52l-.09.16,19.73,11.43c-7.77,13.44-22.23,22.53-38.83,22.72h-.51c-16.85,0-31.55-9.17-39.38-22.8-3.82-6.65-6.01-14.37-6.01-22.59,0-25.07,20.32-45.4,45.4-45.4h0Z"/>
        </g>
      </g>
    </g>
  </g>
</svg>