<?xml version="1.0" encoding="UTF-8"?>
<svg id="Layer_2" data-name="Layer 2" xmlns="http://www.w3.org/2000/svg" viewBox="0 0 254.73 254.73">
  <defs>
    <style>
      .cls-1 {
        fill: #fff;
      }
    </style>
  </defs>
  <g id="Layer_1-2" data-name="Layer 1">
    <g>
      <circle class="cls-1" cx="127.36" cy="127.36" r="127.36"/>
      <g>
        <path d="m34.33,112.43c-.39,0-.49-.2-.3-.49l2.07-2.66c.2-.3.69-.49,1.09-.49h35.22c.39,0,.49.3.3.59l-1.68,2.57c-.2.3-.69.59-.99.59l-35.72-.1Zm-14.9,9.08c-.39,0-.49-.2-.3-.49l2.07-2.66c.2-.3.69-.49,1.09-.49h44.99c.39,0,.59.3.49.59l-.79,2.37c-.1.39-.49.59-.89.59l-46.67.1Zm23.88,9.08c-.39,0-.49-.3-.3-.59l1.38-2.47c.2-.3.59-.59.99-.59h19.73c.39,0,.59.3.59.69l-.2,2.37c0,.39-.39.69-.69.69l-21.51-.1Zm102.41-19.93c-6.22,1.58-10.46,2.76-16.58,4.34-1.48.39-1.58.49-2.86-.99-1.48-1.68-2.57-2.76-4.64-3.75-6.22-3.06-12.23-2.17-17.86,1.48-6.71,4.34-10.16,10.75-10.06,18.75.1,7.89,5.53,14.4,13.32,15.49,6.71.89,12.33-1.48,16.77-6.51.89-1.09,1.68-2.27,2.66-3.65h-19.04c-2.07,0-2.57-1.28-1.87-2.96,1.28-3.06,3.65-8.19,5.03-10.75.3-.59.99-1.58,2.47-1.58h35.91c-.2,2.66-.2,5.33-.59,7.99-1.09,7.1-3.75,13.62-8.09,19.34-7.1,9.37-16.38,15.19-28.12,16.77-9.67,1.28-18.65-.59-26.54-6.51-7.3-5.53-11.44-12.83-12.53-21.9-1.28-10.75,1.87-20.42,8.39-28.91,7.01-9.18,16.28-15,27.63-17.07,9.27-1.68,18.15-.59,26.15,4.83,5.23,3.45,8.98,8.19,11.44,13.91.59.89.2,1.38-.99,1.68Z"/>
        <path d="m178.38,165.22c-8.98-.2-17.17-2.76-24.07-8.68-5.82-5.03-9.47-11.44-10.66-19.04-1.78-11.15,1.28-21.02,7.99-29.8,7.2-9.47,15.88-14.4,27.63-16.48,10.06-1.78,19.54-.79,28.12,5.03,7.79,5.33,12.63,12.53,13.91,22,1.68,13.32-2.17,24.17-11.35,33.45-6.51,6.61-14.5,10.75-23.68,12.63-2.66.49-5.33.59-7.89.89h0Zm23.48-39.86c-.1-1.28-.1-2.27-.3-3.26-1.78-9.77-10.75-15.29-20.13-13.12-9.18,2.07-15.1,7.89-17.27,17.17-1.78,7.7,1.97,15.49,9.08,18.65,5.43,2.37,10.85,2.07,16.08-.59,7.79-4.05,12.04-10.36,12.53-18.84h0Z"/>
      </g>
    </g>
  </g>
</svg>