<?xml version="1.0" encoding="UTF-8"?>
<svg id="Layer_2" data-name="Layer 2" xmlns="http://www.w3.org/2000/svg" viewBox="0 0 254.73 254.73">
  <defs>
    <style>
      .cls-1 {
        fill: #fff;
      }

      .cls-2 {
        fill: #5382a1;
      }

      .cls-3 {
        fill: #e76f00;
      }
    </style>
  </defs>
  <g id="Layer_1-2" data-name="Layer 1">
    <g>
      <circle class="cls-1" cx="127.36" cy="127.36" r="127.36"/>
      <g>
        <path class="cls-2" d="m103.51,177.04s-6.94,4.04,4.94,5.41c14.4,1.64,21.76,1.41,37.63-1.6,0,0,4.17,2.62,10,4.88-35.58,15.25-80.52-.88-52.57-8.69m-4.35-19.9s-7.79,5.77,4.11,7c15.38,1.59,27.53,1.72,48.56-2.33,0,0,2.91,2.95,7.48,4.56-43.02,12.58-90.93.99-60.14-9.23"/>
        <path class="cls-3" d="m135.82,123.39c8.77,10.09-2.3,19.17-2.3,19.17,0,0,22.26-11.49,12.04-25.88-9.55-13.42-16.87-20.09,22.77-43.07,0,0-62.22,15.54-32.5,49.78"/>
        <path class="cls-2" d="m182.87,191.76s5.14,4.23-5.66,7.51c-20.54,6.22-85.47,8.1-103.51.25-6.48-2.82,5.68-6.74,9.5-7.56,3.99-.87,6.27-.7,6.27-.7-7.21-5.08-46.61,9.98-20.01,14.29,72.54,11.76,132.23-5.3,113.42-13.78m-76.02-55.23s-33.03,7.85-11.7,10.69c9.01,1.21,26.96.93,43.69-.47,13.67-1.15,27.4-3.6,27.4-3.6,0,0-4.82,2.06-8.31,4.45-33.54,8.82-98.34,4.72-79.69-4.31,15.78-7.63,28.6-6.76,28.6-6.76m59.25,33.12c34.1-17.72,18.33-34.75,7.33-32.45-2.7.56-3.9,1.05-3.9,1.05,0,0,1-1.57,2.91-2.25,21.77-7.65,38.51,22.57-7.03,34.54,0,0,.53-.47.69-.89"/>
        <path class="cls-3" d="m145.55,36.49s18.88,18.89-17.91,47.94c-29.5,23.3-6.73,36.59-.01,51.77-17.22-15.54-29.86-29.22-21.38-41.95,12.45-18.69,46.92-27.75,39.3-57.76"/>
        <path class="cls-2" d="m110.2,217.66c32.73,2.1,82.99-1.16,84.18-16.65,0,0-2.29,5.87-27.05,10.53-27.94,5.26-62.39,4.64-82.82,1.27,0,0,4.18,3.46,25.69,4.84"/>
      </g>
    </g>
  </g>
</svg>