<?xml version="1.0" encoding="UTF-8"?>
<svg id="Layer_2" data-name="Layer 2" xmlns="http://www.w3.org/2000/svg" viewBox="0 0 254.73 254.73">
  <defs>
    <style>
      .cls-1 {
        fill: #fff;
      }
    </style>
  </defs>
  <g id="Layer_1-2" data-name="Layer 1">
    <g>
      <circle class="cls-1" cx="127.36" cy="127.36" r="127.36"/>
      <path d="m44.53,98.72h29.19c8.57.07,14.77,2.54,18.62,7.41,3.85,4.86,5.12,11.51,3.81,19.93-.51,3.85-1.63,7.62-3.38,11.33-1.69,3.74-4.06,7.13-6.97,10.02-3.63,3.77-7.51,6.17-11.65,7.19s-8.42,1.52-12.85,1.52h-13.07l-4.14,20.69h-15.14l15.57-78.09Zm12.74,12.42l-6.53,32.67c.44.07.87.11,1.31.11h1.52c6.97.07,12.78-.62,17.43-2.07,4.65-1.52,7.77-6.82,9.37-15.9,1.31-7.62,0-12.02-3.92-13.18-3.85-1.16-8.68-1.71-14.49-1.63-.87.07-1.71.11-2.5.11h-2.29l.11-.11Zm56.13-33.22h15.03l-4.25,20.8h13.5c7.41.15,12.92,1.67,16.55,4.57,3.7,2.9,4.79,8.42,3.27,16.55l-7.3,36.27h-15.25l6.97-34.63c.73-3.63.51-6.21-.65-7.73s-3.67-2.29-7.51-2.29l-12.09-.11-8.93,44.76h-15.03l15.68-78.2Zm60.25,20.8h29.19c8.57.07,14.77,2.54,18.62,7.41,3.85,4.86,5.12,11.51,3.81,19.93-.51,3.85-1.63,7.62-3.38,11.33-1.69,3.74-4.06,7.13-6.97,10.02-3.63,3.77-7.51,6.17-11.65,7.19s-8.42,1.52-12.85,1.52h-13.07l-4.14,20.69h-15.14l15.57-78.09Zm12.74,12.42l-6.53,32.67c.44.07.87.11,1.31.11h1.52c6.97.07,12.78-.62,17.43-2.07,4.65-1.52,7.77-6.82,9.37-15.9,1.31-7.62,0-12.02-3.92-13.18-3.85-1.16-8.68-1.71-14.49-1.63-.87.07-1.71.11-2.5.11h-2.29l.11-.11Z"/>
    </g>
  </g>
</svg>