<?xml version="1.0" encoding="UTF-8"?>
<svg id="Layer_2" data-name="Layer 2" xmlns="http://www.w3.org/2000/svg" viewBox="0 0 254.73 254.73">
  <defs>
    <style>
      .cls-1 {
        fill: #fff;
      }

      .cls-2 {
        fill: #007acc;
      }
    </style>
  </defs>
  <g id="Layer_1-2" data-name="Layer 1">
    <g>
      <circle class="cls-1" cx="127.36" cy="127.36" r="127.36"/>
      <g>
        <path class="cls-2" d="m58.58,127.36V58.58h137.57v137.57H58.58"/>
        <path class="cls-1" d="m88.74,127.6v5.61h17.88v50.9h12.69v-50.9h17.88v-5.5c0-3.1,0-5.61-.14-5.67,0-.1-10.9-.14-24.14-.14l-24.08.1v5.64l-.1-.03h0Zm80.38-5.74c3.51.83,6.19,2.41,8.6,4.92,1.27,1.38,3.16,3.78,3.3,4.4,0,.21-5.95,4.23-9.56,6.47-.14.1-.69-.48-1.24-1.38-1.79-2.55-3.61-3.65-6.47-3.85-4.13-.28-6.88,1.89-6.88,5.5,0,1.1.21,1.72.62,2.61.93,1.89,2.65,3.03,7.98,5.37,9.84,4.23,14.1,7.02,16.68,11.01,2.92,4.47,3.58,11.49,1.62,16.75-2.2,5.74-7.57,9.63-15.24,10.9-2.41.41-7.91.34-10.49-.1-5.5-1.03-10.77-3.78-14-7.33-1.27-1.38-3.71-5.06-3.58-5.3l1.31-.83,5.16-2.99,3.89-2.27.89,1.2c1.13,1.79,3.68,4.2,5.16,5.02,4.47,2.3,10.46,1.99,13.41-.69,1.27-1.17,1.82-2.41,1.82-4.13,0-1.58-.24-2.3-1.03-3.51-1.1-1.51-3.3-2.75-9.49-5.5-7.12-3.03-10.15-4.95-12.97-7.91-1.62-1.79-3.1-4.57-3.78-6.88-.52-1.99-.69-6.88-.21-8.84,1.48-6.88,6.67-11.69,14.1-13.07,2.41-.48,8.08-.28,10.46.34l-.07.07h0Z"/>
      </g>
    </g>
  </g>
</svg>