<?xml version="1.0" encoding="UTF-8"?>
<svg id="Layer_2" data-name="Layer 2" xmlns="http://www.w3.org/2000/svg" viewBox="0 0 254.73 254.73">
  <defs>
    <style>
      .cls-1 {
        fill: #fff;
      }

      .cls-2 {
        fill: none;
        stroke: #414042;
        stroke-linecap: round;
        stroke-linejoin: round;
        stroke-width: 5.44px;
      }
    </style>
  </defs>
  <g id="Layer_1-2" data-name="Layer 1">
    <g>
      <circle class="cls-1" cx="127.36" cy="127.36" r="127.36"/>
      <g>
        <path class="cls-2" d="m119.21,147.75c-15.01,0-27.18-12.17-27.18-27.18s12.17-27.18,27.18-27.18,27.18,12.17,27.18,27.18"/>
        <circle class="cls-2" cx="119.21" cy="120.57" r="13.59"/>
        <circle class="cls-2" cx="149.11" cy="147.75" r="16.31"/>
        <line class="cls-2" x1="149.11" y1="126" x2="149.11" y2="131.44"/>
        <line class="cls-2" x1="138.24" y1="128.92" x2="140.95" y2="133.63"/>
        <line class="cls-2" x1="130.28" y1="136.88" x2="134.98" y2="139.59"/>
        <line class="cls-2" x1="127.36" y1="147.75" x2="132.8" y2="147.75"/>
        <line class="cls-2" x1="130.28" y1="158.62" x2="134.98" y2="155.9"/>
        <line class="cls-2" x1="138.24" y1="166.58" x2="140.95" y2="161.87"/>
        <line class="cls-2" x1="149.11" y1="169.49" x2="149.11" y2="164.06"/>
        <line class="cls-2" x1="159.98" y1="166.58" x2="157.26" y2="161.87"/>
        <line class="cls-2" x1="167.94" y1="158.62" x2="163.23" y2="155.9"/>
        <line class="cls-2" x1="170.85" y1="147.75" x2="165.41" y2="147.75"/>
        <line class="cls-2" x1="167.94" y1="136.88" x2="163.23" y2="139.59"/>
        <line class="cls-2" x1="159.98" y1="128.92" x2="157.26" y2="133.63"/>
        <line class="cls-2" x1="119.21" y1="85.24" x2="119.21" y2="93.39"/>
        <line class="cls-2" x1="101.54" y1="89.97" x2="105.62" y2="97.03"/>
        <line class="cls-2" x1="88.61" y1="102.9" x2="95.67" y2="106.98"/>
        <line class="cls-2" x1="83.88" y1="120.57" x2="92.03" y2="120.57"/>
        <line class="cls-2" x1="88.61" y1="138.24" x2="95.67" y2="134.16"/>
        <line class="cls-2" x1="101.54" y1="151.17" x2="105.62" y2="144.11"/>
        <line class="cls-2" x1="119.21" y1="155.9" x2="119.21" y2="147.75"/>
        <line class="cls-2" x1="149.81" y1="102.9" x2="142.75" y2="106.98"/>
        <line class="cls-2" x1="136.88" y1="89.97" x2="132.8" y2="97.03"/>
        <g>
          <path class="cls-2" d="m138.23,54.78c35.37,5.25,62.51,35.75,62.51,72.58v2.72"/>
          <polyline class="cls-2" points="211.62 119.21 200.75 130.08 189.88 119.21"/>
          <path class="cls-2" d="m54.78,116.49c5.25-35.37,35.75-62.51,72.58-62.51h2.72"/>
          <polyline class="cls-2" points="119.21 43.11 130.08 53.98 119.21 64.85"/>
          <path class="cls-2" d="m116.49,199.95c-35.37-5.25-62.51-35.75-62.51-72.58v-2.72"/>
          <polyline class="cls-2" points="43.11 135.52 53.98 124.65 64.85 135.52"/>
          <path class="cls-2" d="m199.95,138.23c-5.25,35.37-35.75,62.51-72.58,62.51h-2.72"/>
          <polyline class="cls-2" points="135.52 211.62 124.65 200.75 135.52 189.88"/>
          <path class="cls-2" d="m208.91,106.07c-7.39-28.37-29.18-50.92-57.11-59.37"/>
          <path class="cls-2" d="m106.07,45.82c-28.37,7.39-50.92,29.18-59.37,57.11"/>
          <path class="cls-2" d="m45.82,148.65c7.39,28.37,29.18,50.92,57.11,59.37"/>
          <path class="cls-2" d="m148.65,208.91c28.37-7.39,50.92-29.18,59.37-57.11"/>
        </g>
      </g>
    </g>
  </g>
</svg>