<?xml version="1.0" encoding="UTF-8"?>
<svg id="Layer_2" data-name="Layer 2" xmlns="http://www.w3.org/2000/svg" viewBox="0 0 254.73 254.73">
  <defs>
    <style>
      .cls-1 {
        fill: #fff;
      }

      .cls-2 {
        fill: #01b5e6;
        fill-rule: evenodd;
      }
    </style>
  </defs>
  <g id="Layer_1-2" data-name="Layer 1">
    <g>
      <circle class="cls-1" cx="127.36" cy="127.36" r="127.36"/>
      <path class="cls-2" d="m185.14,67.2l3.62,4.77c.95,1.26.71,3.06-.55,4.01l-3.84,2.92c.7,1.86,1.15,3.84,1.33,5.87l4.37.6c1.56.21,2.65,1.66,2.44,3.23l-.81,5.94c-.21,1.57-1.66,2.67-3.23,2.45l-4.78-.66c-.85,1.86-1.94,3.56-3.23,5.09l2.68,3.52c.95,1.26.7,3.06-.56,4.01l-4.76,3.62c-1.26.95-3.06.7-4.01-.54l-2.92-3.84c-1.87.7-3.84,1.15-5.88,1.33l-.6,4.37c-.21,1.57-1.66,2.65-3.23,2.45l-5.94-.81c-1.57-.21-2.65-1.66-2.44-3.23l.66-4.78c-1.84-.85-3.56-1.94-5.09-3.21l-3.52,2.67c-1.26.95-3.06.71-4.01-.54l-3.62-4.77c-.95-1.26-.71-3.06.55-4.01l3.84-2.92c-.7-1.87-1.15-3.84-1.33-5.87l-4.37-.6c-1.56-.21-2.67-1.66-2.44-3.23l.81-5.94c.22-1.57,1.66-2.65,3.23-2.45l4.78.66c.85-1.84,1.94-3.56,3.21-5.09l-2.67-3.52c-.95-1.24-.71-3.05.54-4l4.76-3.62c1.26-.95,3.06-.71,4.01.54l2.92,3.84c1.86-.7,3.84-1.15,5.87-1.33l.6-4.37c.21-1.57,1.66-2.67,3.23-2.46l5.94.81c1.56.21,2.67,1.66,2.44,3.23l-.66,4.78c1.86.85,3.56,1.94,5.1,3.23l3.52-2.67c1.26-.96,3.06-.73,4.02.53Zm-102.16,83.86v-23.06h11.88c2.21,0,3.88.18,5.04.57,1.16.38,2.11,1.08,2.81,2.1.71,1.03,1.08,2.28,1.08,3.74,0,1.27-.28,2.39-.82,3.31-.55.94-1.3,1.69-2.25,2.26-.6.36-1.44.67-2.5.91.85.29,1.47.56,1.84.85.27.2.64.6,1.13,1.22.49.62.82,1.1.99,1.44l3.46,6.67h-8.05l-3.8-7.03c-.49-.91-.91-1.51-1.29-1.77-.52-.35-1.1-.53-1.75-.53h-.63v9.33h-7.15Zm25.12,40.15h-13.3l-1.91,6.26h-11.99l14.29-37.99h12.85l14.24,37.99h-12.29l-1.89-6.26Zm-2.49-8.23l-4.15-13.67-4.16,13.67h8.31Zm19.43-23.5h19.53c4.26,0,7.45,1.01,9.56,3.03,2.11,2.03,3.17,4.92,3.17,8.65s-1.16,6.85-3.46,9.01-5.84,3.24-10.58,3.24h-6.44v14.06h-11.78v-37.99h0Zm11.78,16.24h2.89c2.28,0,3.88-.39,4.81-1.19.92-.78,1.38-1.8,1.38-3.02s-.41-2.21-1.2-3.03c-.8-.82-2.31-1.24-4.51-1.24h-3.37v8.48h0Zm25.23-16.24h11.78v37.99h-11.78v-37.99h0Zm-71.92-22.11h3c.32,0,.95-.11,1.89-.32.47-.1.87-.34,1.16-.73.31-.39.45-.84.45-1.34,0-.74-.24-1.33-.71-1.72-.47-.41-1.36-.6-2.65-.6h-3.13v4.71Zm16.88-9.36h19.07v4.92h-11.92v3.68h11.05v4.7h-11.05v4.54h12.27v5.21h-19.42v-23.04Zm21.11,15.43l6.76-.42c.14,1.1.45,1.93.89,2.5.74.92,1.79,1.4,3.14,1.4,1.01,0,1.8-.24,2.35-.71s.82-1.03.82-1.66-.27-1.13-.78-1.61c-.52-.48-1.73-.91-3.65-1.34-3.12-.7-5.34-1.64-6.68-2.79-1.34-1.16-2.01-2.64-2.01-4.44,0-1.19.35-2.31,1.03-3.35.68-1.05,1.72-1.89,3.1-2.49,1.38-.6,3.27-.89,5.67-.89,2.95,0,5.18.54,6.73,1.65,1.54,1.1,2.46,2.84,2.75,5.24l-6.69.41c-.18-1.05-.56-1.82-1.12-2.28-.57-.48-1.37-.71-2.36-.71-.82,0-1.45.18-1.87.53-.42.35-.63.78-.63,1.29,0,.36.18.68.52.99.33.29,1.12.59,2.37.85,3.12.67,5.35,1.36,6.69,2.04s2.33,1.54,2.93,2.56c.61,1.01.92,2.15.92,3.41,0,1.48-.4,2.84-1.23,4.08-.81,1.24-1.96,2.19-3.42,2.84-1.47.64-3.31.96-5.55.96-3.91,0-6.64-.75-8.14-2.26-1.51-1.54-2.36-3.45-2.57-5.77Zm21.95-15.43h21.67v5.7h-7.27v17.35h-7.12v-17.35h-7.28v-5.7h0Zm-23.97-54.72c-2.56-.2-5.14-.17-7.7.08-7.87.75-15.51,3.62-21.82,8.52-7.31,5.66-12.85,14.13-14.99,25.35l-.67,3.51-3.49.61c-3.42.6-6.48,1.43-9.16,2.47-2.6,1.01-4.92,2.25-6.94,3.72-1.62,1.17-3.02,2.49-4.21,3.91-3.67,4.4-5.38,9.92-5.34,15.51.04,5.67,1.89,11.4,5.29,16.11,1.27,1.75,2.74,3.35,4.42,4.75,1.7,1.41,3.62,2.59,5.77,3.47,1.22.5,2.51.92,3.87,1.26v10.47c-2.79-.5-5.37-1.26-7.77-2.25-3.17-1.31-5.98-3-8.45-5.07-2.35-1.96-4.4-4.18-6.15-6.6-4.65-6.43-7.17-14.28-7.22-22.11-.06-7.91,2.4-15.78,7.71-22.15,1.72-2.07,3.74-3.97,6.06-5.65,2.7-1.96,5.78-3.61,9.28-4.96,2.4-.94,4.97-1.72,7.68-2.35,3.07-12.21,9.63-21.62,18.05-28.14,7.88-6.11,17.37-9.67,27.13-10.61,5.13-.49,10.33-.27,15.41.68-.11.46-.21.92-.27,1.4v.08c-.11.8-.15,1.59-.11,2.4-1.08.42-2.08.99-2.99,1.69l-.04.03c-1.36,1.02-2.5,2.33-3.35,3.84Zm73.92,26.83c.78.71,1.54,1.45,2.28,2.25,1.49,1.61,2.91,3.42,4.23,5.45,4.47,6.88,6.76,16.06,6.66,25.04-.1,8.82-2.47,17.59-7.34,24.05-3.17,4.21-7.24,7.64-12.11,10.37-3.34,1.87-7.1,3.42-11.19,4.68v-10.83c2.21-.82,4.26-1.75,6.15-2.79,3.67-2.05,6.68-4.56,8.93-7.56,3.49-4.65,5.21-11.23,5.28-17.98.08-7.08-1.65-14.2-5.02-19.37-.96-1.5-2.03-2.84-3.14-4.04-.43-.46-.87-.89-1.31-1.31.07-.7.1-1.41.06-2.12,1.08-.42,2.08-.99,2.99-1.69l.04-.03c1.44-1.1,2.64-2.5,3.49-4.11Zm-35.43-24.96c6.44.88,10.94,6.82,10.06,13.26-.88,6.44-6.82,10.96-13.26,10.07-6.44-.88-10.95-6.82-10.06-13.26.89-6.44,6.82-10.96,13.26-10.08Z"/>
    </g>
  </g>
</svg>