<?xml version="1.0" encoding="UTF-8"?>
<svg id="Layer_2" data-name="Layer 2" xmlns="http://www.w3.org/2000/svg" viewBox="0 0 254.73 254.73">
  <defs>
    <style>
      .cls-1 {
        fill: #fff;
      }

      .cls-2 {
        fill: #140e14;
        fill-rule: evenodd;
      }
    </style>
  </defs>
  <g id="Layer_1-2" data-name="Layer 1">
    <g>
      <circle class="cls-1" cx="127.36" cy="127.36" r="127.36"/>
      <path class="cls-2" d="m186.3,139.99c8.23-3.37,14.05-11.36,14.05-20.79v-3.7c0-9.42-5.82-17.45-14.05-20.82-.85-.34-1.81.06-2.16.91-.08.19-.12.4-.12.61v42.25c0,1.2,1.19,1.97,2.28,1.53Zm-14.76,1.01c-.74-9.28-4.41-18.09-10.48-25.16-.59-.66-.53-1.68.13-2.27.08-.07.16-.13.26-.19,8.43-5.36,13.03-15.07,11.83-24.98-1.32-11.39-10.41-20.82-21.74-22.52-5.02-.77-10.16-.05-14.78,2.05-2.96,1.37-6.19,2.07-9.45,2.07-3.26,0-6.48-.71-9.45-2.07-4.62-2.11-9.76-2.83-14.78-2.05-11.34,1.68-20.43,11.14-21.75,22.52-1.2,9.91,3.4,19.63,11.83,24.98.77.45,1.02,1.44.57,2.21-.05.09-.11.17-.18.25-6.06,7.07-9.73,15.88-10.48,25.16-.1.9.56,1.71,1.46,1.81.06,0,.12,0,.18,0h85.22c.96,0,1.71-.85,1.63-1.82h0Zm-87.97,11.55c3.73,20.79,21.85,36.61,43.72,36.61s40-15.79,43.73-36.61c.17-.91-.43-1.77-1.34-1.94-.1-.02-.19-.03-.29-.03h-84.19c-.92,0-1.67.77-1.66,1.69,0,.09,0,.18.03.27Zm-15.25-12.55c.85.34,1.81-.06,2.16-.91.08-.2.12-.41.12-.62v-42.28c0-.91-.74-1.65-1.65-1.65-.22,0-.43.04-.63.13-8.23,3.39-14.05,11.39-14.05,20.82v3.72c0,9.4,5.82,17.43,14.05,20.79Zm115.13-55.12c2.21-.42,4.49-.2,6.58.65,12.27,5.05,20.22,16.8,20.29,29.96v3.7c0,13.17-7.98,25.02-20.19,29.95-2.68,1.09-5.68,1.14-8.39.13-.51-.21-1.06.26-.95.81.26,1.37.28,2.79.03,4.22-4.6,25.92-27.14,44.79-53.46,44.77-26.32.02-48.86-18.85-53.46-44.77-.25-1.4-.24-2.82.03-4.22.11-.55-.44-1.01-.96-.8-1.29.47-2.64.73-3.99.73-1.5,0-2.98-.29-4.37-.85-12.27-5.05-20.2-16.8-20.2-29.96v-3.7c0-13.18,7.92-24.93,20.2-29.96,2.08-.85,4.37-1.08,6.57-.65.41.08.8-.15.88-.57,2.95-14.57,14.73-25.99,29.62-28.22,6.91-1.07,13.99-.09,20.35,2.82,3.37,1.55,7.25,1.55,10.62,0,6.37-2.88,13.44-3.86,20.35-2.82,14.88,2.22,26.66,13.64,29.62,28.22.08.41.44.65.85.57Zm-82.49,5.62c0-2.38,1.94-4.32,4.33-4.32h44.01c2.39.11,4.24,2.13,4.13,4.52-.1,2.24-1.89,4.03-4.13,4.13h-44.01c-2.39,0-4.32-1.94-4.32-4.32h0Zm29.59,23.97c0-2.84,2.3-5.15,5.15-5.15,2.84,0,5.15,2.3,5.15,5.15,0,2.84-2.3,5.15-5.15,5.15-2.84,0-5.15-2.3-5.15-5.15h0Zm-11.67-5.15c-2.84,0-5.15,2.3-5.15,5.14,0,2.84,2.3,5.15,5.14,5.15s5.15-2.3,5.15-5.14c0-2.84-2.3-5.15-5.14-5.15Z"/>
    </g>
  </g>
</svg>