<?xml version="1.0" encoding="UTF-8"?>
<svg id="Layer_2" data-name="Layer 2" xmlns="http://www.w3.org/2000/svg" viewBox="0 0 254.73 254.73">
  <defs>
    <style>
      .cls-1 {
        fill: #fff;
      }

      .cls-2 {
        fill: #00546b;
      }
    </style>
  </defs>
  <g id="Layer_1-2" data-name="Layer 1">
    <g>
      <circle class="cls-1" cx="127.36" cy="127.36" r="127.36"/>
      <g>
        <path class="cls-2" d="m197.09,171.81c-9.01-.22-15.99.68-21.85,3.15-1.69.68-4.39.68-4.62,2.82.9.9,1.01,2.37,1.8,3.6,1.35,2.25,3.72,5.29,5.86,6.87,2.36,1.8,4.73,3.6,7.21,5.18,4.39,2.7,9.35,4.28,13.63,6.98,2.48,1.58,4.95,3.6,7.43,5.29,1.24.9,2.03,2.37,3.6,2.93v-.34c-.79-1.01-1.01-2.48-1.8-3.6-1.12-1.13-2.25-2.14-3.38-3.27-3.27-4.39-7.32-8.22-11.71-11.37-3.6-2.48-11.49-5.86-12.95-10.02,0,0-.11-.11-.23-.22,2.48-.23,5.4-1.13,7.77-1.8,3.83-1.01,7.32-.79,11.26-1.8,1.8-.45,3.6-1.01,5.4-1.58v-1.01c-2.03-2.03-3.49-4.73-5.63-6.64-5.74-4.96-12.05-9.8-18.58-13.85-3.49-2.25-8-3.72-11.71-5.63-1.35-.68-3.6-1.01-4.39-2.14-2.03-2.48-3.15-5.74-4.62-8.67-3.26-6.19-6.42-13.06-9.23-19.59-2.03-4.39-3.26-8.78-5.74-12.84-11.6-19.14-24.21-30.74-43.58-42.12-4.17-2.36-9.12-3.38-14.41-4.62-2.81-.11-5.63-.34-8.45-.45-1.8-.79-3.6-2.93-5.18-3.94-6.42-4.05-22.97-12.84-27.7-1.24-3.04,7.32,4.51,14.53,7.09,18.24,1.92,2.59,4.39,5.52,5.74,8.45.79,1.91,1.01,3.94,1.8,5.97,1.8,4.95,3.49,10.47,5.86,15.09,1.24,2.36,2.59,4.84,4.17,6.98.9,1.24,2.48,1.8,2.82,3.83-1.58,2.25-1.69,5.63-2.59,8.45-4.05,12.73-2.48,28.49,3.27,37.84,1.8,2.81,6.08,9.01,11.82,6.64,5.07-2.03,3.94-8.45,5.4-14.08.34-1.35.11-2.25.79-3.15v.23c1.58,3.15,3.15,6.19,4.62,9.35,3.49,5.52,9.57,11.26,14.64,15.09,2.7,2.03,4.84,5.52,8.22,6.76v-.34h-.23c-.68-1.01-1.69-1.46-2.59-2.25-2.03-2.03-4.28-4.5-5.86-6.76-4.73-6.31-8.9-13.29-12.61-20.5-1.8-3.49-3.38-7.32-4.84-10.81-.68-1.35-.68-3.38-1.8-4.05-1.69,2.48-4.17,4.62-5.41,7.66-2.14,4.84-2.36,10.81-3.15,17-.45.11-.23,0-.45.23-3.6-.9-4.84-4.62-6.19-7.77-3.38-8-3.94-20.83-1.01-30.07.79-2.37,4.17-9.8,2.82-12.05-.68-2.14-2.93-3.38-4.17-5.07-1.46-2.14-3.04-4.84-4.05-7.21-2.7-6.31-4.05-13.29-6.98-19.6-1.35-2.93-3.72-5.97-5.63-8.67-2.14-3.04-4.5-5.18-6.19-8.78-.56-1.24-1.35-3.27-.45-4.62.23-.9.68-1.24,1.58-1.46,1.46-1.24,5.63.34,7.09,1.01,4.17,1.69,7.66,3.27,11.15,5.63,1.58,1.13,3.27,3.27,5.29,3.83h2.37c3.6.79,7.66.23,11.04,1.24,5.97,1.91,11.37,4.73,16.22,7.77,14.75,9.35,26.91,22.64,35.14,38.51,1.35,2.59,1.91,4.96,3.15,7.66,2.37,5.52,5.29,11.15,7.66,16.55,2.37,5.29,4.62,10.7,8,15.09,1.69,2.36,8.45,3.6,11.49,4.84,2.25,1.01,5.74,1.91,7.77,3.15,3.83,2.36,7.66,5.07,11.26,7.66,1.8,1.35,7.43,4.17,7.77,6.42h0Z"/>
        <path class="cls-2" d="m82.22,73.94c-1.91,0-3.26.23-4.62.56v.23h.23c.9,1.8,2.48,3.04,3.6,4.62.9,1.8,1.69,3.6,2.59,5.41.11-.11.22-.23.22-.23,1.58-1.13,2.37-2.93,2.37-5.63-.68-.79-.79-1.58-1.35-2.36-.68-1.13-2.14-1.69-3.04-2.59h0Z"/>
      </g>
    </g>
  </g>
</svg>