<?xml version="1.0" encoding="UTF-8"?>
<svg id="Layer_2" data-name="Layer 2" xmlns="http://www.w3.org/2000/svg" viewBox="0 0 254.73 254.73">
  <defs>
    <style>
      .cls-1 {
        fill: #fff;
      }

      .cls-2 {
        fill: #ea1b22;
      }
    </style>
  </defs>
  <g id="Layer_1-2" data-name="Layer 1">
    <g>
      <circle class="cls-1" cx="127.36" cy="127.36" r="127.36"/>
      <path class="cls-2" d="m111.59,131.89h15.26l-8.07-12.99-14.81,23.48h-6.74l18.02-28.2c.78-1.14,2.09-1.83,3.54-1.83s2.71.66,3.47,1.78l18.09,28.25h-6.74l-3.18-5.25h-15.45l-3.37-5.25h0Zm70.03,5.25v-24.5h-5.72v26.9c0,.74.28,1.45.83,1.99.55.55,1.28.85,2.09.85h26.09l3.37-5.25h-26.66,0Zm-94.65-4.39c5.56,0,10.07-4.49,10.07-10.04s-4.51-10.07-10.07-10.07h-25.03v29.75h5.72v-24.5h18.93c2.66,0,4.8,2.16,4.8,4.82s-2.14,4.82-4.8,4.82l-16.13-.02,17.08,14.88h8.31l-11.49-9.64h2.61,0Zm-60.23,9.64c-8.21,0-14.88-6.65-14.88-14.86s6.66-14.88,14.88-14.88h17.29c8.21,0,14.87,6.67,14.87,14.88s-6.66,14.86-14.87,14.86h-17.29Zm16.9-5.25c5.32,0,9.63-4.3,9.63-9.61s-4.31-9.64-9.63-9.64h-16.52c-5.32,0-9.63,4.32-9.63,9.64s4.31,9.61,9.63,9.61h16.52Zm108.63,5.25c-8.21,0-14.88-6.65-14.88-14.86s6.67-14.88,14.88-14.88h20.53l-3.35,5.25h-16.81c-5.32,0-9.64,4.32-9.64,9.64s4.32,9.61,9.64,9.61h20.63l-3.37,5.25h-17.64,0Zm69.96-5.25c-4.39,0-8.12-2.94-9.26-7h24.45l3.37-5.25h-27.82c1.14-4.04,4.87-7,9.26-7h16.78l3.39-5.25h-20.56c-8.21,0-14.88,6.67-14.88,14.88s6.67,14.86,14.88,14.86h17.64l3.37-5.25h-20.63,0Z"/>
    </g>
  </g>
</svg>