<?xml version="1.0" encoding="UTF-8"?>
<svg id="Layer_2" data-name="Layer 2" xmlns="http://www.w3.org/2000/svg" viewBox="0 0 254.73 254.73">
  <defs>
    <style>
      .cls-1 {
        fill: #fff;
      }

      .cls-2 {
        fill: #336791;
      }
    </style>
  </defs>
  <g id="Layer_1-2" data-name="Layer 1">
    <g>
      <circle class="cls-1" cx="127.36" cy="127.36" r="127.36"/>
      <g>
        <path d="m205.08,154.32c-.94-2.84-3.4-4.83-6.58-5.3-1.5-.22-3.22-.13-5.25.29-3.54.73-6.17,1.01-8.09,1.06,7.24-12.23,13.13-26.17,16.52-39.3,5.48-21.22,2.55-30.89-.87-35.27-9.06-11.58-22.28-17.79-38.22-17.99-8.51-.1-15.97,1.58-19.87,2.78-3.63-.64-7.53-1-11.62-1.06-7.67-.12-14.45,1.55-20.24,4.99-3.21-1.08-8.35-2.61-14.29-3.59-13.98-2.29-25.24-.51-33.48,5.31-9.98,7.05-14.6,19.29-13.75,36.39.27,5.43,3.31,21.95,8.09,37.62,2.75,9.01,5.68,16.48,8.71,22.23,4.3,8.15,8.9,12.94,14.06,14.67,2.89.96,8.15,1.64,13.69-2.97.7.85,1.64,1.69,2.88,2.48,1.58.99,3.5,1.81,5.43,2.29,6.94,1.73,13.44,1.3,18.98-1.13.03.99.06,1.93.08,2.74.04,1.32.07,2.61.12,3.82.33,8.18.89,14.55,2.53,19,.09.24.21.62.34,1.01.82,2.52,2.2,6.74,5.7,10.04,3.63,3.42,8.01,4.47,12.03,4.47,2.01,0,3.94-.26,5.62-.63,6.01-1.29,12.83-3.25,17.77-10.28,4.67-6.64,6.94-16.65,7.35-32.42.05-.45.1-.87.15-1.28l.1-.83,1.1.1.28.02c6.12.28,13.6-1.02,18.2-3.15,3.63-1.69,15.27-7.83,12.53-16.12"/>
        <path class="cls-2" d="m194.61,155.94c-18.2,3.75-19.45-2.41-19.45-2.41,19.21-28.51,27.24-64.69,20.31-73.55-18.91-24.16-51.64-12.73-52.19-12.44l-.18.03c-3.6-.75-7.62-1.19-12.14-1.26-8.23-.13-14.48,2.16-19.22,5.75,0,0-58.39-24.05-55.67,30.25.58,11.55,16.56,87.42,35.62,64.5,6.97-8.38,13.7-15.46,13.7-15.46,3.34,2.22,7.35,3.35,11.54,2.95l.33-.28c-.1,1.04-.06,2.06.13,3.26-4.91,5.49-3.47,6.45-13.28,8.47-9.93,2.05-4.1,5.69-.29,6.64,4.62,1.15,15.3,2.79,22.52-7.32l-.29,1.15c1.92,1.54,3.27,10.02,3.05,17.71-.23,7.69-.38,12.97,1.14,17.09,1.52,4.12,3.03,13.4,15.93,10.64,10.78-2.31,16.37-8.3,17.15-18.29.55-7.1,1.8-6.05,1.88-12.4l1-3.01c1.15-9.63.18-12.73,6.83-11.29l1.62.14c4.89.22,11.29-.79,15.04-2.53,8.09-3.75,12.88-10.02,4.91-8.37h0"/>
        <path class="cls-1" d="m115.18,107.48c-1.64-.23-3.12-.02-3.88.55-.42.32-.55.69-.59.95-.09.68.38,1.42.67,1.81.82,1.09,2.03,1.84,3.22,2.01.17.02.34.04.52.04,1.99,0,3.79-1.55,3.95-2.69.2-1.43-1.88-2.38-3.89-2.66m54.32.04c-.16-1.12-2.15-1.44-4.04-1.18-1.89.26-3.72,1.12-3.57,2.24.12.87,1.7,2.36,3.57,2.36.16,0,.32-.01.48-.03,1.25-.17,2.16-.96,2.59-1.42.66-.7,1.04-1.47.97-1.97"/>
        <path class="cls-1" d="m200.67,155.51c-.69-2.1-2.93-2.77-6.64-2.01-11.02,2.27-14.96.7-16.26-.26,8.56-13.04,15.61-28.81,19.41-43.52,1.8-6.97,2.79-13.44,2.88-18.72.09-5.79-.9-10.04-2.93-12.64-8.2-10.48-20.23-16.1-34.8-16.25-10.02-.11-18.48,2.45-20.12,3.17-3.45-.86-7.22-1.39-11.32-1.45-7.52-.12-14.02,1.68-19.4,5.35-2.34-.87-8.38-2.94-15.76-4.13-12.77-2.06-22.92-.5-30.16,4.63-8.64,6.12-12.63,17.07-11.86,32.53.26,5.2,3.22,21.2,7.9,36.53,6.16,20.17,12.85,31.59,19.89,33.94.82.27,1.77.47,2.82.47,2.57,0,5.72-1.16,8.99-5.1,4-4.79,8.13-9.47,12.4-14.03,2.77,1.49,5.81,2.32,8.92,2.4,0,.08.01.16.02.24-.54.64-1.06,1.29-1.57,1.94-2.15,2.74-2.6,3.31-9.54,4.73-1.97.41-7.21,1.49-7.29,5.16-.08,4.01,6.19,5.7,6.91,5.88,2.49.62,4.89.93,7.18.93,5.57,0,10.47-1.83,14.39-5.37-.12,14.31.48,28.41,2.19,32.7,1.41,3.52,4.84,12.11,15.7,12.11,1.59,0,3.35-.19,5.28-.6,11.33-2.43,16.25-7.44,18.16-18.48,1.02-5.9,2.77-19.99,3.59-27.55,1.74.54,3.97.79,6.38.79,5.04,0,10.85-1.07,14.49-2.76,4.09-1.9,11.48-6.57,10.14-10.62h0Zm-26.99-51.08c-.04,2.23-.34,4.26-.67,6.37-.35,2.27-.71,4.63-.8,7.48-.09,2.78.26,5.67.59,8.46.68,5.64,1.37,11.45-1.32,17.18-.45-.79-.85-1.61-1.19-2.45-.33-.81-1.06-2.11-2.07-3.92-3.92-7.02-13.08-23.46-8.39-30.17,1.4-2,4.95-4.05,13.85-2.94h0Zm-10.8-37.8c13.05.29,23.38,5.17,30.69,14.51,5.61,7.17-.57,39.77-18.44,67.9-.18-.23-.36-.46-.54-.68l-.23-.28c4.62-7.63,3.72-15.17,2.91-21.87-.33-2.75-.64-5.34-.56-7.78.08-2.58.42-4.8.75-6.94.41-2.64.82-5.37.7-8.59.09-.34.12-.74.07-1.21-.29-3.09-3.81-12.32-11-20.69-3.93-4.57-9.66-9.69-17.48-13.14,3.37-.7,7.97-1.35,13.12-1.23h0Zm-73.04,98.52c-3.61,4.34-6.1,3.51-6.92,3.24-5.34-1.78-11.54-13.07-17-30.97-4.73-15.49-7.49-31.07-7.71-35.44-.69-13.81,2.66-23.44,9.95-28.62,11.87-8.42,31.39-3.38,39.23-.82-.11.11-.23.22-.34.33-12.87,13-12.57,35.21-12.53,36.56,0,.52.04,1.27.1,2.29.22,3.74.63,10.69-.47,18.56-1.02,7.32,1.23,14.48,6.19,19.65.51.53,1.04,1.03,1.6,1.51-2.21,2.36-7,7.58-12.1,13.72h0Zm13.75-18.35c-3.99-4.17-5.81-9.96-4.98-15.9,1.16-8.32.73-15.56.5-19.45-.03-.54-.06-1.02-.08-1.4,1.88-1.67,10.59-6.34,16.81-4.91,2.84.65,4.56,2.58,5.28,5.9,3.72,17.19.49,24.36-2.1,30.12-.53,1.19-1.04,2.31-1.47,3.47l-.33.9c-.85,2.27-1.63,4.38-2.12,6.38-4.24-.01-8.37-1.83-11.51-5.1h0Zm.65,23.19c-1.24-.31-2.35-.85-3.01-1.29.55-.26,1.52-.61,3.2-.95,8.16-1.68,9.42-2.87,12.17-6.36.63-.8,1.35-1.71,2.34-2.82h0c1.48-1.65,2.15-1.37,3.37-.87.99.41,1.96,1.65,2.35,3.02.19.65.39,1.87-.29,2.83-5.75,8.05-14.13,7.95-20.14,6.44Zm42.71,39.74c-9.98,2.14-13.52-2.95-15.85-8.78-1.5-3.76-2.24-20.71-1.72-39.43,0-.25-.03-.49-.1-.72-.06-.45-.15-.89-.28-1.32-.78-2.72-2.68-5-4.96-5.95-.91-.38-2.57-1.06-4.56-.55.43-1.75,1.16-3.74,1.97-5.88l.34-.9c.38-1.02.85-2.07,1.35-3.19,2.71-6.03,6.43-14.28,2.4-32.92-1.51-6.98-6.55-10.39-14.2-9.6-4.58.47-8.78,2.32-10.87,3.38-.45.23-.86.45-1.25.66.58-7.04,2.79-20.19,11.04-28.51,5.19-5.24,12.11-7.82,20.54-7.68,16.61.27,27.25,8.79,33.26,15.9,5.18,6.12,7.98,12.28,9.1,15.61-8.42-.86-14.14.81-17.04,4.95-6.31,9.02,3.45,26.54,8.15,34.95.86,1.54,1.6,2.88,1.84,3.44,1.53,3.7,3.51,6.18,4.95,7.98.44.55.87,1.09,1.2,1.56-2.55.73-7.13,2.43-6.71,10.92-.34,4.26-2.73,24.2-3.95,31.24-1.6,9.31-5.03,12.77-14.66,14.84h0Zm41.67-47.68c-2.61,1.21-6.97,2.12-11.11,2.31-4.58.21-6.91-.51-7.45-.96-.26-5.29,1.71-5.84,3.79-6.43.33-.09.65-.18.96-.29.19.16.4.31.63.46,3.68,2.43,10.24,2.69,19.5.78l.1-.02c-1.25,1.17-3.39,2.74-6.42,4.14h0Z"/>
      </g>
    </g>
  </g>
</svg>