<?xml version="1.0" encoding="UTF-8"?>
<svg id="Layer_2" data-name="Layer 2" xmlns="http://www.w3.org/2000/svg" viewBox="0 0 254.73 254.73">
  <defs>
    <style>
      .cls-1 {
        fill: #fff;
      }

      .cls-2 {
        fill: #333;
      }
    </style>
  </defs>
  <g id="Layer_1-2" data-name="Layer 1">
    <g>
      <circle class="cls-1" cx="127.36" cy="127.36" r="127.36"/>
      <g>
        <g>
          <circle class="cls-2" cx="127.3" cy="137.48" r="20.15"/>
          <circle class="cls-2" cx="164.03" cy="108.26" r="20.15"/>
          <circle class="cls-2" cx="90.7" cy="108.26" r="20.15"/>
          <path class="cls-2" d="m142.82,155.74c-4.19,3.56-9.6,5.72-15.52,5.72s-11.29-2.14-15.47-5.68c-12.48,5.85-21.13,18.52-21.13,33.21v12.22c0,2.09,1.31,3.97,3.29,4.67,8.54,3.04,33.1,9.61,66.48-.21,2.11-.62,3.56-2.56,3.56-4.76v-11.92c0-14.73-8.68-27.42-21.21-33.25Z"/>
          <path class="cls-2" d="m179.55,126.51c-4.19,3.57-9.61,5.73-15.53,5.73s-11.17-2.09-15.33-5.55c1.65,3.25,2.58,6.91,2.58,10.8,0,5.86-2.12,11.23-5.62,15.4,11.01,5.6,19.14,16.1,21.49,28.61,8.85-.38,18.94-1.84,29.98-5.09,2.11-.62,3.56-2.56,3.56-4.76v-11.92c0-14.7-8.65-27.37-21.13-33.22Z"/>
          <path class="cls-2" d="m105.82,126.85c-4.13,3.36-9.39,5.38-15.11,5.38s-11.34-2.16-15.53-5.73c-12.48,5.85-21.13,18.52-21.13,33.22v12.22c0,2.09,1.31,3.97,3.29,4.67,5.02,1.79,15.59,4.8,30.23,4.98,2.32-12.52,10.42-23.03,21.42-28.66-3.53-4.18-5.66-9.57-5.66-15.45,0-3.81.9-7.42,2.49-10.62Z"/>
        </g>
        <path class="cls-2" d="m124.68,76.21c-.16-.12-.32-.25-.48-.38-5.31-4.34-8.23-10.18-8.23-16.46s2.92-12.12,8.23-16.46c5.04-4.12,11.68-6.38,18.71-6.38h.01c.48,0,.71-.59.36-.91-6.01-5.42-14.92-8.86-24.87-8.86-18.1,0-32.77,11.37-32.77,25.4,0,7.92,4.68,15,12.01,19.66l-4.89,10.27c-.35.74.42,1.52,1.17,1.17l14.48-6.9c3.15.78,6.51,1.21,10,1.21,2.06,0,4.07-.15,6.02-.43.46-.07.61-.65.25-.93Z"/>
        <path class="cls-2" d="m157.31,73.36c4.87-3.35,7.97-8.37,7.97-13.98,0-10.09-10.02-18.27-22.37-18.27s-22.37,8.18-22.37,18.27,10.02,18.27,22.37,18.27c1.56,0,3.08-.13,4.55-.38l12.91,6.15c.74.35,1.52-.42,1.17-1.17l-4.23-8.89Zm-2.65-6.75h-24.4c-.67,0-1.21-.54-1.21-1.21s.54-1.21,1.21-1.21h24.4c.67,0,1.21.54,1.21,1.21s-.54,1.21-1.21,1.21Zm0-6.48h-24.4c-.67,0-1.21-.54-1.21-1.21s.54-1.21,1.21-1.21h24.4c.67,0,1.21.54,1.21,1.21s-.54,1.21-1.21,1.21Zm0-6.48h-24.4c-.67,0-1.21-.54-1.21-1.21s.54-1.21,1.21-1.21h24.4c.67,0,1.21.54,1.21,1.21s-.54,1.21-1.21,1.21Z"/>
      </g>
    </g>
  </g>
</svg>