<?xml version="1.0" encoding="UTF-8"?>
<svg id="Layer_2" data-name="Layer 2" xmlns="http://www.w3.org/2000/svg" viewBox="0 0 254.73 254.73">
  <defs>
    <style>
      .cls-1 {
        fill: #fff;
      }

      .cls-2 {
        fill: #1a323d;
      }

      .cls-3 {
        fill: #22b573;
      }
    </style>
  </defs>
  <g id="Layer_1-2" data-name="Layer 1">
    <g>
      <circle class="cls-1" cx="127.36" cy="127.36" r="127.36"/>
      <g>
        <path class="cls-2" d="m86.92,196.46h-37.99c-1.24,0-2.25-1.01-2.25-2.26v-27.98l-8.06-16.27c-.04-.07-.08-.16-.11-.26l-.44-1.25c-.04-.12-.07-.24-.09-.36-.39-2.15-1-6.45-1-8.76,0-20.67,16.66-37.48,37.15-37.48,10.06,0,19.35,3.42,26.16,9.63,6.98,6.36,10.85,15.25,10.91,25.05l8.01,29.01c.19.68.04,1.41-.38,1.97-.42.56-1.09.89-1.79.89h-7.19v15.96c0,1.24-1.01,2.26-2.25,2.26h-18.42v7.61c0,1.24-1.01,2.26-2.25,2.26Zm-36.39-3.86h34.78v-7.61c0-1.24,1.01-2.26,2.25-2.26h18.42v-15.96c0-1.24,1.01-2.26,2.25-2.26h6.69l-7.52-27.23c-.05-.19-.07-.37-.07-.56,0-17.99-13.97-31.04-33.22-31.04s-33.29,15.09-33.29,33.63c0,1.92.53,5.77.92,7.97l.36,1.03,8.18,16.52c.15.31.23.65.23,1v26.76Zm-3.69-26.05s0,0,0,0h0Zm68.65,0h0,0Zm-73.43-18.33v.03s0-.02,0-.03Zm-.29-.82s0,.01,0,.02c0,0,0-.01,0-.02Z"/>
        <path class="cls-2" d="m205.79,198.05h-37.99c-1.24,0-2.25-1.01-2.25-2.26v-7.61h-18.42c-1.24,0-2.25-1.01-2.25-2.26v-15.96h-7.19c-.7,0-1.37-.33-1.79-.89-.42-.56-.57-1.29-.38-1.97l8.01-29.01c.06-9.8,3.93-18.69,10.91-25.05,6.81-6.21,16.11-9.63,26.16-9.63,20.48,0,37.15,16.81,37.15,37.48,0,2.32-.62,6.61-1,8.78-.02.11-.05.23-.09.35l-.44,1.24c-.03.09-.07.19-.12.27l-8.05,16.26v27.98c0,1.24-1.01,2.26-2.25,2.26Zm-36.39-3.86h34.78v-26.76c0-.35.08-.7.24-1.01l8.18-16.52.36-1.03c.39-2.22.92-6.05.92-7.97,0-18.54-14.93-33.63-33.29-33.63s-33.21,13.05-33.22,31.04c0,.18-.02.37-.07.56l-7.52,27.23h6.69c1.24,0,2.25,1.01,2.25,2.26v15.96h18.42c1.24,0,2.25,1.01,2.25,2.26v7.61Zm38.48-26.05h0s0,0,0,0Zm4.77-18.31s0,.01,0,.02v-.02Zm.3-.83s0,.01,0,.02c0,0,0-.01,0-.02Z"/>
        <path class="cls-3" d="m164.19,109.16c-.21,0-.43-.04-.64-.11-1-.35-1.53-1.45-1.18-2.46.28-.8.59-2.8.81-4.26.15-.98.28-1.83.41-2.45.12-.56.48-1.04.98-1.31l.35-.19c.17-.09.36-.16.55-.19l7.71-1.44v-6.87l-7.79-1.83c-.2-.05-.39-.13-.57-.23l-.36-.22c-.46-.28-.78-.75-.88-1.28-.33-1.76-.65-3.17-1.21-4.77-.24-.68-.08-1.44.42-1.96l.28-.29s.09-.09.14-.14l5.95-5.1-3.44-5.95-7.6,2.3-.33.12c-.76.28-1.62.05-2.14-.57-1.15-1.37-2.06-2.45-3.45-3.66-.52-.45-.76-1.14-.63-1.82l.08-.4c.02-.09.04-.19.07-.28l2.6-7.4-5.95-3.44-5.48,5.83c-.13.14-.29.26-.46.36l-.47.26c-.48.27-1.05.32-1.57.14-1.55-.53-3.16-.96-4.77-1.27-.91-.17-1.57-.97-1.57-1.89v-.34l-1.41-7.53h-6.87l-1.83,7.79s-.02.07-.03.11l-.15.49c-.2.69-.78,1.22-1.49,1.35-1.57.29-2.84.68-4.63,1.3-.68.23-1.43.07-1.95-.42l-.51-.49s-.09-.09-.14-.14l-5.1-5.95-5.95,3.44,2.31,7.66s.01.04.02.06l.16.6c.19.71-.05,1.47-.6,1.95-1.27,1.1-2.36,2.05-3.48,3.34-.48.56-1.25.79-1.96.6l-.61-.16s-.09-.03-.14-.04l-7.4-2.6-3.44,5.95,5.83,5.48s.1.1.14.15l.44.52c.45.52.59,1.24.36,1.89-.61,1.76-.99,3.13-1.27,4.58-.15.76-.74,1.36-1.5,1.52l-.69.15s-.03,0-.04,0l-7.71,1.44v6.87l7.79,1.83c.08.02.16.04.23.07l.7.26c.64.24,1.11.8,1.23,1.48.09.54.19,1.22.3,1.93.25,1.68.59,3.99.97,5.1.34,1.01-.2,2.1-1.21,2.44-1.01.34-2.1-.2-2.44-1.21-.48-1.44-.82-3.74-1.12-5.77-.03-.23-.07-.46-.1-.69l-8.7-2.04c-.87-.2-1.49-.98-1.49-1.88v-10c0-.93.66-1.72,1.57-1.89l8.71-1.63c.21-.87.46-1.76.77-2.72l-6.52-6.12c-.65-.61-.8-1.59-.35-2.37l5-8.66c.46-.8,1.43-1.16,2.31-.85l8.28,2.91c.7-.73,1.39-1.36,2.09-1.98l-2.57-8.51c-.26-.86.11-1.78.88-2.23l8.66-5c.8-.46,1.82-.29,2.43.41l5.74,6.69c.88-.29,1.79-.56,2.8-.79l2.01-8.57c.2-.87.98-1.49,1.88-1.49h10c.93,0,1.72.66,1.89,1.57l1.6,8.55c.97.22,1.93.48,2.88.78l5.98-6.37c.61-.65,1.59-.8,2.37-.35l8.66,5c.8.46,1.16,1.43.85,2.31l-2.83,8.06c.79.76,1.45,1.49,2.11,2.25l8.31-2.51c.86-.26,1.78.11,2.23.88l5,8.66c.46.8.29,1.82-.41,2.43l-6.48,5.56c.3,1,.53,1.97.75,3.02l8.4,1.97c.87.2,1.49.98,1.49,1.88v10c0,.93-.66,1.72-1.57,1.89l-8.3,1.56c-.05.35-.11.72-.17,1.11-.29,1.88-.58,3.82-.98,4.96-.28.79-1.02,1.29-1.82,1.29Z"/>
        <path class="cls-3" d="m132.56,140.16h-10c-.93,0-1.72-.66-1.89-1.57l-1.61-8.6c-.92-.23-1.8-.5-2.75-.82l-5.45,6.39c-.69.81-1.91.91-2.72.22-.81-.69-.91-1.91-.22-2.72l5.84-6.85.24-.37c.49-.76,1.43-1.07,2.28-.77,1.79.65,3.15,1.09,4.77,1.41.73.15,1.31.7,1.49,1.42l.14.58s.02.08.03.12l1.44,7.71h6.87l1.83-7.79c.01-.06.03-.11.05-.17l.14-.43c.22-.67.8-1.17,1.5-1.29,1.92-.33,3.53-.71,4.92-1.16.75-.24,1.58,0,2.08.61l.24.29s.02.02.03.04l5.15,6.57c.66.84.51,2.05-.33,2.71-.84.66-2.05.51-2.71-.33l-4.57-5.83c-.9.25-1.88.48-2.94.68l-1.99,8.48c-.2.87-.98,1.49-1.88,1.49Z"/>
        <path class="cls-3" d="m134.46,120.17c-.12,0-.23,0-.35-.02-1.76-.15-3.12-1.43-3.38-3.18l-2.8-18.55h-10.1c-1.86,0-3.42-1.34-3.71-3.18l-3.61-23.4h0c-.17-1.08.15-2.18.86-3.01.71-.83,1.75-1.31,2.85-1.31h14.42c1.03,0,2.03.43,2.74,1.19.71.75,1.07,1.78,1.01,2.81l-.93,14.1h12.11c1.2,0,2.34.58,3.05,1.56.7.98.89,2.24.51,3.39l-9.11,27.05c-.53,1.56-1.92,2.55-3.53,2.55Zm-16.55-25.6h10.1c1.87,0,3.43,1.34,3.71,3.19l2.75,18.22,8.93-26.5h-12.07c-1.03,0-2.03-.43-2.74-1.19-.71-.75-1.07-1.78-1.01-2.81l.93-14.1h-14.19l3.58,23.19Zm10.1,3.86h0,0Zm-13.7-27.17s0,0,0,0h0Z"/>
      </g>
    </g>
  </g>
</svg>