<?xml version="1.0" encoding="UTF-8"?>
<svg id="Layer_2" data-name="Layer 2" xmlns="http://www.w3.org/2000/svg" viewBox="0 0 254.73 254.73">
  <defs>
    <style>
      .cls-1 {
        fill: #fff;
      }

      .cls-2 {
        fill: #39b54a;
      }
    </style>
  </defs>
  <g id="Layer_1-2" data-name="Layer 1">
    <g>
      <circle class="cls-1" cx="127.36" cy="127.36" r="127.36"/>
      <g>
        <g>
          <g>
            <path class="cls-2" d="m114.73,158.8c-1.89,0-3.7-.34-5.41-1.01-7.32-2.89-9.82-10.93-9.93-11.27-.44-1.46.38-3.01,1.85-3.46,1.46-.44,3.01.38,3.46,1.85.01.05,1.87,5.85,6.69,7.73,2.96,1.16,6.59.65,10.8-1.49v-80.01c0-3.3-2.68-5.98-5.98-5.98s-5.98,2.68-5.98,5.98c0,.58.08,1.14.24,1.69.43,1.47-.41,3.01-1.88,3.44-1.47.43-3.01-.41-3.44-1.88-.31-1.05-.46-2.14-.46-3.24,0-6.35,5.17-11.52,11.52-11.52s11.52,5.17,11.52,11.52v81.66c0,.99-.53,1.91-1.39,2.4-4.16,2.4-8.04,3.6-11.62,3.6Z"/>
            <path class="cls-2" d="m103.71,93.73c-7.16,0-12.98-5.82-12.98-12.98s5.82-12.98,12.98-12.98c1.63,0,3.22.3,4.72.88,1.43.56,2.13,2.17,1.57,3.59-.56,1.42-2.16,2.13-3.59,1.57-.86-.34-1.77-.51-2.7-.51-4.1,0-7.44,3.34-7.44,7.44s3.34,7.43,7.44,7.43c1.53,0,2.77,1.24,2.77,2.77s-1.24,2.77-2.77,2.77Z"/>
            <path class="cls-2" d="m94.55,107.04c-6.66,0-13.19-6.53-13.19-13.19s5.45-12.15,12.15-12.15c1.53,0,2.77,1.24,2.77,2.77s-1.24,2.77-2.77,2.77c-3.64,0-6.6,2.96-6.6,6.6s4,7.65,7.65,7.65c1.53,0,2.77,1.24,2.77,2.77s-1.24,2.77-2.77,2.77Z"/>
            <path class="cls-2" d="m93.87,123.66c-1.27,0-2.3-.1-2.84-.17-6.98-.13-12.16-7.46-12.16-14.02,0-4.8,2.81-9.2,7.17-11.21,1.4-.65,3.04-.04,3.68,1.35.64,1.39.04,3.04-1.35,3.68-2.4,1.11-3.96,3.54-3.96,6.19,0,3.82,3.14,8.48,6.81,8.48.12,0,.24,0,.36.02,2.52.32,6,.05,6.93-.88,1.08-1.08,2.84-1.08,3.92,0s1.08,2.84,0,3.92c-2.19,2.19-5.88,2.64-8.55,2.64Z"/>
            <path class="cls-2" d="m91.04,139.12c-.47,0-.95-.12-1.38-.37-4.78-2.76-7.62-6.25-8.44-10.39-1.21-6.07,2.54-11.06,2.7-11.27.93-1.22,2.67-1.44,3.88-.52,1.21.93,1.45,2.66.53,3.88-.08.11-2.4,3.33-1.67,6.87.51,2.49,2.46,4.73,5.77,6.64,1.33.77,1.78,2.46,1.01,3.79-.51.89-1.45,1.39-2.4,1.39Z"/>
            <path class="cls-2" d="m104.75,154.95c-.2,0-.4-.02-.6-.06-7.59-1.68-12.55-5.07-14.73-10.09-3.38-7.75,1.48-16.17,1.69-16.52.78-1.32,2.48-1.76,3.79-.99,1.32.78,1.76,2.47.99,3.79h0c-.04.06-3.64,6.39-1.38,11.53,1.44,3.28,5.09,5.59,10.84,6.86,1.5.33,2.44,1.81,2.11,3.3-.29,1.29-1.43,2.17-2.7,2.17Z"/>
            <path class="cls-2" d="m102.04,127.45c-1.22,0-2.34-.82-2.68-2.05-1.39-5.2-.84-9.53,1.63-12.9,4.13-5.61,12.06-5.99,12.39-6.01,1.5-.12,2.82,1.13,2.88,2.66.06,1.53-1.12,2.81-2.65,2.88-.12,0-5.66.33-8.17,3.77-1.41,1.93-1.66,4.68-.73,8.16.4,1.48-.48,3-1.96,3.39-.24.06-.48.09-.72.09Z"/>
            <path class="cls-2" d="m111.21,102.03c-.96,0-1.89-.5-2.4-1.39-.76-1.33-.31-3.02,1.01-3.79,11.41-6.58,17.08.39,17.31.69.94,1.2.73,2.95-.47,3.89-1.19.93-2.91.74-3.86-.43-.34-.39-3.28-3.35-10.22.65-.44.25-.91.37-1.38.37Z"/>
            <path class="cls-2" d="m116.17,141.45c-3.7,0-7.3-1.32-9.47-5.22-.74-1.34-.26-3.02,1.08-3.77,1.34-.75,3.03-.26,3.77,1.08,2.81,5.04,12.05.39,12.14.34,1.36-.7,3.03-.16,3.73,1.19.7,1.36.17,3.03-1.19,3.73-2.6,1.35-6.39,2.64-10.06,2.64Z"/>
            <path class="cls-2" d="m117.41,88.23c-1.01,0-2.01-.13-2.93-.46-1.6-.57-2.82-1.68-3.5-3.19-.63-1.39-.02-3.04,1.37-3.67,1.39-.64,3.04-.02,3.67,1.37.04.1.08.18.33.27,1.59.58,5.35-.63,7.39-1.62,1.37-.67,3.03-.09,3.7,1.28.67,1.37.1,3.03-1.27,3.7-.94.46-4.97,2.31-8.76,2.31Z"/>
            <path class="cls-2" d="m119.17,126.05c-1.96,0-4.09-.37-6.01-1.48-1.33-.77-1.78-2.46-1.01-3.79.76-1.33,2.46-1.78,3.78-1.01,2.53,1.47,6.73.34,8-.17,1.42-.57,3.04.12,3.6,1.54.57,1.42-.12,3.03-1.54,3.6-.48.19-3.4,1.31-6.82,1.31Z"/>
          </g>
          <g>
            <path class="cls-2" d="m131.22,159.92h-3.82c-1.53,0-2.77-1.24-2.77-2.77s1.24-2.77,2.77-2.77h1.28l.8-9.21c.1-1.19.96-2.18,2.13-2.46,4.27-1,8.26-2.78,11.87-5.31,1.03-.73,2.41-.66,3.37.15l7.42,6.23,5.26-5.26-6.46-7.69c-.78-.92-.86-2.24-.22-3.26,2.25-3.56,3.81-7.44,4.63-11.54.24-1.2,1.25-2.11,2.48-2.21l10.17-.89v-7.43l-10.17-.89c-1.22-.11-2.23-1.01-2.48-2.21-.82-4.09-2.38-7.98-4.63-11.54-.64-1.02-.56-2.34.22-3.26l6.45-7.69-5.26-5.25-7.42,6.23c-.96.81-2.35.87-3.37.15-3.6-2.52-7.59-4.31-11.87-5.31-1.17-.27-2.03-1.26-2.13-2.46l-.8-9.21h-1.57c-1.53,0-2.77-1.24-2.77-2.77s1.24-2.77,2.77-2.77h4.11c1.44,0,2.64,1.1,2.76,2.53l.86,9.79c3.54,1.02,6.91,2.52,10.04,4.47l7.78-6.53c1.1-.93,2.72-.86,3.74.16l8.85,8.85c1.02,1.01,1.09,2.64.16,3.74l-6.82,8.13c1.71,3.04,3.01,6.26,3.87,9.62l10.69.93c1.43.12,2.53,1.32,2.53,2.76v12.51c0,1.44-1.1,2.64-2.53,2.76l-10.69.93c-.86,3.36-2.16,6.58-3.87,9.62l6.82,8.13c.92,1.1.85,2.73-.16,3.74l-8.85,8.85c-1.02,1.01-2.64,1.09-3.74.16l-7.78-6.53c-3.13,1.96-6.5,3.46-10.04,4.47l-.86,9.79c-.12,1.43-1.32,2.53-2.76,2.53Z"/>
            <path class="cls-2" d="m129.54,134.25c-1.29,0-2.44-.9-2.71-2.22-.31-1.5.66-2.96,2.16-3.27,9.23-1.89,15.93-10.11,15.93-19.56s-6.84-17.86-16.26-19.62c-1.5-.28-2.5-1.73-2.21-3.23.28-1.51,1.72-2.47,3.23-2.22,12.04,2.25,20.78,12.8,20.78,25.07s-8.57,22.57-20.37,24.98c-.19.04-.37.06-.56.06Z"/>
          </g>
        </g>
        <g>
          <path d="m74.7,208.62c-.41,0-.84-.09-1.23-.29-1.37-.68-1.93-2.34-1.25-3.71.13-.27,6.71-14.19,1.06-34-2.4-8.4-5.33-15.43-8.17-22.22-6.83-16.34-12.72-30.45-7.17-54.65,7.68-33.5,38.96-55.63,72.73-51.44,27.75,3.42,64.63,13.72,64.63,63.39,0,8.48,2.82,16.88,7.94,23.64l2.45,3.24c.33.38,4.11,5,3.18,10.12-.36,1.96-1.58,4.74-5.37,6.84-2.1,1.16-3.32,3.36-3.1,5.6.19,1.9-.43,3.75-1.68,5.14-1.25,1.38-3.04,2.17-4.91,2.17h-11.06c-1.53,0-2.77-1.24-2.77-2.77s1.24-2.77,2.77-2.77h11.06c.42,0,.68-.22.8-.35s.32-.42.28-.83c-.44-4.48,1.89-8.79,5.93-11.03,2.29-1.27,2.53-2.56,2.6-2.98.4-2.19-1.39-4.89-2.05-5.66l-2.55-3.37c-5.84-7.72-9.06-17.31-9.06-26.99,0-44.77-31.94-54.45-59.77-57.89-30.94-3.79-59.61,16.46-66.65,47.18-5.15,22.47.16,35.18,6.89,51.27,2.9,6.94,5.9,14.12,8.39,22.84,6.3,22.08-1.1,37.35-1.42,37.99-.48.97-1.46,1.54-2.48,1.54Z"/>
          <path d="m177.64,193.92c-2.26,0-5.08-.18-8.59-.42-3.68-.25-7.85-.54-11.73-.54-12.74,0-18.5-21.19-19.12-23.6-.38-1.48.52-2.99,2-3.37,1.48-.38,2.99.52,3.37,2,1.29,5.04,6.58,19.43,13.75,19.43,4.07,0,8.34.29,12.11.55,4.25.29,10.03.69,11.49.12,1.05-1.1,2.19-3.08,2.19-8.18,0-5.79,5.12-12.26,5.71-12.98.96-1.19,2.71-1.37,3.89-.4,1.19.96,1.37,2.71.41,3.9-1.16,1.43-4.47,6.25-4.47,9.49,0,5.74-1.22,9.52-3.94,12.24-1.32,1.33-3.5,1.76-7.06,1.76Z"/>
          <path d="m146.36,212.92c-1.53,0-2.77-1.24-2.77-2.77,0-3.97,4.48-13.14,5.38-14.93.69-1.37,2.35-1.92,3.72-1.24,1.37.68,1.92,2.35,1.24,3.72-2.3,4.61-4.79,10.69-4.79,12.45,0,1.53-1.24,2.77-2.77,2.77Z"/>
        </g>
      </g>
    </g>
  </g>
</svg>