<?xml version="1.0" encoding="UTF-8"?>
<svg id="Layer_2" data-name="Layer 2" xmlns="http://www.w3.org/2000/svg" viewBox="0 0 254.73 254.73">
  <defs>
    <style>
      .cls-1 {
        fill: #009245;
      }

      .cls-2 {
        fill: #fff;
      }
    </style>
  </defs>
  <g id="Layer_1-2" data-name="Layer 1">
    <g>
      <circle class="cls-2" cx="127.36" cy="127.36" r="127.36"/>
      <g>
        <rect class="cls-1" x="113.37" y="91.59" width="4.02" height="4.02"/>
        <rect class="cls-1" x="113.37" y="82.22" width="4.02" height="4.02"/>
        <rect class="cls-1" x="113.37" y="72.84" width="4.02" height="4.02"/>
        <polygon class="cls-1" points="113.37 67.13 117.39 67.13 117.39 54.57 129.19 54.57 129.19 50.55 113.93 50.55 127.38 37.1 140.83 50.55 136.52 50.55 136.52 108.83 140.54 108.83 140.54 54.57 150.52 54.57 127.38 31.42 104.23 54.57 113.37 54.57 113.37 67.13"/>
        <rect class="cls-1" x="169.8" y="115.66" width="4.02" height="4.02"/>
        <rect class="cls-1" x="169.8" y="106.28" width="4.02" height="4.02"/>
        <polygon class="cls-1" points="169.8 100.57 173.82 100.57 173.82 88.01 185.63 88.01 185.63 83.99 170.37 83.99 183.82 70.54 197.26 83.99 192.95 83.99 192.95 131.63 196.97 131.63 196.97 88.01 206.96 88.01 183.82 64.86 160.67 88.01 169.8 88.01 169.8 100.57"/>
        <rect class="cls-1" x="80.94" y="115.66" width="4.02" height="4.02"/>
        <rect class="cls-1" x="80.94" y="106.28" width="4.02" height="4.02"/>
        <polygon class="cls-1" points="57.79 131.63 61.81 131.63 61.81 83.99 57.5 83.99 70.94 70.54 84.39 83.99 69.14 83.99 69.14 88.01 80.94 88.01 80.94 100.57 84.95 100.57 84.95 88.01 94.09 88.01 70.94 64.86 47.8 88.01 57.79 88.01 57.79 131.63"/>
        <rect x="96.13" y="195.19" width="15.1" height="4.01" transform="translate(-99.67 288.22) rotate(-86.38)"/>
        <rect x="149.07" y="189.64" width="4.01" height="15.1" transform="translate(-12.17 9.95) rotate(-3.63)"/>
        <path d="m127.38,156.17c10.34,0,18.75-8.41,18.75-18.75s-8.41-18.75-18.75-18.75-18.75,8.41-18.75,18.75,8.41,18.75,18.75,18.75Zm0-33.48c8.13,0,14.74,6.61,14.74,14.73s-6.61,14.73-14.74,14.73-14.73-6.61-14.73-14.73,6.61-14.73,14.73-14.73Z"/>
        <path d="m213.69,186.44h0c0-2.46-.74-4.98-2.18-7.48-1.47-2.57-3.87-4.57-6.78-5.62l-10.54-3.77-9.14,17.01h-2.5l-9.15-17.01-9.53,3.45c-.26-.55-.52-1.1-.83-1.64-1.84-3.23-4.87-5.74-8.53-7.07l-13.27-4.74-11.86,22.07h-4l-11.86-22.07-13.27,4.74c-3.65,1.32-6.68,3.83-8.52,7.05-.31.54-.56,1.08-.82,1.62l-9.59-3.41-9.14,17h-2.5l-9.14-17.01-10.55,3.77c-2.9,1.05-5.3,3.04-6.77,5.61-1.45,2.51-2.19,5.03-2.18,7.27-.01.09-1.03,9.38-1.39,18.43l4.01.16c.36-8.9,1.36-18.06,1.39-18.37,0-2.17.9-4.18,1.66-5.49,1-1.74,2.65-3.1,4.64-3.83l7.28-2.6,8.64,16.08h7.3l8.64-16.08,6.28,2.23c-.34,1.33-.55,2.63-.54,3.87-.01.12-1.35,12.23-1.82,24.03l4.01.16c.47-11.65,1.78-23.63,1.81-23.97,0-2.98,1.22-5.7,2.24-7.48,1.37-2.4,3.65-4.28,6.39-5.27l10.01-3.58,11.37,21.14h8.8l11.37-21.14,10,3.57c2.75,1,5.02,2.87,6.4,5.29,1.02,1.77,2.24,4.49,2.25,7.69.01.12,1.33,12.09,1.8,23.75l4.01-.16c-.47-11.75-1.79-23.81-1.8-23.81,0-1.34-.21-2.69-.55-4.06l6.25-2.26,8.64,16.07h7.3l8.64-16.08,7.28,2.6c2,.73,3.66,2.09,4.66,3.84.75,1.3,1.65,3.31,1.66,5.71.01.09,1.01,9.24,1.37,18.15l4.01-.16c-.36-8.99-1.37-18.21-1.38-18.21Z"/>
        <rect x="199.93" y="193.18" width="4.01" height="11.56" transform="translate(-12.11 13.09) rotate(-3.61)"/>
        <path d="m183.8,168.03c8.18,0,14.83-6.65,14.83-14.83s-6.65-14.83-14.83-14.83-14.83,6.65-14.83,14.83,6.65,14.83,14.83,14.83Zm0-25.64c5.96,0,10.81,4.85,10.81,10.81s-4.85,10.81-10.81,10.81-10.81-4.85-10.81-10.81,4.85-10.81,10.81-10.81Z"/>
        <rect x="47" y="196.96" width="11.56" height="4.01" transform="translate(-149.11 239.07) rotate(-86.38)"/>
        <path d="m56.1,153.2c0,8.18,6.65,14.83,14.83,14.83s14.83-6.65,14.83-14.83-6.65-14.83-14.83-14.83-14.83,6.65-14.83,14.83Zm25.64,0c0,5.96-4.85,10.81-10.81,10.81s-10.81-4.85-10.81-10.81,4.85-10.81,10.81-10.81,10.81,4.85,10.81,10.81Z"/>
      </g>
    </g>
  </g>
</svg>