<?xml version="1.0" encoding="UTF-8"?>
<svg id="Layer_2" data-name="Layer 2" xmlns="http://www.w3.org/2000/svg" viewBox="0 0 254.73 254.73">
  <defs>
    <style>
      .cls-1, .cls-2 {
        fill: none;
        stroke: #f7931e;
        stroke-linecap: round;
        stroke-width: 5.38px;
      }

      .cls-3 {
        fill: #fff;
      }

      .cls-2 {
        stroke-linejoin: round;
      }
    </style>
  </defs>
  <g id="Layer_1-2" data-name="Layer 1">
    <g>
      <circle class="cls-3" cx="127.36" cy="127.36" r="127.36"/>
      <g>
        <path class="cls-2" d="m116.51,52.89c-26.15,0-47.57,22-47.74,49.03-.11,16.35,7.68,31.44,20.89,40.62l.97,26.12c-.04,11.25,7.71,19.77,18.05,19.84l14.68.1h0c10.27,0,18.07-8.42,18.16-19.6l.96-19.2h0l.39-6.93c11.78-7.97,19.37-20.62,21.03-34.76"/>
        <line class="cls-1" x1="97.37" y1="200.26" x2="134.62" y2="200.26"/>
        <line class="cls-1" x1="99.37" y1="210.97" x2="132.62" y2="210.97"/>
        <line class="cls-1" x1="146.48" y1="108.05" x2="163.96" y2="108.05"/>
        <line class="cls-1" x1="100.85" y1="108.05" x2="131.58" y2="108.05"/>
        <line class="cls-1" x1="69.87" y1="108.05" x2="86.46" y2="108.05"/>
        <line class="cls-1" x1="116.53" y1="144.4" x2="116.53" y2="187.79"/>
        <line class="cls-1" x1="116.53" y1="86.69" x2="116.53" y2="129.63"/>
        <line class="cls-1" x1="116.53" y1="53.02" x2="116.53" y2="71.96"/>
        <path class="cls-1" d="m86.55,107.64v-3.3c0-3.99,3.17-7.23,7.08-7.23h.03c3.91,0,7.08,3.24,7.08,7.23v3.54"/>
        <path class="cls-1" d="m116.23,144.2h-4.18c-3.91,0-7.08-3.24-7.08-7.23v-.03c0-3.99,3.17-7.23,7.08-7.23h4.41"/>
        <path class="cls-1" d="m131.97,107.88v-3.3c0-3.99,3.17-7.23,7.08-7.23h.03c3.91,0,7.08,3.24,7.08,7.23v3.54"/>
        <path class="cls-1" d="m116.3,86.31h-4.18c-3.91,0-7.08-3.24-7.08-7.23v-.03c0-3.99,3.17-7.23,7.08-7.23h4.41"/>
        <g>
          <g>
            <path class="cls-2" d="m185.61,87.38c.22-1.85.34-3.72.35-5.62.09-13.05-4.8-25.42-13.74-34.84-8.99-9.47-20.96-14.73-33.68-14.82"/>
            <line class="cls-2" x1="167.23" y1="87.26" x2="185.68" y2="87.26"/>
            <line class="cls-2" x1="138.7" y1="87.26" x2="152.51" y2="87.26"/>
            <line class="cls-2" x1="138.25" y1="65.95" x2="138.25" y2="87.25"/>
            <line class="cls-2" x1="138.25" y1="32.23" x2="138.25" y2="51.32"/>
            <path class="cls-2" d="m152.95,86.86v-4.26c0-3.99,3.17-7.23,7.08-7.23h.03c3.91,0,7.08,3.24,7.08,7.23v4.5"/>
          </g>
          <path class="cls-2" d="m137.95,66.01h-4.18c-3.91,0-7.08-3.24-7.08-7.23v-.03c0-3.99,3.17-7.23,7.08-7.23h4.41"/>
        </g>
        <path class="cls-1" d="m133.06,212.03v6.12c0,2.47-1.96,4.47-4.37,4.47h-25.37c-2.42,0-4.37-2-4.37-4.47v-6.62"/>
      </g>
    </g>
  </g>
</svg>