<?xml version="1.0" encoding="UTF-8"?>
<svg id="Layer_2" data-name="Layer 2" xmlns="http://www.w3.org/2000/svg" viewBox="0 0 254.73 254.73">
  <defs>
    <style>
      .cls-1 {
        fill: #fff;
      }

      .cls-2 {
        fill: none;
        stroke: #29abe2;
        stroke-miterlimit: 10;
        stroke-width: 5.5px;
      }
    </style>
  </defs>
  <g id="Layer_1-2" data-name="Layer 1">
    <g>
      <circle class="cls-1" cx="127.36" cy="127.36" r="127.36"/>
      <g>
        <g>
          <path class="cls-2" d="m127.39,212.65c-22.63.03-44.33-8.96-60.31-24.98"/>
          <path class="cls-2" d="m127.38,42.08c22.63-.03,44.33,8.96,60.31,24.98"/>
          <line class="cls-2" x1="191.35" y1="71.22" x2="194.79" y2="75.35"/>
          <line class="cls-2" x1="59.89" y1="179.81" x2="63.33" y2="183.94"/>
          <g>
            <path class="cls-2" d="m42.05,127.41c-.03-22.63,8.96-44.33,24.98-60.31"/>
            <path class="cls-2" d="m212.63,127.41c.03,22.63-8.96,44.33-24.98,60.31"/>
            <line class="cls-2" x1="183.48" y1="191.37" x2="179.36" y2="194.81"/>
            <line class="cls-2" x1="74.9" y1="59.92" x2="70.77" y2="63.36"/>
          </g>
        </g>
        <g>
          <path class="cls-2" d="m127.39,42.08h-19.26c-3.04,0-5.5,2.46-5.5,5.5h0c0,3.04,2.46,5.5,5.5,5.5h8.25"/>
          <path class="cls-2" d="m116.38,53.08h-22.01c-3.04,0-5.5,2.46-5.5,5.5h0c0,3.04,2.46,5.5,5.5,5.5h22.01"/>
          <path class="cls-2" d="m116.38,64.09h-27.51c-3.04,0-5.5,2.46-5.5,5.5h0c0,3.04,2.46,5.5,5.5,5.5h27.51"/>
          <path class="cls-2" d="m116.38,75.09h-22.01c-3.04,0-5.5,2.46-5.5,5.5h0c0,3.04,2.46,5.5,5.5,5.5h22.01"/>
          <path class="cls-2" d="m127.39,86.1h-11c-3.04,0-5.5,2.46-5.5,5.5h0c0,3.04,2.46,5.5,5.5,5.5h13.15c3.94,0,7.75-1.41,10.74-3.97l14.62-12.53h0c3.52,0,6.9,1.4,9.39,3.89l5.85,5.85"/>
          <g>
            <path class="cls-2" d="m127.39,212.65h19.26c3.04,0,5.5-2.46,5.5-5.5h0c0-3.04-2.46-5.5-5.5-5.5h-8.25"/>
            <path class="cls-2" d="m138.39,201.65h22.01c3.04,0,5.5-2.46,5.5-5.5h0c0-3.04-2.46-5.5-5.5-5.5h-22.01"/>
            <path class="cls-2" d="m138.39,190.64h27.51c3.04,0,5.5-2.46,5.5-5.5h0c0-3.04-2.46-5.5-5.5-5.5h-27.51"/>
            <path class="cls-2" d="m138.39,179.64h22.01c3.04,0,5.5-2.46,5.5-5.5h0c0-3.04-2.46-5.5-5.5-5.5h-22.01"/>
            <path class="cls-2" d="m127.39,168.63h11c3.04,0,5.5-2.46,5.5-5.5h0c0-3.04-2.46-5.5-5.5-5.5h-13.15c-3.94,0-7.75,1.41-10.74,3.97l-14.62,12.53h0c-3.52,0-6.9-1.4-9.39-3.89l-6.2-6.2"/>
          </g>
          <g>
            <path class="cls-2" d="m212.67,127.36v-19.26c0-3.04-2.46-5.5-5.5-5.5h0c-3.04,0-5.5,2.46-5.5,5.5v8.25"/>
            <path class="cls-2" d="m201.67,116.36v-22.01c0-3.04-2.46-5.5-5.5-5.5h0c-3.04,0-5.5,2.46-5.5,5.5v22.01"/>
            <path class="cls-2" d="m190.66,116.36v-27.51c0-3.04-2.46-5.5-5.5-5.5h0c-3.04,0-5.5,2.46-5.5,5.5v27.51"/>
            <path class="cls-2" d="m179.66,116.36v-22.01c0-3.04-2.46-5.5-5.5-5.5h0c-3.04,0-5.5,2.46-5.5,5.5v22.01"/>
            <path class="cls-2" d="m168.65,127.36v-11c0-3.04-2.46-5.5-5.5-5.5h0c-3.04,0-5.5,2.46-5.5,5.5v13.15c0,3.94,1.41,7.75,3.97,10.74l12.53,14.62h0c0,3.52-1.4,6.9-3.89,9.39l-5.05,5.05"/>
            <g>
              <path class="cls-2" d="m42.1,127.36v19.26c0,3.04,2.46,5.5,5.5,5.5h0c3.04,0,5.5-2.46,5.5-5.5v-8.25"/>
              <path class="cls-2" d="m53.1,138.37v22.01c0,3.04,2.46,5.5,5.5,5.5h0c3.04,0,5.5-2.46,5.5-5.5v-22.01"/>
              <path class="cls-2" d="m64.11,138.37v27.51c0,3.04,2.46,5.5,5.5,5.5h0c3.04,0,5.5-2.46,5.5-5.5v-27.51"/>
              <path class="cls-2" d="m75.11,138.37v22.01c0,3.04,2.46,5.5,5.5,5.5h0c3.04,0,5.5-2.46,5.5-5.5v-22.01"/>
              <path class="cls-2" d="m86.12,127.36v11c0,3.04,2.46,5.5,5.5,5.5h0c3.04,0,5.5-2.46,5.5-5.5v-13.15c0-3.94-1.41-7.75-3.97-10.74l-12.53-14.62h0c0-3.52,1.4-6.9,3.89-9.39l5.85-5.85"/>
            </g>
          </g>
        </g>
      </g>
    </g>
  </g>
</svg>