<?xml version="1.0" encoding="UTF-8"?>
<svg id="Layer_2" data-name="Layer 2" xmlns="http://www.w3.org/2000/svg" viewBox="0 0 254.73 254.73">
  <defs>
    <style>
      .cls-1 {
        fill: #fff;
      }

      .cls-2 {
        fill: #fffffd;
      }

      .cls-3 {
        fill: #59a49c;
      }

      .cls-4 {
        fill: #4d4d4d;
      }

      .cls-5 {
        fill: #d6d6d6;
      }

      .cls-6 {
        fill: #ea2324;
      }
    </style>
  </defs>
  <g id="Layer_1-2" data-name="Layer 1">
    <g>
      <circle class="cls-1" cx="127.36" cy="127.36" r="127.36"/>
      <g>
        <g>
          <path class="cls-5" d="m208.72,96.95s0-.07.02-.2c.02-.13.04-.3.05-.52.03-.43.08-1.01.12-1.58.03-.58.03-1.15.05-1.59.01-.43.02-.72.02-.72,0,0,0-.29-.02-.72-.02-.43-.02-1.01-.05-1.59-.04-.58-.09-1.15-.12-1.58-.01-.22-.03-.4-.05-.52-.02-.13-.02-.2-.02-.2,0,0,1.61-.51,3.21-1.08,1.6-.57,3.2-1.19,3.2-1.19,0,0-.02-.12-.04-.32-.03-.21-.09-.5-.15-.85-.13-.7-.28-1.65-.51-2.57-.11-.46-.22-.93-.32-1.36-.12-.43-.23-.83-.33-1.18-.1-.34-.18-.63-.24-.83-.05-.2-.09-.31-.09-.31,0,0-1.71.13-3.4.31-1.69.18-3.37.41-3.37.41,0,0-.09-.28-.24-.68-.16-.4-.37-.94-.58-1.48-.21-.54-.47-1.06-.64-1.45-.18-.39-.3-.66-.3-.66,0,0-.13-.26-.33-.64-.2-.38-.45-.91-.74-1.41-.29-.5-.58-1-.79-1.38-.23-.36-.39-.61-.39-.61,0,0,1.23-1.16,2.42-2.38,1.2-1.21,2.36-2.47,2.36-2.47,0,0-.27-.39-.69-.97-.21-.29-.44-.63-.71-.99-.28-.35-.57-.73-.86-1.1-.57-.76-1.23-1.46-1.69-2-.23-.27-.43-.49-.58-.64-.14-.15-.23-.24-.23-.24,0,0-1.48.85-2.92,1.75-1.44.89-2.85,1.83-2.85,1.83,0,0-.21-.2-.52-.5-.32-.29-.72-.71-1.16-1.08-.44-.38-.87-.76-1.2-1.04-.34-.27-.57-.45-.57-.45,0,0-.23-.18-.57-.45-.33-.28-.8-.61-1.28-.94-.47-.34-.94-.67-1.31-.9-.36-.23-.61-.39-.61-.39,0,0,.61-1.58,1.16-3.2.55-1.6,1.05-3.23,1.05-3.23,0,0-.41-.24-1.03-.59-.62-.35-1.48-.77-2.33-1.21-.87-.39-1.73-.8-2.39-1.07-.67-.26-1.11-.44-1.11-.44,0,0-.96,1.41-1.87,2.83-.92,1.43-1.78,2.9-1.78,2.9,0,0-.27-.09-.68-.23-.21-.07-.44-.15-.7-.24-.26-.07-.54-.15-.82-.23-.56-.15-1.11-.33-1.53-.41-.42-.1-.7-.16-.7-.16,0,0-.28-.07-.7-.16-.42-.09-.99-.18-1.56-.29-.57-.11-1.14-.18-1.57-.23-.43-.06-.72-.09-.72-.09,0,0-.04-.42-.1-1.06-.06-.64-.15-1.48-.25-2.32-.2-1.68-.46-3.37-.46-3.37,0,0-.48-.04-1.19-.09-.71-.03-1.66-.05-2.61-.07-.95.02-1.9.04-2.61.07-.71.05-1.19.09-1.19.09,0,0-.26,1.69-.46,3.37-.1.84-.19,1.68-.25,2.32-.06.64-.1,1.06-.1,1.06,0,0-.29.04-.72.09-.43.05-1,.12-1.57.23-.57.11-1.14.19-1.56.29-.42.1-.7.16-.7.16,0,0-.28.06-.7.16-.42.09-.98.26-1.53.41-.28.08-.55.16-.82.23-.26.09-.5.17-.7.24-.41.14-.68.23-.68.23,0,0-.86-1.47-1.78-2.9-.91-1.43-1.87-2.83-1.87-2.83,0,0-.44.18-1.11.44-.66.27-1.53.68-2.39,1.07-.85.44-1.7.86-2.33,1.21-.62.36-1.03.59-1.03.59,0,0,.5,1.63,1.05,3.23.56,1.61,1.16,3.2,1.16,3.2,0,0-.24.16-.61.39-.37.23-.84.56-1.31.9-.47.33-.94.67-1.28.94-.34.27-.57.45-.57.45,0,0-.23.18-.57.45-.33.28-.76.66-1.2,1.04-.44.37-.84.79-1.16,1.08-.31.3-.52.5-.52.5,0,0-1.4-.93-2.85-1.83-1.44-.9-2.92-1.75-2.92-1.75,0,0-.08.09-.23.24-.14.15-.35.37-.58.64-.46.55-1.11,1.24-1.69,2-.29.37-.59.75-.86,1.1-.27.36-.5.7-.71.99-.41.58-.69.97-.69.97,0,0,1.16,1.26,2.36,2.47,1.19,1.21,2.42,2.38,2.42,2.38,0,0-.15.24-.39.61-.22.38-.5.88-.79,1.38-.29.5-.54,1.02-.74,1.41-.2.38-.33.64-.33.64,0,0-.12.26-.3.66-.17.4-.43.92-.64,1.45-.21.54-.42,1.07-.58,1.48-.15.41-.24.68-.24.68,0,0-1.67-.23-3.37-.41-1.69-.18-3.4-.31-3.4-.31,0,0-.04.11-.09.31-.06.2-.14.49-.24.83-.1.34-.21.75-.33,1.18-.1.44-.21.9-.32,1.36-.23.93-.39,1.87-.51,2.57-.06.35-.12.65-.15.85-.03.21-.04.32-.04.32,0,0,1.59.63,3.2,1.19,1.6.57,3.21,1.08,3.21,1.08,0,0,0,.07-.02.2-.02.12-.04.3-.05.52-.03.43-.08,1.01-.12,1.58-.03.58-.03,1.15-.05,1.59-.01.43-.02.72-.02.72,0,0,0,.29.02.72.02.43.02,1.01.05,1.59.04.58.09,1.15.12,1.58.02.22.03.4.05.52.01.13.02.2.02.2,0,0-1.61.51-3.21,1.08-1.6.57-3.2,1.19-3.2,1.19,0,0,.02.12.04.32.03.21.09.5.15.85.13.7.28,1.65.51,2.57.11.46.22.93.32,1.36.12.43.23.83.33,1.18.1.34.18.63.24.83.06.2.09.31.09.31,0,0,1.71-.13,3.4-.31,1.69-.18,3.37-.41,3.37-.41,0,0,.09.28.24.68.16.4.37.94.58,1.48.21.54.47,1.06.64,1.45.18.39.3.66.3.66,0,0,.13.26.33.64.2.38.45.91.74,1.41.29.5.57,1,.79,1.38.23.36.39.61.39.61,0,0-1.23,1.16-2.42,2.38-1.2,1.21-2.36,2.47-2.36,2.47,0,0,.27.39.69.97.21.29.45.63.71.99.28.35.57.73.86,1.1.57.76,1.23,1.46,1.69,2,.23.27.43.49.58.64.14.15.23.24.23.24,0,0,1.48-.85,2.92-1.75,1.44-.89,2.85-1.83,2.85-1.83,0,0,.21.2.52.5.32.29.72.71,1.16,1.08.44.38.87.76,1.2,1.04.34.27.57.45.57.45,0,0,.23.18.57.45.33.28.8.61,1.28.94.47.34.94.67,1.31.9.36.23.61.39.61.39,0,0-.61,1.59-1.16,3.2-.55,1.6-1.05,3.23-1.05,3.23,0,0,.41.24,1.03.59.62.35,1.48.77,2.33,1.21.87.39,1.73.8,2.39,1.07.67.26,1.11.44,1.11.44,0,0,.96-1.41,1.87-2.83.92-1.43,1.78-2.9,1.78-2.9,0,0,.27.09.68.23.2.07.44.15.7.24.26.07.54.15.82.23.56.15,1.11.33,1.53.41.42.1.7.16.7.16,0,0,.28.06.7.16.42.09.99.18,1.56.29.57.11,1.14.18,1.57.23.43.06.72.09.72.09,0,0,.04.42.1,1.06.06.64.15,1.48.25,2.32.2,1.68.46,3.37.46,3.37,0,0,.47.04,1.19.09.71.03,1.66.05,2.61.07.95-.02,1.9-.04,2.61-.07.71-.05,1.19-.09,1.19-.09,0,0,.26-1.69.46-3.37.1-.84.19-1.68.25-2.32.06-.64.1-1.06.1-1.06,0,0,.29-.04.72-.09.43-.05,1-.12,1.57-.23.57-.1,1.14-.19,1.56-.29.42-.1.7-.16.7-.16,0,0,.28-.07.7-.16.43-.09.98-.26,1.53-.41.28-.08.55-.16.82-.23.26-.09.5-.17.7-.24.41-.14.68-.23.68-.23,0,0,.86,1.47,1.78,2.9.91,1.43,1.87,2.83,1.87,2.83,0,0,.44-.18,1.11-.44.66-.27,1.53-.68,2.39-1.07.85-.44,1.7-.86,2.33-1.21.62-.36,1.03-.59,1.03-.59,0,0-.5-1.63-1.05-3.23-.55-1.61-1.16-3.2-1.16-3.2,0,0,.24-.16.61-.39.37-.23.84-.56,1.31-.9.47-.33.94-.67,1.28-.94.34-.27.57-.45.57-.45,0,0,.23-.18.57-.45.33-.28.76-.66,1.2-1.04.44-.38.84-.79,1.16-1.08.31-.3.52-.5.52-.5,0,0,1.4.94,2.85,1.83,1.44.9,2.92,1.75,2.92,1.75,0,0,.08-.09.23-.24.15-.15.35-.37.58-.64.46-.55,1.11-1.24,1.69-2,.29-.37.59-.75.86-1.1.27-.36.51-.7.71-.99.41-.58.69-.97.69-.97,0,0-1.16-1.26-2.36-2.47-1.2-1.21-2.42-2.38-2.42-2.38,0,0,.15-.24.39-.61.22-.37.5-.88.79-1.38.29-.5.53-1.02.74-1.41.2-.39.33-.64.33-.64,0,0,.12-.26.3-.66.17-.4.43-.92.64-1.45.21-.54.42-1.08.58-1.48.15-.41.24-.68.24-.68,0,0,1.67.24,3.37.41,1.69.18,3.4.31,3.4.31,0,0,.04-.11.09-.31.06-.2.14-.49.24-.83.1-.34.21-.75.33-1.18.1-.44.21-.9.32-1.36.23-.93.38-1.87.51-2.57.06-.35.12-.65.15-.85.03-.21.04-.33.04-.33,0,0-1.59-.63-3.2-1.19-1.6-.57-3.21-1.08-3.21-1.08Zm-40.9,29.02c-18.57,0-33.63-15.06-33.63-33.63s15.06-33.63,33.63-33.63,33.63,15.06,33.63,33.63-15.06,33.63-33.63,33.63Z"/>
          <path class="cls-5" d="m127.81,146.73s0-.07.02-.2c.02-.13.04-.31.05-.52.03-.43.08-1.01.12-1.58.03-.58.03-1.15.05-1.59.01-.43.02-.72.02-.72,0,0,0-.29-.02-.72-.02-.43-.02-1.01-.05-1.59-.04-.57-.09-1.15-.12-1.58-.01-.22-.03-.4-.05-.52-.02-.13-.02-.2-.02-.2,0,0,1.61-.51,3.21-1.08,1.6-.57,3.2-1.19,3.2-1.19,0,0-.02-.12-.04-.32-.03-.21-.09-.5-.15-.85-.13-.7-.28-1.65-.51-2.57-.11-.46-.22-.93-.32-1.36-.12-.43-.23-.83-.33-1.18-.1-.34-.18-.63-.24-.83-.05-.2-.09-.31-.09-.31,0,0-1.71.13-3.4.31-1.69.18-3.37.41-3.37.41,0,0-.09-.27-.24-.68-.16-.4-.37-.94-.58-1.48-.21-.54-.47-1.05-.64-1.45-.18-.39-.3-.66-.3-.66,0,0-.13-.26-.33-.64-.2-.38-.45-.91-.74-1.41-.29-.5-.58-1-.79-1.38-.23-.36-.39-.61-.39-.61,0,0,1.23-1.16,2.42-2.38,1.2-1.21,2.36-2.47,2.36-2.47,0,0-.27-.39-.69-.97-.21-.29-.44-.63-.71-.99-.28-.35-.57-.73-.86-1.1-.57-.76-1.23-1.46-1.69-2-.23-.27-.43-.49-.58-.64-.14-.15-.23-.24-.23-.24,0,0-1.48.85-2.92,1.75-1.44.89-2.85,1.83-2.85,1.83,0,0-.21-.2-.52-.5-.32-.29-.72-.71-1.16-1.08-.44-.38-.87-.76-1.2-1.04-.34-.27-.57-.45-.57-.45,0,0-.23-.18-.57-.45-.33-.28-.8-.61-1.28-.94-.47-.34-.94-.67-1.31-.9-.36-.23-.61-.39-.61-.39,0,0,.61-1.58,1.16-3.2.55-1.6,1.05-3.23,1.05-3.23,0,0-.41-.24-1.03-.59-.62-.35-1.48-.77-2.33-1.21-.87-.39-1.73-.8-2.39-1.07-.67-.26-1.11-.44-1.11-.44,0,0-.96,1.41-1.87,2.83-.92,1.43-1.78,2.9-1.78,2.9,0,0-.27-.09-.68-.23-.21-.07-.44-.15-.7-.24-.26-.07-.54-.15-.82-.23-.56-.15-1.11-.33-1.53-.41-.42-.1-.7-.16-.7-.16,0,0-.28-.07-.7-.16-.42-.09-.99-.18-1.56-.29-.57-.11-1.14-.18-1.57-.23-.43-.06-.72-.09-.72-.09,0,0-.04-.42-.1-1.06-.06-.64-.15-1.48-.25-2.32-.2-1.68-.46-3.37-.46-3.37,0,0-.48-.04-1.19-.09-.71-.03-1.66-.05-2.61-.07-.95.02-1.9.04-2.61.07-.71.05-1.19.09-1.19.09,0,0-.26,1.69-.46,3.37-.1.84-.19,1.68-.25,2.32-.06.64-.1,1.06-.1,1.06,0,0-.29.04-.72.09-.43.05-1,.12-1.57.23-.57.11-1.14.19-1.56.29-.42.1-.7.16-.7.16,0,0-.28.06-.7.16-.42.09-.98.26-1.53.41-.28.08-.55.16-.82.23-.26.09-.5.17-.7.24-.41.14-.68.23-.68.23,0,0-.86-1.47-1.78-2.9-.91-1.43-1.87-2.83-1.87-2.83,0,0-.44.18-1.11.44-.66.27-1.53.68-2.39,1.07-.85.44-1.7.86-2.33,1.21-.62.36-1.03.59-1.03.59,0,0,.5,1.63,1.05,3.23.56,1.61,1.16,3.2,1.16,3.2,0,0-.24.16-.61.39-.37.23-.84.56-1.31.9-.47.33-.94.67-1.28.94-.34.27-.57.45-.57.45,0,0-.23.18-.57.45-.33.28-.76.66-1.2,1.04-.44.37-.84.79-1.16,1.08-.31.3-.52.5-.52.5,0,0-1.4-.93-2.85-1.83-1.44-.9-2.92-1.75-2.92-1.75,0,0-.08.09-.23.24-.14.15-.35.37-.58.64-.46.55-1.11,1.24-1.69,2-.29.37-.59.75-.86,1.1-.27.36-.5.7-.71.99-.41.58-.69.97-.69.97,0,0,1.16,1.26,2.36,2.47,1.19,1.21,2.42,2.38,2.42,2.38,0,0-.15.24-.39.61-.22.38-.5.88-.79,1.38-.29.5-.54,1.02-.74,1.41-.2.38-.33.64-.33.64,0,0-.12.26-.3.66-.17.4-.43.92-.64,1.45-.21.54-.42,1.07-.58,1.48-.15.41-.24.68-.24.68,0,0-1.67-.23-3.37-.41-1.69-.18-3.4-.31-3.4-.31,0,0-.04.11-.09.31-.06.2-.14.49-.24.83-.1.34-.21.75-.33,1.18-.1.44-.21.9-.32,1.36-.23.93-.39,1.87-.51,2.57-.06.35-.12.65-.15.85-.03.21-.04.32-.04.32,0,0,1.59.63,3.2,1.19,1.6.57,3.21,1.08,3.21,1.08,0,0,0,.07-.02.2-.02.12-.04.3-.05.52-.03.43-.08,1.01-.12,1.58-.03.58-.03,1.15-.05,1.59-.01.43-.02.72-.02.72,0,0,0,.29.02.72.02.43.02,1.01.05,1.59.04.57.09,1.15.12,1.58.02.22.03.4.05.52.02.13.02.2.02.2,0,0-1.61.51-3.21,1.08-1.6.57-3.2,1.19-3.2,1.19,0,0,.02.12.04.33.03.21.09.5.15.85.13.7.28,1.65.51,2.57.11.46.22.93.32,1.36.12.43.23.83.33,1.18.1.34.18.63.24.83.06.2.09.31.09.31,0,0,1.71-.13,3.4-.31,1.69-.18,3.37-.41,3.37-.41,0,0,.09.28.24.68.16.4.37.94.58,1.48.21.54.47,1.06.64,1.45.18.39.3.66.3.66,0,0,.13.26.33.64.2.38.45.91.74,1.41.29.5.57,1,.79,1.38.23.37.39.61.39.61,0,0-1.23,1.16-2.42,2.38-1.2,1.21-2.36,2.47-2.36,2.47,0,0,.27.39.69.97.21.29.45.63.71.99.28.35.57.73.86,1.1.57.76,1.23,1.46,1.69,2,.23.27.43.49.58.64.14.15.23.24.23.24,0,0,1.48-.85,2.92-1.75,1.44-.89,2.85-1.83,2.85-1.83,0,0,.21.2.52.5.32.29.72.71,1.16,1.08.44.38.87.76,1.2,1.04.34.27.57.45.57.45,0,0,.23.18.57.45.33.28.8.61,1.28.94.47.34.94.67,1.31.9.36.23.61.39.61.39,0,0-.61,1.59-1.16,3.2-.55,1.6-1.05,3.23-1.05,3.23,0,0,.41.24,1.03.59.62.35,1.48.77,2.33,1.21.87.39,1.73.8,2.39,1.07.67.26,1.11.44,1.11.44,0,0,.96-1.41,1.87-2.83.92-1.43,1.78-2.9,1.78-2.9,0,0,.27.09.68.23.2.07.44.15.7.24.26.07.54.15.82.23.56.15,1.11.33,1.53.41.42.1.7.16.7.16,0,0,.28.06.7.16.42.09.99.18,1.56.29.57.11,1.14.18,1.57.23.43.06.72.09.72.09,0,0,.04.42.1,1.06.06.64.15,1.48.25,2.32.2,1.68.46,3.37.46,3.37,0,0,.47.04,1.19.09.71.03,1.66.05,2.61.07.95-.02,1.9-.04,2.61-.07.71-.05,1.19-.09,1.19-.09,0,0,.26-1.69.46-3.37.1-.84.19-1.68.25-2.32.06-.64.1-1.06.1-1.06,0,0,.29-.04.72-.09.43-.06,1-.12,1.57-.23.57-.1,1.14-.19,1.56-.29.42-.1.7-.16.7-.16,0,0,.28-.07.7-.16.43-.09.98-.26,1.53-.41.28-.08.55-.16.82-.23.26-.09.5-.17.7-.24.41-.14.68-.23.68-.23,0,0,.86,1.47,1.78,2.9.91,1.43,1.87,2.83,1.87,2.83,0,0,.44-.18,1.11-.44.66-.27,1.53-.68,2.39-1.07.85-.44,1.7-.86,2.33-1.21.62-.36,1.03-.59,1.03-.59,0,0-.5-1.63-1.05-3.23-.55-1.61-1.16-3.2-1.16-3.2,0,0,.24-.16.61-.39.37-.23.84-.56,1.31-.9.47-.33.94-.67,1.28-.94.34-.27.57-.45.57-.45,0,0,.23-.18.57-.45.33-.28.76-.66,1.2-1.04.44-.38.84-.79,1.16-1.08.31-.3.52-.5.52-.5,0,0,1.4.94,2.85,1.83,1.44.9,2.92,1.75,2.92,1.75,0,0,.08-.09.23-.24.15-.15.35-.37.58-.64.46-.55,1.11-1.24,1.69-2,.29-.37.59-.75.86-1.1.27-.36.51-.7.71-.99.41-.58.69-.97.69-.97,0,0-1.16-1.26-2.36-2.47-1.2-1.22-2.42-2.38-2.42-2.38,0,0,.15-.24.39-.61.22-.37.5-.88.79-1.38.29-.5.53-1.02.74-1.41.2-.39.33-.64.33-.64,0,0,.12-.26.3-.66.17-.4.43-.92.64-1.45.21-.54.42-1.08.58-1.48.15-.41.24-.68.24-.68,0,0,1.67.23,3.37.41,1.69.18,3.4.31,3.4.31,0,0,.04-.11.09-.31.06-.2.14-.49.24-.83.1-.34.21-.75.33-1.18.1-.44.21-.9.32-1.36.23-.93.39-1.87.51-2.57.06-.35.12-.65.15-.85.03-.21.04-.32.04-.32,0,0-1.59-.63-3.2-1.19-1.6-.57-3.21-1.08-3.21-1.08Zm-40.9,29.02c-18.57,0-33.63-15.06-33.63-33.63s15.06-33.63,33.63-33.63,33.63,15.06,33.63,33.63-15.06,33.63-33.63,33.63Z"/>
          <path class="cls-5" d="m191.97,179.02s0-.05.02-.14c.01-.09.03-.22.04-.38.02-.31.05-.73.09-1.14.02-.42.02-.83.04-1.15,0-.31.01-.52.01-.52,0,0,0-.21-.01-.52-.01-.31-.01-.73-.04-1.15-.03-.41-.06-.83-.09-1.14,0-.16-.02-.29-.04-.38-.01-.09-.02-.14-.02-.14,0,0,1.16-.37,2.32-.78,1.16-.41,2.31-.86,2.31-.86,0,0-.01-.09-.03-.23-.02-.15-.06-.36-.11-.61-.09-.51-.2-1.19-.37-1.86-.08-.33-.16-.67-.23-.98-.09-.31-.17-.6-.24-.85-.07-.25-.13-.45-.17-.6-.04-.14-.07-.23-.07-.23,0,0-1.23.09-2.45.22-1.22.13-2.43.3-2.43.3,0,0-.06-.2-.17-.49-.11-.29-.27-.68-.42-1.07-.15-.39-.34-.76-.46-1.05-.13-.28-.21-.47-.21-.47,0,0-.09-.19-.24-.46-.15-.28-.32-.65-.53-1.01-.21-.36-.42-.72-.57-.99-.17-.26-.28-.44-.28-.44,0,0,.89-.84,1.75-1.72.86-.87,1.7-1.78,1.7-1.78,0,0-.2-.28-.5-.7-.15-.21-.32-.46-.51-.72-.2-.25-.41-.52-.62-.79-.41-.55-.89-1.05-1.22-1.45-.17-.2-.31-.35-.42-.46-.1-.11-.16-.17-.16-.17,0,0-1.07.62-2.11,1.26-1.04.64-2.05,1.32-2.05,1.32,0,0-.15-.14-.38-.36-.23-.21-.52-.51-.84-.78-.32-.27-.63-.55-.87-.75-.24-.19-.41-.32-.41-.32,0,0-.16-.13-.41-.32-.24-.2-.58-.44-.92-.68-.34-.24-.68-.48-.95-.65-.26-.17-.44-.28-.44-.28,0,0,.44-1.14.84-2.31.4-1.15.76-2.33.76-2.33,0,0-.3-.17-.75-.43-.45-.25-1.07-.56-1.68-.87-.63-.28-1.25-.58-1.73-.77-.48-.19-.8-.32-.8-.32,0,0-.7,1.01-1.35,2.05-.66,1.03-1.28,2.09-1.28,2.09,0,0-.2-.07-.49-.17-.15-.05-.32-.11-.51-.17-.19-.05-.39-.11-.59-.17-.4-.11-.8-.24-1.11-.3-.31-.07-.51-.12-.51-.12,0,0-.2-.05-.51-.12-.31-.07-.72-.13-1.13-.21-.41-.08-.82-.13-1.13-.17s-.52-.07-.52-.07c0,0-.03-.31-.07-.76-.04-.46-.11-1.07-.18-1.67-.14-1.21-.33-2.43-.33-2.43,0,0-.34-.03-.86-.06-.51-.02-1.2-.04-1.89-.05-.69.02-1.37.03-1.89.05-.51.04-.86.06-.86.06,0,0-.19,1.22-.33,2.43-.07.61-.14,1.21-.18,1.67-.04.46-.07.76-.07.76,0,0-.21.03-.52.07s-.72.08-1.13.17c-.41.08-.82.14-1.13.21-.3.07-.51.12-.51.12,0,0-.2.05-.51.12-.31.06-.7.19-1.11.3-.2.06-.4.11-.59.17-.19.06-.36.12-.51.17-.3.1-.49.17-.49.17,0,0-.62-1.06-1.28-2.09-.65-1.03-1.35-2.05-1.35-2.05,0,0-.32.13-.8.32-.48.19-1.1.49-1.73.77-.61.31-1.23.62-1.68.87-.45.26-.75.43-.75.43,0,0,.36,1.17.76,2.33.4,1.17.84,2.31.84,2.31,0,0-.18.11-.44.28-.27.16-.61.4-.95.65-.34.24-.68.48-.92.68-.25.19-.41.32-.41.32,0,0-.16.13-.41.32-.24.2-.55.48-.87.75-.32.27-.61.57-.84.78-.23.22-.38.36-.38.36,0,0-1.01-.67-2.05-1.32-1.04-.65-2.11-1.26-2.11-1.26,0,0-.06.06-.16.17-.1.11-.25.26-.42.46-.33.39-.8.9-1.22,1.45-.21.27-.42.54-.62.79-.19.26-.36.51-.51.71-.3.42-.5.7-.5.7,0,0,.84.91,1.7,1.78.86.88,1.75,1.72,1.75,1.72,0,0-.11.18-.28.44-.16.27-.36.63-.57.99-.21.36-.39.74-.53,1.01-.14.28-.24.46-.24.46,0,0-.09.19-.22.47-.12.29-.31.66-.46,1.05-.15.39-.31.77-.42,1.07-.11.29-.17.49-.17.49,0,0-1.21-.17-2.43-.3-1.22-.13-2.45-.22-2.45-.22,0,0-.03.08-.07.23-.04.14-.1.35-.17.6-.07.25-.15.54-.24.85-.07.31-.15.65-.23.98-.17.67-.28,1.35-.37,1.86-.04.25-.08.47-.11.61-.02.15-.03.23-.03.23,0,0,1.15.45,2.31.86,1.16.41,2.32.78,2.32.78,0,0,0,.05-.02.14-.01.09-.03.22-.04.38-.02.31-.05.73-.09,1.14-.02.42-.03.83-.04,1.15,0,.31-.01.52-.01.52,0,0,0,.21.01.52.01.31.01.73.04,1.15.03.41.06.83.09,1.14.01.16.02.29.04.38.01.09.02.14.02.14,0,0-1.16.37-2.32.78-1.16.41-2.31.86-2.31.86,0,0,.01.09.03.23.02.15.06.36.11.61.09.51.2,1.19.37,1.86.08.33.16.67.23.98.09.31.17.6.24.85.07.25.13.45.17.6.04.14.07.23.07.23,0,0,1.23-.09,2.45-.22,1.22-.13,2.43-.3,2.43-.3,0,0,.06.2.17.49.11.29.27.68.42,1.07.15.39.34.76.46,1.05.13.28.22.47.22.47,0,0,.09.19.24.46.15.28.32.65.53,1.01.21.36.41.72.57.99.17.26.28.44.28.44,0,0-.89.84-1.75,1.72-.86.87-1.7,1.78-1.7,1.78,0,0,.2.28.5.7.15.21.32.46.51.71.2.25.41.52.62.79.41.55.89,1.05,1.22,1.45.17.2.31.35.42.46.1.11.16.17.16.17,0,0,1.07-.62,2.11-1.26,1.04-.64,2.05-1.32,2.05-1.32,0,0,.15.14.38.36.23.21.52.51.84.78.32.27.63.54.87.75.24.19.41.32.41.32,0,0,.16.13.41.32.24.2.58.44.92.68.34.24.68.48.95.65.26.17.44.28.44.28,0,0-.44,1.14-.84,2.31-.4,1.15-.76,2.33-.76,2.33,0,0,.3.17.74.43.45.25,1.07.56,1.68.87.63.28,1.25.58,1.73.77.48.19.8.32.8.32,0,0,.7-1.02,1.35-2.04.66-1.03,1.28-2.09,1.28-2.09,0,0,.2.07.49.17.15.05.32.11.51.17.19.05.39.11.59.17.4.11.8.24,1.11.3.3.07.51.12.51.12,0,0,.2.05.51.12.31.07.72.13,1.13.21.41.08.82.13,1.13.17.31.04.52.07.52.07,0,0,.03.31.07.76.04.46.11,1.07.18,1.67.14,1.21.33,2.43.33,2.43,0,0,.34.03.86.07.51.02,1.2.03,1.89.05.69-.02,1.37-.03,1.89-.05.51-.04.86-.07.86-.07,0,0,.19-1.22.33-2.43.07-.61.14-1.21.18-1.67.04-.46.07-.76.07-.76,0,0,.21-.03.52-.07.31-.04.72-.09,1.13-.17.41-.08.82-.14,1.13-.21.3-.07.51-.12.51-.12,0,0,.2-.05.51-.12.31-.06.7-.19,1.11-.3.2-.06.4-.11.59-.17.18-.06.36-.12.51-.17.3-.1.49-.17.49-.17,0,0,.62,1.06,1.28,2.09.65,1.03,1.35,2.04,1.35,2.04,0,0,.32-.13.8-.32.48-.19,1.1-.49,1.73-.77.61-.32,1.23-.62,1.68-.87.45-.26.74-.43.74-.43,0,0-.36-1.18-.76-2.33-.4-1.16-.84-2.31-.84-2.31,0,0,.17-.11.44-.28.27-.16.61-.4.95-.65.34-.24.68-.48.92-.68.25-.19.41-.32.41-.32,0,0,.16-.13.41-.32.24-.21.55-.48.87-.75.32-.27.61-.57.84-.78.23-.21.38-.36.38-.36,0,0,1.01.67,2.05,1.32,1.04.65,2.11,1.26,2.11,1.26,0,0,.06-.06.16-.17.1-.11.25-.26.42-.46.33-.39.8-.9,1.22-1.45.21-.27.42-.54.62-.79.19-.26.36-.5.51-.71.3-.42.5-.7.5-.7,0,0-.84-.91-1.7-1.78-.86-.88-1.75-1.72-1.75-1.72,0,0,.11-.18.28-.44.16-.27.36-.63.57-.99.21-.36.38-.74.53-1.01.14-.28.24-.46.24-.46,0,0,.09-.19.21-.47.13-.29.31-.66.46-1.05.15-.39.31-.78.42-1.07.11-.29.17-.49.17-.49,0,0,1.21.17,2.43.3,1.22.13,2.45.22,2.45.22,0,0,.03-.08.07-.23.04-.14.1-.35.17-.6.07-.25.15-.54.24-.85.07-.31.15-.65.23-.98.17-.67.28-1.35.37-1.86.04-.25.08-.47.11-.62.02-.15.03-.23.03-.23,0,0-1.15-.45-2.31-.86-1.16-.41-2.32-.78-2.32-.78Zm-29.52,20.94c-13.4,0-24.27-10.87-24.27-24.27s10.87-24.27,24.27-24.27,24.27,10.87,24.27,24.27-10.87,24.27-24.27,24.27Z"/>
        </g>
        <path class="cls-3" d="m189.91,127.04s.01-.1.04-.28c.03-.18.05-.43.07-.73.05-.61.11-1.42.17-2.23.05-.81.05-1.63.07-2.23.02-.61.03-1.02.03-1.02,0,0-.01-.41-.03-1.02-.02-.61-.02-1.42-.07-2.23-.06-.81-.12-1.62-.17-2.23-.02-.3-.04-.56-.07-.73-.02-.18-.04-.28-.04-.28,0,0,2.27-.72,4.52-1.53,2.26-.8,4.5-1.68,4.5-1.68,0,0-.02-.17-.06-.46-.04-.29-.12-.7-.21-1.2-.18-.99-.39-2.32-.72-3.62-.15-.65-.31-1.31-.45-1.92-.17-.61-.33-1.17-.47-1.66-.14-.48-.25-.89-.33-1.17-.08-.28-.13-.44-.13-.44,0,0-2.41.18-4.79.44-2.39.25-4.74.58-4.74.58,0,0-.12-.39-.33-.96-.22-.57-.52-1.32-.82-2.08-.3-.76-.66-1.49-.9-2.05-.25-.56-.42-.93-.42-.93,0,0-.19-.36-.46-.9-.29-.54-.63-1.28-1.04-1.98-.41-.71-.81-1.41-1.12-1.94-.33-.51-.54-.86-.54-.86,0,0,1.73-1.64,3.41-3.35,1.69-1.7,3.33-3.48,3.33-3.48,0,0-.39-.55-.97-1.37-.29-.41-.63-.89-1.01-1.39-.39-.5-.8-1.02-1.22-1.55-.81-1.07-1.73-2.05-2.37-2.82-.33-.38-.61-.69-.82-.9-.2-.21-.32-.33-.32-.33,0,0-2.09,1.2-4.12,2.46-2.03,1.26-4.01,2.57-4.01,2.57,0,0-.29-.28-.74-.7-.45-.41-1.01-1-1.63-1.53-.62-.53-1.23-1.06-1.69-1.46-.48-.38-.8-.63-.8-.63,0,0-.32-.25-.8-.63-.47-.39-1.13-.86-1.8-1.33-.66-.48-1.32-.94-1.85-1.26-.51-.33-.86-.55-.86-.55,0,0,.85-2.23,1.64-4.51.78-2.25,1.48-4.55,1.48-4.55,0,0-.58-.33-1.46-.84-.88-.5-2.08-1.09-3.28-1.7-1.22-.55-2.44-1.13-3.37-1.51-.94-.37-1.56-.62-1.56-.62,0,0-1.36,1.98-2.64,3.99-1.29,2.02-2.51,4.08-2.51,4.08,0,0-.39-.13-.96-.33-.29-.1-.63-.21-.99-.33-.37-.1-.76-.22-1.15-.33-.78-.22-1.56-.46-2.16-.58-.59-.14-.99-.23-.99-.23,0,0-.4-.09-.99-.23-.6-.13-1.4-.26-2.2-.4-.8-.16-1.61-.25-2.21-.33-.61-.08-1.01-.13-1.01-.13,0,0-.05-.6-.14-1.49-.09-.9-.21-2.09-.36-3.27-.28-2.37-.64-4.74-.64-4.74,0,0-.67-.05-1.67-.13-1-.05-2.34-.07-3.68-.1-1.34.03-2.68.05-3.68.1-1,.07-1.67.12-1.67.12,0,0-.36,2.37-.65,4.74-.14,1.18-.27,2.37-.36,3.27-.08.9-.14,1.49-.14,1.49,0,0-.4.05-1.01.13s-1.41.17-2.21.33c-.8.15-1.6.27-2.2.4-.59.14-.99.23-.99.23,0,0-.4.09-.99.23-.6.12-1.38.36-2.16.58-.39.11-.78.22-1.15.33-.36.12-.7.23-.99.33-.58.2-.96.33-.96.33,0,0-1.22-2.06-2.51-4.08-1.28-2.01-2.64-3.99-2.64-3.99,0,0-.62.25-1.56.62-.93.38-2.15.95-3.37,1.51-1.19.62-2.4,1.21-3.28,1.7-.87.5-1.46.84-1.46.84,0,0,.7,2.29,1.48,4.55.78,2.27,1.64,4.51,1.64,4.51,0,0-.34.22-.86.55-.52.32-1.19.79-1.85,1.26-.67.47-1.33.94-1.8,1.33-.48.38-.8.63-.8.63,0,0-.32.25-.8.63-.46.4-1.08.93-1.69,1.46-.62.53-1.19,1.11-1.63,1.53-.44.42-.74.7-.74.7,0,0-1.98-1.32-4.01-2.57-2.03-1.26-4.11-2.46-4.11-2.46,0,0-.12.12-.32.33-.2.21-.49.52-.82.9-.65.77-1.57,1.75-2.38,2.82-.41.53-.83,1.06-1.22,1.55-.38.5-.71.99-1,1.4-.58.82-.97,1.37-.97,1.37,0,0,1.64,1.77,3.33,3.48,1.68,1.71,3.41,3.35,3.41,3.35,0,0-.22.34-.54.86-.3.53-.71,1.23-1.11,1.94-.41.7-.75,1.44-1.04,1.98-.28.54-.46.9-.46.9,0,0-.17.37-.42.93-.24.56-.6,1.29-.9,2.05-.3.76-.6,1.51-.82,2.08-.21.57-.33.96-.33.96,0,0-2.36-.33-4.74-.58-2.38-.26-4.79-.44-4.79-.44,0,0-.06.16-.13.44-.08.28-.2.69-.33,1.17-.14.48-.3,1.05-.47,1.66-.14.61-.3,1.27-.45,1.92-.33,1.31-.54,2.63-.72,3.62-.09.5-.16.91-.21,1.2-.04.29-.06.46-.06.46,0,0,2.25.88,4.5,1.68,2.26.81,4.52,1.53,4.52,1.53,0,0-.01.1-.04.28-.03.18-.05.43-.07.73-.05.61-.11,1.42-.17,2.23-.05.81-.05,1.63-.07,2.23-.02.61-.03,1.02-.03,1.02,0,0,.01.41.03,1.02.02.61.02,1.42.07,2.23.06.81.12,1.62.17,2.23.02.3.04.56.07.73.02.18.03.28.03.28,0,0-2.27.72-4.52,1.53-2.26.8-4.5,1.68-4.5,1.68,0,0,.02.17.06.46.04.29.12.7.21,1.2.18.99.39,2.32.72,3.62.15.65.31,1.31.45,1.92.17.61.33,1.17.47,1.66.14.48.25.89.33,1.17.08.28.13.44.13.44,0,0,2.41-.18,4.79-.44,2.38-.25,4.74-.58,4.74-.58,0,0,.12.39.33.96.22.57.52,1.32.82,2.08.3.76.66,1.49.9,2.05.25.55.42.93.42.93,0,0,.19.36.46.9.29.54.63,1.28,1.04,1.98.4.7.81,1.41,1.11,1.94.33.52.55.86.55.86,0,0-1.73,1.64-3.41,3.35-1.69,1.7-3.33,3.48-3.33,3.48,0,0,.39.55.97,1.37.29.41.63.89,1,1.4.39.49.8,1.02,1.22,1.55.81,1.07,1.73,2.05,2.38,2.82.33.38.61.69.82.9.2.21.32.33.32.33,0,0,2.09-1.2,4.12-2.46,2.03-1.26,4.01-2.57,4.01-2.57,0,0,.29.28.74.7.45.41,1.01,1,1.63,1.53.62.53,1.23,1.07,1.69,1.46.48.38.8.63.8.63,0,0,.32.25.8.63.47.39,1.13.86,1.8,1.33.66.48,1.32.94,1.85,1.26.51.33.86.55.86.55,0,0-.85,2.23-1.64,4.51-.78,2.25-1.48,4.55-1.48,4.55,0,0,.58.33,1.46.84.88.5,2.08,1.09,3.28,1.7,1.22.55,2.44,1.13,3.37,1.51.94.37,1.56.62,1.56.62,0,0,1.36-1.98,2.64-3.99,1.29-2.02,2.51-4.08,2.51-4.08,0,0,.38.13.96.33.29.1.63.21.99.33.37.1.76.22,1.15.33.78.22,1.56.46,2.16.58.59.14.99.23.99.23,0,0,.4.09.99.23.6.13,1.4.26,2.2.4.8.16,1.61.25,2.21.33.6.08,1.01.13,1.01.13,0,0,.05.6.14,1.49.09.9.21,2.09.36,3.27.28,2.37.65,4.74.65,4.74,0,0,.67.05,1.67.12,1,.05,2.34.07,3.68.1,1.34-.03,2.68-.05,3.68-.1,1-.07,1.67-.12,1.67-.12,0,0,.37-2.37.65-4.74.14-1.18.27-2.37.35-3.27.08-.89.14-1.49.14-1.49,0,0,.4-.05,1.01-.13.6-.08,1.41-.17,2.21-.33.8-.15,1.6-.27,2.2-.4.59-.14.99-.23.99-.23,0,0,.4-.09.99-.23.6-.12,1.38-.36,2.16-.58.39-.11.78-.22,1.15-.33.36-.12.7-.23.99-.33.58-.2.96-.33.96-.33,0,0,1.22,2.06,2.51,4.08,1.28,2.01,2.64,3.99,2.64,3.99,0,0,.62-.25,1.56-.62.93-.38,2.15-.95,3.37-1.51,1.19-.62,2.4-1.21,3.28-1.7.87-.5,1.46-.84,1.46-.84,0,0-.7-2.29-1.48-4.55-.78-2.27-1.64-4.51-1.64-4.51,0,0,.34-.22.86-.55.52-.32,1.19-.79,1.85-1.26.67-.47,1.33-.94,1.8-1.33.48-.38.8-.63.8-.63,0,0,.32-.25.8-.63.46-.4,1.08-.93,1.69-1.46.62-.53,1.19-1.11,1.63-1.53.44-.42.74-.7.74-.7,0,0,1.98,1.32,4.01,2.57,2.03,1.26,4.11,2.46,4.11,2.46,0,0,.12-.12.32-.33.2-.21.49-.52.82-.9.65-.77,1.57-1.75,2.38-2.82.41-.53.83-1.06,1.22-1.55.38-.5.71-.99,1.01-1.4.58-.82.97-1.37.97-1.37,0,0-1.64-1.77-3.33-3.48-1.68-1.71-3.41-3.35-3.41-3.35,0,0,.22-.34.54-.86.3-.53.71-1.23,1.12-1.94.41-.7.75-1.44,1.04-1.98.28-.54.46-.9.46-.9,0,0,.17-.37.42-.93.24-.56.6-1.29.9-2.04.3-.76.6-1.51.82-2.08.21-.57.33-.96.33-.96,0,0,2.36.33,4.74.58,2.38.26,4.79.44,4.79.44,0,0,.06-.16.13-.44.08-.28.2-.69.33-1.17.14-.49.3-1.05.47-1.66.14-.61.3-1.27.45-1.92.33-1.3.54-2.63.72-3.62.09-.5.16-.91.21-1.2.04-.29.06-.46.06-.46,0,0-2.24-.88-4.5-1.68-2.26-.81-4.52-1.53-4.52-1.53Z"/>
        <g>
          <g>
            <circle class="cls-2" cx="132.3" cy="120.54" r="41.76" transform="translate(-15.24 221.86) rotate(-76.81)"/>
            <g>
              <path class="cls-4" d="m132.3,88.41c-.44,0-.8-.36-.8-.8v-5.16c0-.44.36-.8.8-.8s.8.36.8.8v5.16c0,.44-.36.8-.8.8Z"/>
              <path class="cls-4" d="m132.3,159.43c-.44,0-.8-.36-.8-.8v-5.16c0-.44.36-.8.8-.8s.8.36.8.8v5.16c0,.44-.36.8-.8.8Z"/>
            </g>
            <g>
              <path class="cls-4" d="m115.84,92.34c-.11,0-.22-.06-.28-.16l-2.58-4.47c-.09-.15-.04-.35.12-.44.15-.09.35-.04.44.12l2.58,4.47c.09.15.04.35-.12.44-.05.03-.1.04-.16.04Z"/>
              <path class="cls-4" d="m151.35,153.85c-.11,0-.22-.06-.28-.16l-2.58-4.47c-.09-.15-.04-.35.12-.44.15-.09.35-.04.43.12l2.58,4.47c.09.15.04.35-.12.43-.05.03-.1.04-.16.04Z"/>
            </g>
            <g>
              <path class="cls-4" d="m103.78,104.39c-.05,0-.11-.01-.16-.04l-4.47-2.58c-.15-.09-.2-.28-.12-.44.09-.15.28-.2.44-.12l4.47,2.58c.15.09.2.28.12.44-.06.1-.17.16-.28.16Z"/>
              <path class="cls-4" d="m165.29,139.91c-.05,0-.11-.01-.16-.04l-4.47-2.58c-.15-.09-.2-.28-.12-.44.09-.15.28-.2.43-.12l4.47,2.58c.15.09.2.28.12.43-.06.1-.17.16-.28.16Z"/>
            </g>
            <g>
              <path class="cls-4" d="m99.37,121.34h-5.16c-.44,0-.8-.36-.8-.8s.36-.8.8-.8h5.16c.44,0,.8.36.8.8s-.36.8-.8.8Z"/>
              <path class="cls-4" d="m170.4,121.34h-5.16c-.44,0-.8-.36-.8-.8s.36-.8.8-.8h5.16c.44,0,.8.36.8.8s-.36.8-.8.8Z"/>
            </g>
            <g>
              <path class="cls-4" d="m99.31,139.91c-.11,0-.22-.06-.28-.16-.09-.15-.04-.35.12-.44l4.47-2.58c.15-.09.35-.04.44.12.09.15.04.35-.12.43l-4.47,2.58c-.05.03-.1.04-.16.04Z"/>
              <path class="cls-4" d="m160.82,104.39c-.11,0-.22-.06-.28-.16-.09-.15-.04-.35.12-.44l4.47-2.58c.15-.09.35-.04.43.12.09.15.04.35-.12.44l-4.47,2.58s-.1.04-.16.04Z"/>
            </g>
            <g>
              <path class="cls-4" d="m113.25,153.85c-.05,0-.11-.01-.16-.04-.15-.09-.2-.28-.12-.44l2.58-4.47c.09-.15.28-.2.44-.12.15.09.2.28.12.43l-2.58,4.47c-.06.1-.17.16-.28.16Z"/>
              <path class="cls-4" d="m148.77,92.34c-.05,0-.11-.01-.16-.04-.15-.09-.2-.28-.12-.44l2.58-4.47c.09-.15.28-.2.44-.12.15.09.2.28.12.44l-2.58,4.47c-.06.1-.17.16-.28.16Z"/>
            </g>
          </g>
          <path class="cls-4" d="m124.85,128.87c-.22,0-.44-.08-.61-.25-.34-.34-.34-.89,0-1.22l27.16-27.16c.34-.34.89-.34,1.22,0,.34.34.34.89,0,1.22l-27.16,27.16c-.17.17-.39.25-.61.25Z"/>
          <path class="cls-4" d="m136.08,125.63c-.33,0-.66-.13-.92-.38l-17.43-17.43c-.51-.51-.51-1.33,0-1.84.51-.51,1.33-.51,1.84,0l17.43,17.43c.51.51.51,1.33,0,1.84-.25.25-.59.38-.92.38Z"/>
          <path class="cls-6" d="m143.74,153.14c-.27,0-.52-.17-.61-.43-2.93-8.39-6.02-16.93-9-25.2-1.62-4.49-3.24-8.97-4.82-13.41-.12-.34.06-.71.39-.83.34-.12.71.05.83.39,1.59,4.44,3.2,8.92,4.82,13.41,2.98,8.27,6.07,16.81,9,25.21.12.34-.06.71-.4.83-.07.02-.14.04-.21.04Z"/>
          <path class="cls-6" d="m129.61,120.54c0-1.49,1.21-2.69,2.69-2.69s2.69,1.21,2.69,2.69-1.21,2.69-2.69,2.69-2.69-1.21-2.69-2.69Z"/>
          <path class="cls-4" d="m132.3,71.96c-26.83,0-48.58,21.75-48.58,48.58s21.75,48.58,48.58,48.58,48.58-21.75,48.58-48.58-21.75-48.58-48.58-48.58Zm0,90.34c-23.06,0-41.76-18.69-41.76-41.76s18.7-41.76,41.76-41.76,41.76,18.7,41.76,41.76-18.69,41.76-41.76,41.76Z"/>
        </g>
      </g>
    </g>
  </g>
</svg>